<?xml version="1.0" standalone="no"?>
<!DOCTYPE svg PUBLIC "-//W3C//DTD SVG 20010904//EN"
 "http://www.w3.org/TR/2001/REC-SVG-20010904/DTD/svg10.dtd">
<svg version="1.0" xmlns="http://www.w3.org/2000/svg"
 width="300.000000pt" height="200.000000pt" viewBox="0 0 300.000000 200.000000"
 preserveAspectRatio="xMidYMid meet">
<metadata>
Created by potrace 1.10, written by Peter Selinger 2001-2011
</metadata>
<g transform="translate(0.000000,200.000000) scale(0.100000,-0.100000)"
fill="#e53e41" stroke="none">
<path d="M1220 1669 c-60 -5 -119 -17 -161 -33 -36 -13 -94 -30 -130 -36 -91
-16 -154 -38 -221 -77 -32 -19 -98 -50 -146 -69 -78 -31 -97 -44 -175 -122
-115 -113 -211 -235 -246 -314 -46 -103 -74 -197 -67 -229 4 -22 -1 -40 -19
-68 -29 -43 -52 -183 -36 -222 13 -34 80 -94 118 -107 18 -6 88 -14 155 -17
68 -4 134 -12 147 -18 20 -10 26 -8 43 13 75 97 78 99 107 94 18 -4 45 2 74
15 25 12 55 21 67 21 11 0 36 7 55 14 34 15 35 14 35 -8 0 -40 22 -49 77 -33
49 14 99 7 115 -17 4 -7 42 -11 95 -11 74 0 94 4 118 21 17 12 47 23 68 26 37
4 40 2 78 -51 39 -55 119 -109 162 -111 9 0 26 -5 36 -12 14 -9 38 -9 99 0 53
7 91 8 113 2 43 -13 112 -13 158 0 20 5 76 19 124 31 48 11 111 31 140 43 46
21 69 23 212 24 88 1 192 6 230 12 39 7 81 11 95 11 14 -1 37 10 50 22 21 20
61 37 92 41 3 1 10 4 14 8 4 5 15 8 24 8 28 0 40 23 46 88 9 80 -10 114 -58
106 -18 -3 -98 -9 -178 -15 -80 -6 -158 -14 -175 -19 -38 -11 -214 -3 -286 13
l-54 13 4 64 c4 85 7 97 26 150 18 48 14 132 -8 158 -6 8 -16 23 -22 35 -5 11
-19 25 -30 31 -11 6 -24 17 -28 24 -12 18 -57 39 -102 46 -55 10 -105 59 -139
136 -26 61 -41 82 -144 199 -99 113 -250 145 -552 120z m355 -27 c72 -23 147
-67 182 -107 120 -138 153 -191 157 -255 1 -22 -2 -24 -44 -25 l-45 0 3 33 c3
27 -1 35 -17 39 -11 3 -18 9 -15 14 3 5 0 9 -6 9 -7 0 -10 6 -7 13 3 8 -7 21
-24 31 -30 18 -34 36 -9 44 7 3 10 0 6 -7 -10 -16 7 -14 30 5 18 14 18 15 -5
8 -19 -5 -23 -3 -18 10 3 8 1 18 -5 22 -6 4 -8 3 -5 -3 3 -5 -3 -17 -14 -26
-22 -20 -24 -31 -6 -49 7 -7 22 -26 32 -43 11 -16 25 -34 32 -38 7 -4 13 -19
13 -32 0 -17 -8 -26 -30 -34 -28 -9 -34 -7 -31 12 1 5 -3 6 -9 2 -5 -3 -10
-12 -10 -19 0 -10 -16 -13 -55 -12 -30 1 -55 0 -55 -2 0 -1 10 -7 23 -12 16
-6 18 -9 5 -9 -10 -1 -25 -15 -33 -31 -9 -17 -20 -28 -25 -25 -6 4 -10 0 -10
-7 -1 -18 -37 -64 -45 -56 -7 7 15 46 52 91 13 16 23 38 23 49 0 11 8 22 20
25 11 3 20 10 20 15 0 5 -5 6 -10 3 -6 -4 -18 -1 -27 7 -15 11 -16 11 -10 -4
3 -10 2 -20 -3 -23 -5 -3 -7 -11 -4 -18 5 -15 -33 -63 -47 -59 -5 1 -8 -1 -7
-5 1 -5 -6 -33 -15 -63 -18 -61 -18 -113 -1 -106 13 5 34 -35 34 -62 0 -9 -7
-36 -15 -60 -19 -52 -14 -63 57 -127 67 -61 128 -89 179 -82 21 3 39 1 41 -4
2 -4 21 -11 43 -15 22 -3 45 -9 50 -12 17 -11 38 -14 105 -14 48 -1 74 4 97
19 18 11 30 23 27 26 -14 14 29 19 73 8 104 -27 252 -34 401 -19 36 4 60 2 56
-3 -3 -5 -19 -9 -36 -9 -17 0 -29 -3 -26 -6 4 -3 33 -2 65 2 43 5 53 9 38 15
-26 10 -14 11 180 21 l50 3 -1 -40 c-2 -91 -2 -91 -76 -115 -38 -12 -71 -26
-74 -31 -3 -5 -17 -9 -31 -9 -21 0 -24 -2 -13 -15 15 -18 7 -19 -21 -4 -13 7
-24 7 -32 1 -23 -19 -297 -36 -362 -23 -29 6 38 18 85 15 45 -3 51 -1 30 7
-14 6 -45 8 -70 5 -25 -3 -74 -7 -108 -10 -39 -4 -79 -14 -103 -28 -38 -21
-55 -43 -24 -32 8 4 15 9 15 13 0 10 89 31 127 29 18 0 30 -5 27 -10 -3 -5
-19 -6 -35 -3 -17 4 -35 3 -42 -2 -26 -19 -145 -54 -170 -49 -16 3 -27 -1 -31
-10 -3 -8 -11 -14 -18 -14 -9 0 -9 3 2 11 11 8 7 9 -19 5 -18 -3 -40 -6 -47
-6 -8 0 -13 -6 -11 -12 3 -17 -139 -23 -168 -8 -16 9 -41 8 -104 -4 -100 -19
-91 -19 -91 -1 0 11 -11 15 -41 15 -28 0 -38 4 -33 12 4 7 3 8 -4 4 -13 -8
-56 17 -46 27 3 3 -3 3 -15 0 -12 -3 -21 -1 -21 6 0 10 -22 42 -91 133 -18 24
-23 26 -45 16 -13 -6 -24 -14 -24 -18 0 -10 -40 -23 -62 -20 -10 1 -18 -3 -18
-8 0 -16 53 -6 108 21 18 9 25 8 32 -3 8 -12 1 -16 -33 -21 -23 -3 -57 -14
-74 -23 -37 -20 -180 -26 -191 -9 -22 33 -113 44 -148 18 -10 -8 -22 -15 -26
-15 -14 0 -8 45 8 68 9 13 14 25 12 27 -2 3 -33 -9 -68 -26 -35 -16 -70 -27
-77 -25 -7 3 -38 -6 -67 -20 -40 -19 -59 -23 -73 -16 -10 5 -49 10 -87 10 -61
0 -75 4 -114 32 -37 26 -46 29 -60 18 -13 -11 -14 -11 -8 1 6 9 5 12 -4 9 -28
-9 -23 -30 7 -27 15 2 39 -4 53 -14 13 -9 46 -24 72 -33 39 -13 52 -13 64 -3
9 7 18 9 24 3 6 -6 -4 -24 -25 -47 -19 -21 -35 -42 -35 -48 0 -15 -22 -11 -43
8 -12 11 -17 12 -12 4 7 -11 -4 -13 -66 -7 -214 19 -225 22 -275 70 -45 44
-53 70 -34 107 7 13 7 25 0 38 -7 13 -7 22 0 26 5 3 10 12 10 20 0 11 39 77
55 93 2 3 12 -4 22 -13 11 -11 18 -14 21 -6 6 19 29 12 27 -8 -2 -29 -23 -50
-45 -44 -12 3 -20 0 -20 -6 0 -7 -5 -9 -10 -6 -6 4 -17 1 -25 -5 -17 -14 -20
-46 -6 -55 6 -3 8 7 5 22 l-4 28 14 -25 c8 -14 12 -29 9 -33 -3 -5 5 -3 17 5
18 11 23 11 36 -6 8 -11 14 -14 14 -7 0 8 7 10 21 6 22 -7 69 11 69 27 0 5 -9
4 -20 -2 -22 -12 -44 -5 -35 11 4 5 2 9 -4 9 -5 0 -13 -4 -16 -10 -3 -5 -1
-10 4 -10 6 0 11 -5 11 -12 0 -7 -7 -5 -18 5 -10 9 -27 14 -38 11 -21 -5 -61
23 -49 34 3 3 11 0 17 -6 7 -7 21 -12 32 -11 18 1 17 2 -4 9 l-25 8 25 3 c55
6 66 4 82 -16 16 -18 17 -18 18 -2 0 10 -7 20 -16 24 -13 5 -13 8 -2 15 10 7
8 8 -6 6 -13 -2 -20 4 -21 19 -4 50 30 19 67 -59 16 -36 26 -42 55 -39 6 1 15
-3 18 -9 5 -8 12 -4 22 9 8 12 18 19 23 16 5 -3 11 -1 14 4 7 11 -12 9 -39 -5
-29 -16 -67 -2 -85 29 -13 24 -13 29 3 54 10 16 28 47 39 71 22 41 37 49 46
22 3 -8 0 -10 -9 -5 -8 5 -11 4 -6 0 4 -5 17 -10 29 -12 11 -2 27 -11 34 -21
8 -9 14 -12 14 -5 0 15 -45 65 -52 57 -4 -3 -9 -1 -13 5 -3 6 -2 11 4 11 5 0
16 6 24 14 20 21 46 4 27 -18 -11 -14 -10 -19 2 -34 9 -9 18 -24 21 -32 4 -12
6 -11 6 3 1 10 -4 27 -9 37 -7 13 -7 21 0 25 5 3 10 15 10 26 0 11 7 33 15 49
14 28 16 28 44 14 34 -17 60 -44 42 -44 -7 0 -10 -4 -7 -9 11 -16 -53 -18 -71
-2 -16 15 -16 15 -1 -4 14 -17 14 -23 4 -37 -7 -10 -16 -15 -19 -12 -3 3 -3
-4 0 -17 l6 -23 9 23 c4 12 12 20 17 17 5 -3 8 2 7 11 0 10 7 19 17 21 10 2
17 -3 17 -12 0 -9 -5 -16 -10 -16 -7 0 -7 -6 0 -20 9 -16 20 -20 63 -18 47 1
48 2 12 5 -51 6 -66 18 -56 46 6 16 17 21 47 22 50 1 87 21 81 44 -3 11 2 17
14 18 15 1 19 -5 19 -28 0 -17 6 -32 15 -35 19 -8 19 -24 0 -24 -8 0 -20 -10
-26 -22 -9 -19 -9 -21 2 -11 7 7 18 13 23 13 6 0 4 -4 -4 -10 -8 -5 -11 -12
-7 -16 12 -12 47 33 47 61 0 16 4 24 11 20 5 -4 3 10 -5 30 -18 43 -21 69 -6
60 6 -4 10 5 10 19 0 34 42 76 113 115 54 30 77 33 40 5 -15 -10 -11 -11 27
-4 25 5 57 13 71 19 42 15 158 98 151 107 -4 4 -2 4 4 1 7 -4 38 2 70 14 33
11 93 23 136 26 75 6 77 5 103 -23 21 -23 26 -36 22 -61 -4 -20 -2 -33 5 -33
6 0 8 -9 4 -22 -4 -13 -9 -32 -11 -43 -3 -11 -10 -22 -16 -24 -8 -2 -7 -6 2
-12 10 -6 11 -9 2 -9 -8 0 -6 -7 6 -19 10 -10 21 -25 23 -32 3 -8 9 -11 13 -7
8 8 -3 49 -13 45 -15 -5 -14 10 1 64 31 105 39 190 20 196 -7 3 -13 0 -13 -7
0 -6 5 -8 12 -4 8 5 9 0 4 -17 -4 -13 -9 -37 -12 -53 -7 -51 -15 -42 -13 15 1
29 -2 84 -6 122 -7 64 -6 67 14 67 11 0 20 3 19 8 -4 14 24 82 32 77 4 -3 10
9 12 25 4 29 -5 40 -17 20 -4 -6 -11 -8 -16 -4 -6 4 -6 11 2 20 6 7 15 11 20
8 11 -6 11 -1 3 21 -6 14 -8 13 -21 -5 -13 -18 -51 -30 -40 -12 3 4 -17 8 -44
8 -27 1 -46 -2 -44 -6 3 -5 -2 -21 -10 -36 -8 -16 -15 -35 -15 -41 0 -7 -6
-13 -12 -13 -10 0 -9 -3 1 -9 7 -5 10 -14 7 -20 -4 -6 -4 -11 1 -10 24 4 61
-3 77 -14 14 -10 15 -17 7 -40 -6 -16 -7 -26 -2 -22 6 3 9 -3 9 -12 0 -10 3
-27 7 -37 5 -12 5 -17 -1 -13 -6 3 -16 2 -24 -4 -12 -7 -10 -9 9 -9 20 0 22
-2 11 -15 -11 -13 -15 -14 -29 -1 -9 7 -31 13 -49 12 -17 0 -32 2 -32 7 0 4
-5 7 -11 7 -5 0 -7 -4 -4 -10 4 -6 -6 -10 -22 -10 -15 -1 -44 -3 -64 -6 -31
-5 -40 -1 -63 26 -14 17 -26 27 -26 21 0 -5 5 -13 10 -16 6 -4 2 -18 -11 -36
-12 -17 -24 -28 -26 -25 -3 3 -14 1 -24 -4 -14 -8 -21 -3 -39 25 -25 40 -87
91 -97 81 -4 -4 -1 -11 7 -16 8 -6 11 -10 5 -11 -5 -1 -14 -2 -20 -4 -5 -1
-18 -3 -27 -3 -29 -3 -30 -36 -2 -87 l27 -48 -24 -18 c-13 -10 -25 -16 -27
-14 -2 2 -14 0 -26 -5 -19 -7 -24 -3 -40 33 -10 24 -15 50 -11 65 l6 25 -31
-27 c-32 -26 -70 -35 -70 -15 0 5 -4 8 -9 5 -15 -9 -19 16 -8 49 12 37 27 56
37 50 5 -3 12 0 15 6 4 5 13 8 21 5 22 -8 17 2 -7 15 -15 8 -19 8 -15 0 4 -6
2 -11 -4 -11 -6 0 -10 8 -8 18 2 9 10 16 16 14 7 -1 12 5 12 13 0 12 -4 13
-19 6 -17 -10 -18 -8 -10 28 12 56 31 98 36 84 3 -7 9 -13 15 -13 7 0 6 5 -1
14 -10 11 -8 17 9 29 21 14 21 15 1 20 -11 3 -24 0 -29 -7 -7 -9 -27 -69 -47
-141 -1 -5 -12 12 -24 39 l-21 48 -35 -26 c-18 -14 -36 -22 -39 -17 -4 5 -25
-1 -49 -13 -23 -13 -56 -25 -73 -29 -18 -3 -45 -18 -60 -32 l-29 -27 28 13
c15 7 27 16 27 21 0 5 5 6 10 3 6 -3 10 -2 10 3 0 5 14 12 30 14 33 5 38 -3
15 -22 -8 -7 -15 -9 -15 -5 0 5 -9 0 -20 -10 -11 -10 -20 -23 -20 -29 0 -6 9
0 20 14 11 14 20 20 20 13 0 -11 -43 -68 -65 -86 -6 -5 -3 -7 8 -3 25 8 21 -9
-5 -23 -23 -11 -23 -11 3 -8 22 3 25 1 21 -17 -3 -12 -2 -18 1 -15 4 3 8 14
10 25 5 27 29 74 38 74 4 0 5 10 1 22 -4 16 -2 19 8 13 8 -5 11 -4 7 2 -4 6
-1 24 6 42 10 28 24 37 50 32 5 -1 24 8 43 20 46 28 55 22 39 -26 -14 -40 -11
-85 6 -85 11 0 7 23 -5 31 -12 9 3 31 16 23 7 -4 8 -2 4 4 -4 7 -2 12 5 12 10
0 10 3 1 12 -7 7 -12 17 -12 22 0 17 30 -30 33 -53 2 -11 6 -24 10 -27 10 -10
-13 -35 -26 -27 -5 3 -7 1 -4 -4 4 -6 0 -23 -7 -39 -28 -52 30 -103 83 -73 30
17 26 22 57 -72 3 -10 -4 -19 -20 -27 -15 -7 -26 -8 -26 -2 0 5 -10 9 -22 7
-14 -1 -22 3 -20 11 3 16 -22 16 -49 0 -18 -11 -23 -10 -40 11 -12 14 -16 28
-11 35 16 20 21 59 10 79 -10 19 -11 19 -20 3 -7 -12 -6 -22 1 -29 12 -12 15
-47 5 -47 -11 0 -33 34 -34 52 0 9 -5 18 -11 20 -6 2 -1 16 12 33 16 19 19 30
11 33 -7 2 -10 8 -7 13 4 5 -1 6 -9 3 -12 -5 -13 1 -4 35 6 22 14 39 18 36 4
-3 14 3 21 13 12 15 12 15 -1 5 -14 -11 -21 -13 -38 -13 -4 0 -8 -10 -9 -22
-1 -11 -7 -25 -14 -29 -7 -4 -9 -14 -6 -23 4 -9 -2 -21 -16 -31 -12 -8 -17
-15 -11 -15 5 0 16 6 23 13 10 10 11 9 6 -5 -4 -11 -2 -18 4 -18 6 0 11 9 11
20 0 11 5 20 10 20 13 0 13 -6 0 -31 -6 -10 -16 -19 -22 -19 -6 0 -20 -7 -30
-16 -14 -14 -20 -14 -33 -4 -8 7 -15 8 -15 2 0 -19 33 -23 51 -6 17 15 19 15
19 1 0 -8 -12 -25 -26 -36 -25 -19 -25 -21 -6 -21 11 0 23 8 25 18 3 9 5 -1 5
-23 0 -22 1 -47 3 -55 2 -8 -6 -19 -18 -24 -18 -9 -21 -17 -20 -66 2 -52 3
-55 26 -52 21 2 23 -1 18 -28 -5 -25 -2 -32 20 -44 l27 -13 -23 -12 c-28 -16
-54 -7 -84 29 -13 15 -33 30 -43 32 -12 2 -19 12 -18 26 0 12 -3 22 -8 22 -4
0 -8 -9 -8 -21 0 -11 -4 -18 -9 -15 -4 3 -17 -4 -27 -17 -16 -18 -16 -19 -2
-8 16 12 17 11 7 -18 -6 -17 -16 -34 -22 -38 -6 -3 -7 -1 -3 5 13 21 -10 13
-39 -13 -15 -15 -32 -24 -39 -22 -6 2 -12 28 -14 58 -3 49 -2 52 12 34 13 -19
14 -18 9 7 -4 22 0 30 20 39 15 7 23 17 20 25 -6 17 -41 -3 -49 -28 -6 -19
-39 -24 -49 -8 -4 6 5 10 19 10 14 0 26 5 26 10 0 12 -2 12 -34 0 -25 -9 -37
-40 -16 -40 5 0 8 -16 6 -35 -1 -19 1 -40 6 -47 5 -8 8 -2 9 17 2 23 4 19 8
-15 6 -37 2 -55 -22 -103 l-28 -58 -30 25 c-17 15 -37 26 -45 26 -22 0 -17 20
9 30 19 9 19 10 2 7 -11 -1 -24 -12 -30 -25 -11 -26 -18 -27 -35 -7 -10 12
-10 15 3 15 9 0 19 4 22 10 4 7 -2 7 -19 0 -41 -15 -46 11 -19 93 56 167 115
260 253 403 100 103 140 136 157 130 8 -3 12 -2 9 3 -7 10 42 33 55 26 5 -4 9
-2 9 3 0 5 18 12 40 16 22 3 40 10 40 15 0 13 105 68 168 88 42 14 57 15 72 5
16 -10 18 -9 14 3 -5 11 2 15 27 15 35 0 130 29 140 42 5 7 110 23 199 31 68
6 255 -2 285 -11z m-98 -111 c6 6 17 4 32 -8 19 -16 21 -22 12 -46 -6 -16 -8
-33 -5 -39 4 -7 2 -8 -4 -4 -6 3 -16 -3 -23 -15 -9 -17 -13 -19 -19 -8 -5 7
-7 16 -5 20 3 3 -11 4 -30 2 -43 -4 -52 11 -35 62 8 24 18 35 31 35 13 0 18 5
14 13 -4 6 0 4 8 -5 9 -12 17 -14 24 -7z m-665 -23 c-7 -7 -12 -8 -12 -2 0 14
12 26 19 19 2 -3 -1 -11 -7 -17z m-297 -237 c-3 -6 -11 -11 -17 -11 -6 0 -6 6
2 15 14 17 26 13 15 -4z m515 5 c8 -4 24 -20 35 -37 11 -17 29 -35 40 -39 17
-7 15 -9 -12 -9 -18 -1 -33 -6 -33 -13 0 -6 -3 -9 -6 -5 -3 3 -17 2 -30 -3
-19 -8 -24 -6 -25 8 -1 11 -4 8 -9 -8 -7 -22 -8 -23 -9 -4 -1 12 -8 27 -16 34
-8 7 -15 18 -15 25 0 8 -5 15 -10 17 -6 2 -4 12 5 25 15 22 45 25 85 9z m170
-22 c0 -3 -7 -12 -15 -20 -16 -17 -18 -14 -9 10 6 15 24 23 24 10z m751 -20
c-11 -61 -12 -117 -1 -127 8 -9 10 -8 4 6 -9 24 5 107 18 107 6 0 16 -7 22
-15 6 -8 32 -16 59 -18 82 -8 109 -39 74 -85 -5 -7 -6 -16 -2 -20 4 -4 10 -2
12 4 2 6 10 19 17 30 13 17 15 17 30 1 19 -18 19 -17 -32 -61 -18 -15 -24 -16
-37 -6 -10 8 -15 9 -15 1 0 -6 5 -11 11 -11 5 0 7 -5 3 -11 -3 -6 -14 -9 -24
-6 -11 3 -21 -1 -24 -9 -4 -11 1 -13 19 -8 15 4 25 2 25 -5 0 -6 4 -11 9 -11
5 0 8 8 7 17 0 10 7 19 18 21 14 3 17 0 13 -12 -4 -9 -2 -16 3 -16 9 0 14 21
11 42 -2 13 40 30 56 24 14 -6 14 -9 -2 -26 -16 -17 -16 -20 -3 -20 13 0 15
-8 11 -42 -3 -24 -7 -44 -8 -46 -2 -2 -14 8 -28 22 -15 14 -30 26 -34 26 -11
-1 -47 -29 -42 -33 27 -22 69 -47 69 -42 0 3 -12 17 -27 30 -26 23 -26 24 -7
25 11 0 31 -11 43 -24 18 -19 21 -28 12 -44 -6 -11 -11 -46 -12 -78 -2 -73
-17 -96 -84 -134 -42 -24 -64 -30 -110 -30 -67 0 -180 36 -167 54 4 6 9 25 11
41 1 17 9 37 17 46 8 8 14 22 14 30 0 22 -48 -54 -58 -92 -8 -30 -12 -34 -41
-32 -68 3 -104 15 -138 46 -91 82 -86 74 -79 130 4 29 7 58 8 65 2 16 13 15
28 -3 7 -8 18 -15 25 -15 7 0 20 -10 28 -22 l16 -23 -6 23 c-4 18 -2 21 11 16
9 -3 16 -14 16 -23 0 -13 2 -14 9 -2 8 12 13 12 36 -3 15 -10 24 -13 20 -6 -4
7 -23 19 -42 27 -23 9 -33 19 -29 28 3 8 1 17 -4 20 -6 4 -10 -1 -10 -9 0 -9
-7 -16 -16 -16 -11 0 -14 6 -9 23 7 20 6 21 -7 4 -19 -25 -45 -13 -63 29 -8
19 -19 34 -25 34 -17 0 -2 40 28 75 14 17 32 28 40 27 13 -3 14 -1 4 11 -18
22 37 74 86 82 20 4 56 13 78 20 71 22 116 -16 69 -60 -11 -11 -15 -16 -9 -12
15 10 46 -18 69 -62 8 -17 18 -31 21 -31 2 0 -2 13 -10 29 -9 16 -13 31 -10
33 2 3 -2 11 -11 18 -8 7 -15 19 -15 27 0 13 3 13 15 3 8 -7 15 -8 15 -3 0 5
-10 17 -21 27 -16 13 -18 21 -10 29 8 8 15 6 27 -9 8 -10 13 -14 10 -7 -8 16
4 45 18 40 6 -2 9 -13 7 -23z m-471 -4 c0 -5 -2 -10 -4 -10 -3 0 -8 5 -11 10
-3 6 -1 10 4 10 6 0 11 -4 11 -10z m-800 -21 c0 -6 -4 -7 -10 -4 -5 3 -10 11
-10 16 0 6 5 7 10 4 6 -3 10 -11 10 -16z m-52 -33 c7 -18 24 -46 37 -60 43
-46 4 -66 -40 -21 -19 18 -25 35 -25 70 0 53 11 58 28 11z m446 -10 c-5 -13
-22 -23 -84 -49 -56 -24 -70 -27 -70 -17 0 6 9 10 20 10 11 0 20 4 20 9 0 5
21 17 48 27 26 9 51 21 57 26 13 11 15 10 9 -6z m-304 -84 c19 -18 19 -18 -10
-36 -17 -9 -28 -22 -25 -27 4 -5 0 -11 -7 -14 -56 -19 -70 -26 -66 -31 3 -2
17 0 31 5 17 7 28 7 32 1 4 -6 1 -10 -4 -10 -6 0 -11 -9 -11 -21 0 -12 -4 -17
-11 -13 -8 4 -8 1 -1 -12 5 -11 12 -31 16 -46 5 -22 3 -26 -9 -22 -8 4 -15 16
-15 28 0 32 -14 48 -36 40 -10 -4 -21 -11 -24 -15 -3 -4 -12 -3 -20 2 -12 8
-12 12 -2 16 7 2 17 14 23 26 10 21 10 21 -5 3 -12 -15 -16 -16 -16 -5 0 8 4
19 10 25 7 7 -2 9 -26 6 l-35 -4 4 43 c3 31 9 45 20 47 11 2 15 -1 11 -11 -3
-8 -1 -18 5 -22 7 -3 8 0 5 10 -5 11 -2 14 10 9 12 -5 13 -10 6 -25 -8 -14 -6
-20 10 -29 18 -10 19 -9 10 15 -5 14 -6 25 -2 25 4 1 -6 12 -23 25 -21 17 -25
25 -14 25 9 0 22 -7 29 -15 14 -17 56 -20 65 -4 6 8 36 25 53 28 2 1 12 -7 22
-17z m-203 -228 c-3 -3 -12 -4 -19 -1 -8 3 -5 6 6 6 11 1 17 -2 13 -5z"/>
<path d="M1320 1640 c-21 -7 -21 -8 -5 -9 11 0 27 4 35 9 18 11 5 11 -30 0z"/>
<path d="M1204 1613 c-16 -12 -33 -22 -39 -22 -16 2 -55 -13 -55 -20 0 -4 7
-8 15 -8 8 0 15 4 15 9 0 5 5 6 11 3 7 -5 3 -16 -11 -31 -22 -23 -22 -23 -2
-21 11 0 18 5 15 10 -3 5 4 18 15 30 31 33 146 28 138 -6 -1 -7 -1 -9 1 -4 3
4 8 5 12 3 10 -6 8 40 -2 50 -4 5 -5 0 -1 -11 6 -19 6 -19 -11 -3 -14 13 -21
14 -37 5 -15 -10 -21 -9 -28 3 -6 10 -10 11 -10 3 0 -7 -7 -13 -16 -13 -33 0
7 29 44 32 l37 3 -31 6 c-23 4 -39 -1 -60 -18z"/>
<path d="M1400 1630 c-9 -6 -11 -10 -3 -10 7 0 10 -7 6 -15 -8 -21 -29 -13
-25 10 3 13 -1 16 -13 11 -9 -3 -19 -6 -21 -6 -2 0 -4 -5 -4 -12 0 -6 3 -8 7
-5 9 10 33 -13 33 -31 0 -13 -2 -13 -18 1 -16 15 -18 15 -18 -2 0 -11 6 -17
13 -14 7 3 13 0 13 -6 0 -6 -9 -11 -19 -11 -11 0 -27 -7 -36 -16 -8 -9 -22
-13 -30 -10 -10 4 -15 -1 -15 -17 0 -13 -13 -31 -31 -43 -28 -20 -29 -23 -14
-38 14 -14 15 -19 3 -33 -11 -14 -11 -16 2 -11 8 2 16 14 18 26 3 18 10 22 37
22 18 0 41 -3 50 -6 14 -6 14 -8 -1 -25 -15 -16 -15 -22 -4 -32 7 -6 10 -7 7
-1 -4 6 0 20 8 30 18 24 19 44 1 44 -18 0 -27 35 -12 50 8 8 7 13 -4 20 -15
10 -8 14 21 11 9 -1 22 5 29 14 7 8 9 15 5 15 -4 0 3 16 14 36 12 19 19 39 16
44 -3 5 1 11 7 13 7 3 9 6 3 6 -5 0 -17 -4 -25 -9z m-25 -100 c-3 -5 -12 -10
-18 -10 -7 0 -6 4 3 10 19 12 23 12 15 0z m-66 -73 c-10 -22 -19 -27 -47 -27
l-35 0 39 34 c43 38 62 34 43 -7z"/>
<path d="M1528 1623 c6 -2 12 -12 12 -21 0 -15 2 -15 10 -2 8 12 10 12 10 1 0
-8 3 -11 7 -7 9 8 -25 36 -41 35 -6 0 -5 -3 2 -6z"/>
<path d="M1453 1592 c0 -21 1 -22 9 -8 5 9 13 14 19 11 5 -4 9 -2 9 3 0 5 -8
12 -19 15 -14 3 -18 -1 -18 -21z"/>
<path d="M1600 1595 c-7 -9 -11 -18 -8 -20 3 -3 11 1 18 10 7 9 11 18 8 20 -3
3 -11 -1 -18 -10z"/>
<path d="M1040 1575 c-7 -8 -15 -13 -19 -11 -3 2 -17 -11 -31 -28 -13 -17 -17
-25 -7 -17 11 9 17 10 17 2 0 -6 4 -11 9 -11 6 0 8 9 6 21 -3 15 0 19 11 15 9
-3 23 -6 32 -6 14 -1 13 -4 -5 -19 -13 -11 -23 -24 -23 -29 0 -6 -6 -13 -12
-16 -7 -3 -1 -4 15 -2 15 2 27 -1 27 -5 0 -5 5 -9 11 -9 8 0 8 4 0 14 -12 14
-5 49 9 41 4 -2 5 7 2 22 -3 18 -1 24 7 19 6 -4 9 -12 6 -17 -4 -5 -1 -9 4 -9
13 0 14 10 2 29 -7 10 -13 11 -31 1 -23 -13 -36 -8 -25 9 3 6 11 9 16 6 5 -4
9 -1 9 4 0 16 -16 13 -30 -4z"/>
<path d="M1511 1581 c-8 -5 -9 -11 -3 -15 5 -3 12 1 16 9 6 17 6 18 -13 6z"/>
<path d="M1671 1583 c-1 -6 -9 -10 -18 -8 -10 1 -12 0 -5 -2 15 -5 16 -39 1
-48 -16 -11 -25 5 -9 16 11 7 7 8 -14 3 -19 -5 -31 -2 -38 7 -7 10 -8 8 -3 -8
3 -12 1 -24 -5 -28 -5 -3 -10 -12 -10 -18 0 -8 3 -9 8 -1 12 18 44 25 58 13
11 -9 18 -8 29 1 10 8 15 9 15 2 0 -7 7 -9 17 -5 12 5 15 2 10 -10 -3 -9 1
-21 11 -29 15 -11 15 -11 5 3 -7 9 -10 18 -7 22 3 3 3 15 -1 28 -5 15 -9 18
-15 9 -4 -7 -13 -9 -19 -5 -8 4 -9 11 -3 18 5 7 6 21 1 32 -4 11 -8 15 -8 8z"/>
<path d="M882 1501 c-3 -63 -6 -69 -27 -51 -20 16 -24 11 -14 -20 5 -19 7 -21
8 -6 1 20 1 20 17 0 8 -10 12 -12 9 -4 -4 8 5 0 20 -18 32 -38 110 -84 90 -52
-11 18 7 11 24 -9 19 -22 36 -16 36 13 0 14 8 19 33 21 40 3 44 6 31 25 -8 13
-11 13 -20 -2 -5 -10 -15 -18 -22 -18 -7 0 -6 4 3 10 11 7 11 10 2 10 -8 0
-12 10 -10 26 2 16 -3 29 -11 32 -10 3 -12 -4 -9 -32 2 -20 0 -36 -5 -36 -4 0
-6 -4 -3 -9 4 -5 1 -11 -6 -13 -17 -6 -41 19 -32 33 4 8 3 9 -5 5 -6 -4 -10
-15 -9 -23 5 -28 -19 -25 -54 6 -28 26 -31 32 -18 41 20 13 33 13 24 -2 -4 -7
-3 -8 5 -4 6 4 9 11 6 16 -2 4 9 13 25 20 17 7 29 15 26 17 -2 2 -18 -3 -35
-12 -37 -19 -37 -17 -10 38 17 32 18 39 5 28 -9 -7 -16 -19 -16 -27 0 -12 -29
-34 -45 -34 -5 0 -1 26 11 71 2 9 -1 16 -8 16 -9 0 -14 -19 -16 -56z m38 -45
c0 -2 -7 -9 -15 -16 -12 -10 -15 -10 -15 4 0 9 7 16 15 16 8 0 15 -2 15 -4z"/>
<path d="M936 1543 c-6 -14 -5 -15 5 -6 7 7 10 15 7 18 -3 3 -9 -2 -12 -12z"/>
<path d="M1245 1540 c-3 -5 1 -10 10 -10 9 0 13 5 10 10 -3 6 -8 10 -10 10 -2
0 -7 -4 -10 -10z"/>
<path d="M1156 1506 c-16 -7 -25 -15 -20 -18 13 -8 54 9 54 22 0 5 -1 10 -2 9
-2 0 -16 -6 -32 -13z"/>
<path d="M1104 1495 c4 -24 16 -30 16 -7 0 12 -4 22 -9 22 -5 0 -8 -7 -7 -15z"/>
<path d="M730 1491 c0 -6 4 -13 10 -16 6 -3 7 1 4 9 -7 18 -14 21 -14 7z"/>
<path d="M1673 1482 c-7 -5 -3 -11 13 -19 23 -11 24 -10 13 5 -8 9 -14 18 -14
19 0 1 -6 -1 -12 -5z"/>
<path d="M1150 1471 c0 -6 5 -13 10 -16 6 -3 10 -13 10 -21 0 -8 -4 -12 -10
-9 -5 3 -10 1 -10 -4 0 -6 -8 -11 -17 -11 -14 0 -13 -3 5 -16 12 -8 20 -20 17
-25 -4 -5 -2 -9 4 -9 12 0 24 36 16 49 -3 5 -1 12 4 16 7 4 6 15 -1 30 -11 25
-28 34 -28 16z"/>
<path d="M1613 1457 c-3 -6 -1 -7 5 -3 7 4 12 5 12 2 0 -3 -34 -81 -48 -108
-10 -20 19 -4 58 32 24 22 49 40 57 40 18 0 16 17 -3 24 -8 3 -13 2 -10 -3 6
-9 -53 -55 -61 -48 -7 8 7 48 16 43 4 -3 7 3 7 13 0 19 -23 24 -33 8z"/>
<path d="M1806 1415 c-3 -9 -12 -12 -23 -8 -14 6 -13 0 7 -24 23 -29 49 -46
35 -23 -3 6 1 13 9 16 9 3 13 11 10 16 -4 6 -10 5 -15 -3 -4 -7 -11 -10 -15
-6 -4 4 -2 13 4 19 7 7 12 16 12 20 0 14 -18 9 -24 -7z"/>
<path d="M592 1370 c0 -14 2 -19 5 -12 2 6 2 18 0 25 -3 6 -5 1 -5 -13z"/>
<path d="M878 1383 c6 -2 9 -10 6 -15 -4 -7 -2 -8 5 -4 13 9 5 26 -12 25 -9 0
-8 -2 1 -6z"/>
<path d="M1540 1384 c0 -3 7 -16 16 -29 15 -22 15 -26 0 -40 -18 -19 -20 -43
-5 -65 9 -13 10 -13 8 0 -3 29 1 39 22 58 18 18 18 20 3 26 -10 4 -14 13 -11
25 3 13 -1 21 -14 24 -11 3 -19 3 -19 1z"/>
<path d="M1704 1383 c7 -14 -33 -45 -47 -36 -6 3 -7 1 -3 -6 6 -9 0 -10 -21
-5 -15 4 -25 3 -21 -1 4 -5 3 -14 -3 -22 -13 -15 2 -18 17 -3 5 5 26 10 46 12
20 1 35 5 32 9 -2 4 5 10 16 14 11 3 20 11 20 17 0 6 -3 8 -7 5 -3 -4 -12 1
-20 11 -8 9 -12 12 -9 5z"/>
<path d="M1370 1359 c0 -5 5 -7 10 -4 6 3 10 8 10 11 0 2 -4 4 -10 4 -5 0 -10
-5 -10 -11z"/>
<path d="M1845 1349 c-8 -23 8 -39 35 -38 9 0 6 4 -7 9 -15 6 -20 15 -16 29 7
28 -4 27 -12 0z"/>
<path d="M1140 1346 c0 -2 7 -9 15 -16 13 -11 14 -10 9 4 -5 14 -24 23 -24 12z"/>
<path d="M1185 1339 c-11 -16 -1 -19 13 -3 7 8 8 14 3 14 -5 0 -13 -5 -16 -11z"/>
<path d="M650 1326 c0 -23 16 -27 17 -5 1 10 -2 19 -8 19 -5 0 -9 -6 -9 -14z"/>
<path d="M1357 1333 c-4 -3 -7 -11 -7 -17 0 -6 5 -5 12 2 6 6 9 14 7 17 -3 3
-9 2 -12 -2z"/>
<path d="M835 1310 c-4 -6 -15 -8 -26 -5 -10 4 -19 2 -19 -3 0 -6 11 -13 25
-16 14 -4 25 -13 25 -21 0 -8 4 -15 10 -15 6 0 6 9 1 23 -4 12 -6 28 -4 35 6
15 -3 16 -12 2z"/>
<path d="M1416 1304 c-4 -9 -4 -19 -1 -22 2 -3 7 3 11 12 4 9 4 19 1 22 -2 3
-7 -3 -11 -12z"/>
<path d="M1752 1300 c0 -14 2 -19 5 -12 2 6 2 18 0 25 -3 6 -5 1 -5 -13z"/>
<path d="M425 1293 c4 -13 3 -28 -2 -35 -12 -20 -12 -36 0 -41 16 -6 21 59 7
81 -9 14 -10 13 -5 -5z"/>
<path d="M883 1302 c-27 -4 -28 -8 -8 -28 11 -12 12 -20 4 -37 -10 -21 -10
-22 5 -2 8 11 20 25 26 32 22 26 10 41 -27 35z m27 -16 c0 -3 -4 -8 -10 -11
-5 -3 -10 -1 -10 4 0 6 5 11 10 11 6 0 10 -2 10 -4z"/>
<path d="M1714 1296 c-3 -8 -12 -12 -19 -10 -7 3 -16 1 -20 -5 -3 -6 2 -11 12
-11 22 0 37 11 41 28 3 17 -7 15 -14 -2z"/>
<path d="M390 1269 c0 -5 5 -7 10 -4 6 3 10 8 10 11 0 2 -4 4 -10 4 -5 0 -10
-5 -10 -11z"/>
<path d="M786 1262 c-4 -7 -2 -12 5 -12 8 0 8 -4 -1 -15 -7 -9 -11 -17 -9 -19
2 -2 13 8 23 22 11 14 15 22 9 19 -6 -4 -13 -2 -15 5 -3 9 -6 9 -12 0z"/>
<path d="M369 1250 c-3 -8 -1 -23 5 -33 9 -14 7 -20 -6 -28 -10 -6 -18 -17
-18 -25 0 -9 -5 -12 -12 -8 -7 4 -8 3 -4 -4 4 -7 11 -12 16 -12 13 0 49 67 40
76 -4 5 -10 18 -12 29 -3 15 -5 16 -9 5z"/>
<path d="M1550 1210 c-9 -6 -10 -10 -3 -10 6 0 15 5 18 10 8 12 4 12 -15 0z"/>
<path d="M300 1190 c-9 -6 -10 -10 -3 -10 6 0 15 5 18 10 8 12 4 12 -15 0z"/>
<path d="M867 1193 c-11 -11 -8 -21 9 -27 13 -5 14 -4 6 7 -7 8 -9 17 -5 20 3
4 4 7 1 7 -2 0 -8 -3 -11 -7z"/>
<path d="M415 1182 c16 -11 12 -45 -5 -50 -12 -4 -13 -3 -2 10 10 12 10 18 -2
27 -12 10 -14 7 -12 -19 1 -20 -1 -27 -8 -20 -14 14 -29 13 -20 -2 5 -8 2 -9
-10 -5 -10 4 -26 7 -36 7 -10 0 -25 7 -33 15 -8 8 -17 11 -21 8 -8 -9 26 -32
48 -33 11 0 16 -3 12 -7 -4 -5 -13 -8 -19 -8 -7 0 -13 -9 -14 -20 -3 -20 -3
-20 6 0 5 11 10 16 10 11 1 -5 8 -3 16 4 22 18 50 4 53 -27 1 -15 8 -30 15
-35 8 -5 6 -8 -8 -8 -11 0 -15 -4 -10 -8 6 -4 10 -13 10 -19 0 -29 20 -15 22
15 1 17 -3 32 -9 32 -6 0 -5 6 2 15 9 10 9 15 1 15 -17 0 -13 17 10 39 12 11
27 30 33 43 12 22 11 24 -13 26 -14 1 -21 -2 -16 -6z"/>
<path d="M707 1170 c10 -11 9 -16 -5 -26 -15 -12 -15 -12 6 -7 27 6 28 16 5
34 -15 11 -16 11 -6 -1z"/>
<path d="M1205 1152 c-46 -19 -135 -71 -135 -79 0 -3 30 12 68 33 37 21 90 43
117 50 38 9 43 12 20 13 -16 0 -48 -8 -70 -17z"/>
<path d="M496 1149 c2 -4 13 -7 24 -6 23 2 17 10 -10 12 -10 1 -17 -2 -14 -6z"/>
<path d="M550 1150 c0 -5 5 -10 10 -10 6 0 10 5 10 10 0 6 -4 10 -10 10 -5 0
-10 -4 -10 -10z"/>
<path d="M1421 1144 c0 -11 3 -14 6 -6 3 7 2 16 -1 19 -3 4 -6 -2 -5 -13z"/>
<path d="M456 1094 c2 -32 8 -60 14 -62 14 -5 -8 -32 -26 -32 -7 0 -15 -4 -18
-9 -7 -11 45 -1 62 12 7 6 11 16 8 24 -3 8 -2 12 3 9 18 -11 71 78 55 93 -4 3
-9 0 -11 -7 -3 -7 -16 -26 -30 -43 -23 -27 -28 -29 -41 -16 -15 15 -9 37 9 37
6 0 7 -5 3 -12 -4 -7 -3 -8 4 -4 6 4 9 13 5 22 -3 8 -8 12 -11 9 -3 -3 -11 4
-18 16 -9 18 -11 12 -8 -37z"/>
<path d="M251 1121 c-15 -10 -7 -31 12 -30 8 0 8 2 -1 6 -10 4 -10 8 -1 19 13
16 10 18 -10 5z"/>
<path d="M1365 1120 c3 -6 13 -10 21 -10 8 0 14 -6 14 -14 0 -10 -10 -14 -33
-12 -18 2 -38 -3 -45 -11 -11 -11 -6 -12 29 -8 23 3 45 8 50 10 4 3 10 1 14
-5 3 -5 13 -10 21 -10 8 0 13 4 10 9 -3 5 1 14 9 21 8 7 15 17 15 23 0 6 -7 1
-16 -11 -14 -20 -52 -33 -40 -13 6 10 -10 25 -37 34 -11 4 -16 3 -12 -3z"/>
<path d="M510 1109 c0 -5 5 -7 10 -4 6 3 10 8 10 11 0 2 -4 4 -10 4 -5 0 -10
-5 -10 -11z"/>
<path d="M1233 1096 c-13 -6 -23 -14 -23 -18 0 -5 -7 -8 -15 -8 -9 0 -44 -18
-78 -40 -72 -45 -102 -89 -111 -165 -6 -51 -2 -45 24 40 6 22 19 50 29 61 22
27 73 54 103 54 19 0 20 2 8 10 -9 6 -10 10 -3 10 6 0 15 -4 18 -10 8 -12 84
-34 109 -31 14 2 17 -2 12 -14 -5 -13 -2 -15 14 -10 15 5 22 1 28 -16 6 -15
11 -18 16 -11 4 7 11 10 16 7 4 -3 13 1 19 9 9 11 6 12 -13 9 -35 -7 -41 14
-6 22 16 4 30 11 30 15 0 5 7 7 15 4 9 -4 15 0 15 9 0 14 -5 14 -37 3 -34 -12
-93 -9 -170 9 -33 8 -29 35 5 36 15 0 21 3 14 6 -10 4 -10 8 -1 19 13 16 13
16 -18 0z"/>
<path d="M231 1043 c4 -21 6 -46 3 -57 -4 -12 -2 -16 5 -12 6 4 11 14 11 23 0
12 7 14 38 8 20 -4 34 -4 30 0 -4 4 -22 10 -40 14 -26 5 -34 12 -36 34 -2 15
-7 27 -12 27 -4 0 -4 -17 1 -37z"/>
<path d="M333 1056 c-3 -6 -3 -8 2 -4 4 4 14 3 22 -3 10 -9 13 -8 13 3 0 17
-28 20 -37 4z"/>
<path d="M1020 1050 c-14 -10 -23 -21 -20 -23 3 -3 19 6 35 19 35 28 22 32
-15 4z"/>
<path d="M276 1045 c4 -8 11 -15 16 -15 6 0 5 6 -2 15 -7 8 -14 15 -16 15 -2
0 -1 -7 2 -15z"/>
<path d="M327 1023 c3 -7 6 -13 8 -13 2 0 5 6 8 13 3 8 -1 14 -8 14 -7 0 -11
-6 -8 -14z"/>
<path d="M428 1033 c7 -3 16 -2 19 1 4 3 -2 6 -13 5 -11 0 -14 -3 -6 -6z"/>
<path d="M510 1001 c0 -6 4 -13 10 -16 6 -3 7 1 4 9 -7 18 -14 21 -14 7z"/>
<path d="M961 983 c-10 -26 -10 -27 4 -9 8 11 15 23 15 28 0 15 -7 8 -19 -19z"/>
<path d="M890 974 c-14 -15 21 -14 37 2 11 10 9 12 -7 11 -12 -1 -25 -6 -30
-13z"/>
<path d="M1206 973 c-6 -14 -5 -15 5 -6 7 7 10 15 7 18 -3 3 -9 -2 -12 -12z"/>
<path d="M195 966 c-28 -16 -45 -33 -39 -39 3 -3 14 3 25 14 20 20 45 26 34 9
-7 -12 5 -13 22 -2 22 14 -19 31 -42 18z"/>
<path d="M1450 970 c-12 -8 -11 -10 8 -10 12 0 22 5 22 10 0 13 -11 13 -30 0z"/>
<path d="M390 957 c0 -4 -6 -5 -12 -1 -9 5 -8 2 1 -10 10 -12 16 -14 21 -5 4
6 14 15 21 20 10 6 7 8 -9 6 -12 0 -22 -5 -22 -10z"/>
<path d="M491 963 c-1 -17 16 -25 25 -12 4 7 3 9 -4 5 -5 -3 -13 0 -15 6 -4 9
-6 10 -6 1z"/>
<path d="M1314 945 c-19 -15 -19 -15 1 -8 20 6 20 6 1 -16 -11 -12 -22 -18
-25 -14 -3 5 -17 17 -31 28 -23 19 -23 18 3 -13 15 -19 27 -39 27 -46 0 -16
31 -43 48 -40 6 1 17 2 23 3 5 0 7 6 3 12 -5 8 -8 8 -14 0 -5 -8 -14 -6 -30 7
-27 22 -22 48 11 61 15 5 19 10 11 15 -7 4 -10 12 -7 17 9 13 2 11 -21 -6z"/>
<path d="M244 931 c11 -17 -22 -25 -42 -10 -9 7 -14 9 -10 5 4 -5 3 -15 -3
-23 -14 -16 -1 -17 35 -3 14 5 26 8 26 7 0 -1 -4 -17 -10 -35 -8 -29 -7 -32 6
-21 8 6 12 14 9 17 -3 3 1 12 8 20 9 12 9 16 -1 19 -6 3 -10 9 -7 13 3 5 0 12
-6 16 -8 4 -9 3 -5 -5z"/>
<path d="M923 928 c3 -9 -1 -37 -9 -64 -8 -26 -13 -70 -13 -98 1 -29 4 -39 6
-23 2 15 10 27 16 27 8 0 8 3 -1 9 -11 6 -10 20 4 75 14 55 14 69 4 79 -10 10
-12 9 -7 -5z"/>
<path d="M1190 937 c0 -2 14 -16 32 -33 l31 -29 -23 33 c-20 27 -40 42 -40 29z"/>
<path d="M1380 931 c0 -6 5 -13 10 -16 6 -4 7 -11 4 -17 -4 -7 -2 -8 4 -4 9 5
9 13 2 27 -11 20 -20 25 -20 10z"/>
<path d="M850 922 c0 -5 -9 -18 -21 -31 -34 -37 -16 -33 20 5 24 24 29 34 17
34 -9 0 -16 -4 -16 -8z"/>
<path d="M1050 901 c-12 -24 -13 -31 -2 -31 5 0 14 11 20 25 14 29 -2 34 -18
6z"/>
<path d="M140 890 c0 -5 5 -10 11 -10 5 0 7 5 4 10 -3 6 -8 10 -11 10 -2 0 -4
-4 -4 -10z"/>
<path d="M462 891 c-11 -7 -11 -9 0 -14 9 -3 15 1 15 9 0 8 -1 14 -1 14 -1 0
-7 -4 -14 -9z"/>
<path d="M1345 879 c7 -11 35 -12 35 -1 0 4 -9 8 -20 9 -11 1 -18 -2 -15 -8z"/>
<path d="M1431 868 c-7 -11 -19 -17 -27 -14 -11 4 -11 1 2 -19 20 -30 24 -31
17 -5 -5 21 2 24 44 20 12 -1 30 4 40 10 15 10 14 10 -9 5 -16 -3 -28 -1 -28
4 0 19 -27 18 -39 -1z"/>
<path d="M179 863 c-12 -14 -12 -16 0 -8 11 6 13 1 9 -24 -4 -29 -3 -30 13
-15 18 16 34 58 18 48 -5 -3 -9 0 -9 5 0 16 -16 13 -31 -6z"/>
<path d="M778 841 c12 -12 22 -26 22 -30 0 -5 7 -12 16 -15 15 -6 15 -4 2 16
-8 12 -25 28 -39 37 l-24 15 23 -23z"/>
<path d="M263 835 c0 -8 4 -12 9 -9 5 3 6 10 3 15 -9 13 -12 11 -12 -6z"/>
<path d="M1060 825 c0 -8 5 -15 10 -15 6 0 10 -7 10 -16 0 -8 4 -13 9 -10 5 4
4 17 -2 31 -13 28 -27 33 -27 10z"/>
<path d="M126 819 c3 -5 12 -9 21 -9 19 0 9 13 -12 16 -8 1 -13 -2 -9 -7z"/>
<path d="M1180 826 c0 -2 7 -7 16 -10 8 -3 12 -2 9 4 -6 10 -25 14 -25 6z"/>
<path d="M611 811 c-1 -8 -8 -11 -21 -8 -11 3 -18 1 -14 -4 3 -5 14 -9 25 -9
10 0 19 -5 19 -12 0 -6 2 -9 5 -6 3 3 1 16 -4 29 -5 13 -10 18 -10 10z"/>
<path d="M961 798 c-1 -19 4 -28 15 -28 11 0 14 -8 12 -27 -4 -38 -31 -36 -38
2 -5 29 -6 29 -12 7 -12 -42 2 -54 53 -43 16 3 15 43 0 63 -10 13 -21 30 -24
38 -3 9 -6 4 -6 -12z"/>
<path d="M1480 810 c-13 -8 -12 -10 3 -10 9 0 17 5 17 10 0 12 -1 12 -20 0z"/>
<path d="M1220 806 c0 -2 7 -7 16 -10 8 -3 12 -2 9 4 -6 10 -25 14 -25 6z"/>
<path d="M737 759 c-3 -23 -11 -45 -18 -49 -7 -5 -9 -18 -5 -35 4 -15 2 -33
-4 -40 -8 -10 -8 -19 0 -35 6 -12 9 -28 6 -36 -3 -8 1 -14 10 -14 8 0 12 5 9
10 -3 6 -2 10 4 10 5 0 12 -6 14 -12 3 -8 6 -6 6 4 1 10 -8 22 -20 29 -15 8
-18 14 -10 22 8 8 15 6 24 -8 13 -16 13 -15 9 16 -3 19 -13 40 -23 47 -11 7
-16 19 -12 29 6 14 8 14 20 -3 11 -15 15 -16 26 -4 8 9 8 11 0 6 -6 -3 -14 -2
-18 4 -3 5 0 10 7 10 20 0 40 38 33 62 -5 13 -13 18 -26 15 -10 -3 -17 -1 -13
4 3 5 1 9 -4 9 -5 0 -12 -19 -15 -41z m43 -3 c0 -16 -30 -50 -37 -43 -2 3 -1
16 3 31 6 27 34 37 34 12z m-47 -126 c-10 -11 -19 -20 -21 -20 -1 0 2 9 8 20
6 11 15 20 20 20 6 0 2 -9 -7 -20z"/>
<path d="M1110 791 c0 -18 18 -21 30 -6 10 13 9 15 -9 15 -11 0 -21 -4 -21 -9z"/>
<path d="M255 780 c-3 -6 1 -7 9 -4 18 7 21 14 7 14 -6 0 -13 -4 -16 -10z"/>
<path d="M1203 773 c-3 -10 -8 -21 -10 -25 -2 -5 0 -8 6 -8 16 0 33 38 21 45
-6 3 -13 -2 -17 -12z"/>
<path d="M1370 780 c-9 -6 -10 -10 -3 -10 6 0 15 5 18 10 8 12 4 12 -15 0z"/>
<path d="M1428 783 c7 -3 16 -2 19 1 4 3 -2 6 -13 5 -11 0 -14 -3 -6 -6z"/>
<path d="M1480 770 c8 -5 20 -10 25 -10 6 0 3 5 -5 10 -8 5 -19 10 -25 10 -5
0 -3 -5 5 -10z"/>
<path d="M483 755 c0 -7 8 -10 20 -7 21 5 20 -6 -9 -77 -8 -18 -14 -44 -14
-58 0 -16 -4 -22 -12 -17 -7 4 -8 3 -4 -5 4 -6 1 -18 -8 -26 -16 -17 -36 -20
-36 -6 0 5 -8 7 -19 4 -10 -3 -22 0 -25 6 -4 6 -12 11 -18 11 -6 0 0 -8 13
-19 28 -21 77 -32 85 -19 3 5 12 1 20 -9 14 -17 15 -17 10 2 -4 12 3 46 14 78
11 31 20 68 20 83 0 25 2 26 39 21 30 -4 41 -1 46 10 5 14 3 14 -12 2 -15 -12
-16 -12 -11 3 6 14 2 15 -22 8 -20 -6 -30 -4 -33 5 -7 17 -44 26 -44 10z"/>
<path d="M630 760 c-8 -5 -12 -12 -9 -15 8 -8 39 5 39 16 0 11 -11 11 -30 -1z"/>
<path d="M1070 761 c0 -6 4 -13 10 -16 6 -3 7 1 4 9 -7 18 -14 21 -14 7z"/>
<path d="M1294 748 l-19 -23 22 18 c12 11 26 16 32 13 5 -4 12 -2 16 4 13 20
-32 9 -51 -12z"/>
<path d="M1241 739 c-18 -11 -30 -23 -27 -27 4 -3 12 0 17 8 11 15 9 -11 -6
-85 -4 -25 -1 -33 22 -50 l27 -19 -20 29 c-23 34 -22 74 2 54 8 -6 14 -17 14
-25 0 -7 4 -15 9 -18 13 -8 0 38 -13 46 -17 11 -15 81 3 95 25 19 9 15 -28 -8z"/>
<path d="M1400 750 c0 -5 5 -10 11 -10 5 0 7 5 4 10 -3 6 -8 10 -11 10 -2 0
-4 -4 -4 -10z"/>
<path d="M1447 747 c-3 -7 5 -19 16 -27 20 -12 21 -12 9 3 -8 9 -11 21 -7 27
3 5 2 10 -3 10 -6 0 -12 -6 -15 -13z"/>
<path d="M696 733 c-6 -14 -5 -15 5 -6 7 7 10 15 7 18 -3 3 -9 -2 -12 -12z"/>
<path d="M1530 743 c5 -2 10 -11 10 -19 0 -9 -4 -12 -10 -9 -5 3 -10 1 -10 -4
0 -6 7 -11 16 -11 19 0 16 42 -4 46 -7 1 -8 0 -2 -3z"/>
<path d="M332 730 c-48 -11 -47 -16 1 -15 23 0 43 4 45 10 5 13 -7 14 -46 5z"/>
<path d="M1108 733 c6 -2 18 -2 25 0 6 3 1 5 -13 5 -14 0 -19 -2 -12 -5z"/>
<path d="M1150 730 c0 -5 4 -10 9 -10 6 0 13 5 16 10 3 6 -1 10 -9 10 -9 0
-16 -4 -16 -10z"/>
<path d="M1560 730 c0 -5 5 -10 11 -10 5 0 7 5 4 10 -3 6 -8 10 -11 10 -2 0
-4 -4 -4 -10z"/>
<path d="M1068 713 c6 -2 9 -10 6 -15 -4 -7 -2 -8 5 -4 13 9 5 26 -12 25 -9 0
-8 -2 1 -6z"/>
<path d="M1380 710 c0 -5 5 -10 11 -10 5 0 7 5 4 10 -3 6 -8 10 -11 10 -2 0
-4 -4 -4 -10z"/>
<path d="M1596 712 c-3 -5 1 -15 9 -22 16 -14 20 -3 6 19 -5 8 -11 9 -15 3z"/>
<path d="M126 702 c-3 -5 1 -9 9 -9 8 0 15 4 15 9 0 4 -4 8 -9 8 -6 0 -12 -4
-15 -8z"/>
<path d="M400 678 c0 -15 3 -27 8 -27 4 1 14 1 22 0 11 -1 11 -4 2 -13 -16
-16 -15 -28 2 -28 13 0 31 40 18 40 -4 0 -16 7 -26 15 -15 11 -16 18 -8 28 9
11 8 14 -3 14 -10 0 -15 -10 -15 -29z"/>
<path d="M632 690 c0 -14 2 -19 5 -12 2 6 2 18 0 25 -3 6 -5 1 -5 -13z"/>
<path d="M901 688 c0 -14 -4 -35 -7 -45 -5 -17 -5 -17 9 0 17 21 28 22 21 2
-7 -18 7 -20 23 -4 6 6 16 8 22 5 20 -13 11 -33 -20 -46 -26 -11 -35 -11 -59
4 -18 10 -31 13 -35 6 -3 -5 1 -10 9 -10 9 0 16 -6 16 -13 0 -11 11 -12 55 -4
51 10 57 9 82 -14 20 -18 24 -19 13 -4 -8 11 -21 24 -27 28 -7 4 -13 16 -13
26 0 22 -16 36 -52 45 -17 4 -28 14 -31 29 -4 19 -4 19 -6 -5z"/>
<path d="M1460 685 c0 -8 7 -15 16 -15 14 0 14 3 4 15 -7 8 -14 15 -16 15 -2
0 -4 -7 -4 -15z"/>
<path d="M675 682 c-13 -9 -17 -32 -6 -32 9 0 24 30 18 36 -1 2 -7 0 -12 -4z"/>
<path d="M1524 676 c-10 -8 -16 -18 -11 -22 4 -4 7 -2 7 4 0 7 7 12 15 12 8 0
15 5 15 10 0 13 -3 13 -26 -4z"/>
<path d="M1191 671 c-10 -6 -9 -10 5 -15 20 -8 25 -4 16 11 -4 7 -13 9 -21 4z"/>
<path d="M1401 677 c2 -1 13 -9 24 -17 19 -14 19 -14 6 3 -7 9 -18 17 -24 17
-6 0 -8 -1 -6 -3z"/>
<path d="M1132 640 c-32 -30 -27 -35 8 -10 17 12 30 23 30 26 0 10 -18 2 -38
-16z"/>
<path d="M1544 646 c-9 -23 7 -42 18 -22 5 9 14 13 20 10 6 -4 9 -1 6 7 -7 20
-37 23 -44 5z"/>
<path d="M1650 645 c-11 -13 -10 -14 4 -9 9 3 16 10 16 15 0 13 -6 11 -20 -6z"/>
<path d="M1690 635 c-7 -9 -11 -17 -9 -20 3 -2 10 5 17 15 14 24 10 26 -8 5z"/>
<path d="M2918 645 c-3 -3 -16 -8 -28 -10 -30 -6 -38 -15 -14 -15 18 0 69 29
53 30 -3 0 -8 -2 -11 -5z"/>
<path d="M1375 630 c-3 -5 -1 -10 4 -10 6 0 11 5 11 10 0 6 -2 10 -4 10 -3 0
-8 -4 -11 -10z"/>
<path d="M612 618 c-15 -15 -16 -38 -2 -38 6 0 10 6 10 14 0 8 5 16 12 18 8 3
8 7 2 11 -6 3 -16 1 -22 -5z"/>
<path d="M1180 609 c0 -5 5 -7 10 -4 6 3 10 8 10 11 0 2 -4 4 -10 4 -5 0 -10
-5 -10 -11z"/>
<path d="M1640 611 c0 -5 7 -11 15 -15 8 -3 12 -12 9 -20 -3 -8 1 -17 8 -22 7
-4 9 -3 5 1 -4 5 1 14 12 19 17 10 16 12 -15 28 -19 10 -34 14 -34 9z"/>
<path d="M2045 610 c-3 -5 3 -10 14 -10 12 0 21 5 21 10 0 6 -6 10 -14 10 -8
0 -18 -4 -21 -10z"/>
<path d="M2530 610 c-9 -6 -10 -10 -3 -10 6 0 15 5 18 10 8 12 4 12 -15 0z"/>
<path d="M2745 611 c-6 -5 -19 -11 -30 -14 -20 -5 -19 -5 1 -6 11 0 29 6 40
14 10 8 14 15 9 15 -6 0 -15 -4 -20 -9z"/>
<path d="M2830 605 c0 -8 2 -15 4 -15 2 0 6 7 10 15 3 8 1 15 -4 15 -6 0 -10
-7 -10 -15z"/>
<path d="M1089 599 c-1 -8 0 -23 1 -34 2 -20 2 -20 -19 -1 -12 11 -21 16 -21
11 0 -16 36 -34 65 -34 24 0 26 2 11 8 -11 4 -21 18 -23 31 -4 28 -13 39 -14
19z"/>
<path d="M1584 600 c-24 -10 -41 -30 -25 -30 6 0 11 5 11 11 0 5 4 8 8 5 9 -5
39 11 32 17 -3 3 -15 1 -26 -3z"/>
<path d="M2785 600 c-3 -5 -2 -10 4 -10 5 0 13 5 16 10 3 6 2 10 -4 10 -5 0
-13 -4 -16 -10z"/>
<path d="M1420 590 c0 -5 5 -10 10 -10 6 0 10 5 10 10 0 6 -4 10 -10 10 -5 0
-10 -4 -10 -10z"/>
<path d="M1961 584 c0 -11 3 -14 6 -6 3 7 2 16 -1 19 -3 4 -6 -2 -5 -13z"/>
<path d="M2868 593 c7 -3 16 -2 19 1 4 3 -2 6 -13 5 -11 0 -14 -3 -6 -6z"/>
<path d="M106 573 c-9 -22 -7 -26 8 -20 8 3 16 1 19 -6 2 -6 6 -7 9 -2 2 6 -3
18 -13 27 -15 14 -18 15 -23 1z"/>
<path d="M220 580 c-8 -5 -6 -9 7 -12 19 -5 28 -38 11 -38 -5 0 -6 -5 -3 -10
4 -6 10 -8 14 -5 5 2 17 -2 27 -10 15 -11 16 -15 4 -15 -10 -1 -9 -4 5 -10 20
-9 20 -9 0 -10 -19 -1 -19 -1 -2 -11 9 -6 15 -14 13 -18 -3 -4 8 -7 24 -6 16
1 27 -2 24 -6 -2 -4 0 -10 6 -14 5 -3 10 1 10 9 0 18 -34 39 -45 28 -4 -4 -5
2 -3 14 3 24 -18 54 -38 54 -10 0 -12 8 -8 29 5 22 2 29 -14 33 -11 3 -25 2
-32 -2z"/>
<path d="M540 583 c1 -5 8 -19 16 -33 8 -14 13 -17 10 -7 -3 11 -2 15 4 12 6
-3 10 -11 10 -16 0 -6 6 -17 14 -25 13 -12 15 -12 13 5 0 11 -5 17 -9 15 -4
-3 -8 0 -8 5 0 11 -36 51 -45 51 -3 0 -5 -3 -5 -7z"/>
<path d="M641 575 c-1 -39 28 -55 50 -28 12 14 11 15 -7 9 -16 -5 -24 -1 -32
16 -10 21 -11 21 -11 3z"/>
<path d="M1120 576 c0 -9 5 -16 10 -16 6 0 10 4 10 9 0 6 -4 13 -10 16 -5 3
-10 -1 -10 -9z"/>
<path d="M2284 578 c-4 -5 -3 -12 0 -15 3 -4 6 0 6 7 0 10 4 9 18 -3 12 -11
22 -13 32 -7 12 8 10 10 -8 10 -13 0 -21 4 -18 8 3 5 -2 9 -10 9 -8 0 -17 -4
-20 -9z"/>
<path d="M170 565 c-7 -9 -8 -15 -2 -15 5 0 12 7 16 15 3 8 4 15 2 15 -2 0 -9
-7 -16 -15z"/>
<path d="M2397 559 c-3 -13 -1 -17 6 -12 7 4 21 6 33 5 11 -2 26 3 32 11 9 11
4 13 -28 14 -30 1 -39 -3 -43 -18z"/>
<path d="M2518 563 c12 -2 22 -8 22 -12 0 -5 12 -6 28 -3 l27 6 -25 7 c-14 4
-36 7 -50 7 -23 -1 -23 -1 -2 -5z"/>
<path d="M194 535 c4 -29 32 -65 53 -65 20 0 16 18 -7 25 -11 3 -20 14 -20 24
0 10 -6 24 -14 30 -12 10 -14 8 -12 -14z"/>
<path d="M1382 549 c-14 -6 -19 -14 -15 -28 6 -24 23 -28 23 -7 0 8 9 18 20
21 11 3 20 10 20 14 0 10 -21 10 -48 0z"/>
<path d="M2250 541 c0 -5 9 -7 20 -4 11 3 20 7 20 9 0 2 -9 4 -20 4 -11 0 -20
-4 -20 -9z"/>
<path d="M1600 530 c0 -5 -6 -7 -14 -4 -9 4 -13 -3 -13 -21 0 -14 0 -25 1 -23
0 2 12 15 25 31 14 15 19 27 13 27 -7 0 -12 -4 -12 -10z"/>
<path d="M1122 522 c-13 -2 -19 -8 -16 -14 5 -7 2 -8 -7 -2 -20 12 -39 14 -39
3 0 -5 6 -9 13 -9 8 0 7 -4 -3 -11 -13 -9 -13 -10 1 -6 10 3 35 11 58 18 59
18 55 31 -7 21z"/>
<path d="M1680 522 c0 -5 7 -9 15 -9 8 0 12 4 9 9 -3 4 -9 8 -15 8 -5 0 -9 -4
-9 -8z"/>
<path d="M1020 510 c-13 -8 -12 -10 3 -10 9 0 17 5 17 10 0 12 -1 12 -20 0z"/>
<path d="M140 499 c0 -7 -9 -9 -22 -6 -22 6 -22 5 -4 -8 10 -7 16 -18 13 -22
-3 -5 4 -15 16 -22 18 -11 20 -11 10 0 -21 21 -16 41 8 34 18 -6 20 -5 10 14
-12 22 -31 28 -31 10z"/>
<path d="M1435 477 c-8 -19 22 -50 39 -40 5 4 2 11 -6 17 -8 6 -17 18 -20 26
-5 12 -7 12 -13 -3z"/>
<path d="M2090 478 c0 -10 2 -18 4 -18 2 0 11 -3 20 -6 11 -4 16 -1 16 11 0 9
-5 13 -11 9 -6 -3 -15 0 -20 7 -7 11 -9 10 -9 -3z"/>
<path d="M338 473 c6 -2 18 -2 25 0 6 3 1 5 -13 5 -14 0 -19 -2 -12 -5z"/>
<path d="M1647 464 c-8 -13 29 -64 46 -64 7 1 2 9 -9 19 -12 9 -24 26 -26 37
-2 12 -6 15 -11 8z"/>
<path d="M237 449 c7 -7 15 -10 18 -7 3 3 -2 9 -12 12 -14 6 -15 5 -6 -5z"/>
<path d="M408 433 c12 -2 32 -2 45 0 12 2 2 4 -23 4 -25 0 -35 -2 -22 -4z"/>
<path d="M1500 413 c0 -6 9 -11 20 -10 11 1 20 6 20 12 0 6 -9 11 -20 11 -11
0 -20 -6 -20 -13z"/>
<path d="M1830 426 c0 -2 8 -10 18 -17 15 -13 16 -12 3 4 -13 16 -21 21 -21
13z"/>
<path d="M1870 410 c0 -5 7 -10 16 -10 8 0 12 5 9 10 -3 6 -10 10 -16 10 -5 0
-9 -4 -9 -10z"/>
<path d="M1710 402 c0 -5 7 -9 15 -9 8 0 15 4 15 9 0 4 -7 8 -15 8 -8 0 -15
-4 -15 -8z"/>
<path d="M1645 360 c-8 -13 5 -13 25 0 13 8 13 10 -2 10 -9 0 -20 -4 -23 -10z"/>
<path d="M1785 360 c-3 -5 -1 -10 4 -10 6 0 11 5 11 10 0 6 -2 10 -4 10 -3 0
-8 -4 -11 -10z"/>
<path d="M1813 364 c11 -11 89 -14 106 -4 11 7 -3 9 -48 10 -35 0 -62 -3 -58
-6z"/>
<path d="M1598 353 c7 -3 16 -2 19 1 4 3 -2 6 -13 5 -11 0 -14 -3 -6 -6z"/>
<path d="M1468 1508 c-9 -7 -19 -24 -22 -38 l-6 -25 12 25 c7 14 19 30 28 37
8 7 12 13 9 13 -3 0 -12 -6 -21 -12z"/>
<path d="M1787 1181 c-4 -24 -4 -48 1 -53 12 -12 19 28 12 67 -6 29 -6 28 -13
-14z"/>
<path d="M1830 1205 c0 -8 2 -15 4 -15 2 0 6 7 10 15 3 8 1 15 -4 15 -6 0 -10
-7 -10 -15z"/>
<path d="M1701 1203 c-1 -6 4 -24 10 -40 6 -15 9 -29 7 -30 -2 -1 6 -12 18
-25 12 -13 24 -31 27 -40 4 -10 11 -18 17 -18 13 0 13 17 0 25 -6 4 -8 11 -5
16 4 5 0 9 -8 9 -8 0 -17 7 -21 15 -3 8 -1 15 4 15 6 0 10 5 10 10 0 6 -6 9
-12 8 -7 -2 -12 5 -12 14 1 10 -2 15 -7 12 -5 -3 -13 5 -18 18 -6 13 -10 18
-10 11z"/>
<path d="M1750 1194 c0 -8 5 -12 10 -9 6 4 8 11 5 16 -9 14 -15 11 -15 -7z"/>
<path d="M1980 1180 c-8 -70 -9 -144 -1 -158 8 -14 10 -12 9 13 -1 17 1 51 4
76 3 26 2 53 -3 60 -5 8 -9 12 -9 9z"/>
<path d="M2033 1168 c-13 -17 -24 -138 -12 -138 10 0 11 5 13 70 1 25 5 51 10
58 11 18 2 26 -11 10z"/>
<path d="M1647 1145 c5 -14 43 -28 43 -17 0 4 -11 12 -24 18 -19 9 -23 9 -19
-1z"/>
<path d="M2084 1120 c-14 -21 -24 -44 -22 -49 1 -6 16 12 31 39 34 60 28 66
-9 10z"/>
<path d="M1848 1129 c-10 -5 -22 -20 -28 -32 -11 -22 -11 -22 6 1 15 20 44 31
44 15 0 -3 -11 -21 -25 -39 -30 -39 -33 -57 -5 -26 11 12 20 26 20 32 0 5 5
10 10 10 6 0 10 -13 10 -29 0 -21 -6 -32 -21 -36 -15 -5 -18 -10 -9 -15 8 -5
8 -9 -4 -13 -9 -4 -16 -12 -16 -18 0 -8 4 -8 15 1 12 10 15 10 15 -4 0 -29 -1
-31 -16 -28 -8 2 -14 -2 -14 -8 0 -6 5 -8 12 -4 8 5 9 0 6 -14 -4 -15 -2 -22
8 -22 8 0 14 7 14 15 0 9 6 12 15 9 8 -4 15 -2 15 4 0 6 -4 12 -9 14 -14 5
-25 78 -12 78 6 0 11 -8 11 -18 0 -24 29 -64 30 -41 0 8 -4 19 -9 25 -12 13
-23 64 -13 64 4 0 19 -7 32 -16 17 -10 14 -6 -7 13 -28 25 -38 46 -42 86 -1
10 -12 8 -33 -4z"/>
<path d="M1626 1082 c16 -9 29 -10 37 -4 7 6 21 12 32 14 11 2 -6 4 -38 4 -54
0 -56 -1 -31 -14z"/>
<path d="M1580 1066 c0 -2 7 -7 16 -10 8 -3 12 -2 9 4 -6 10 -25 14 -25 6z"/>
<path d="M1630 1061 c0 -5 5 -13 10 -16 6 -3 10 -2 10 4 0 5 -4 13 -10 16 -5
3 -10 2 -10 -4z"/>
<path d="M1670 1050 c5 -10 6 -20 3 -24 -3 -3 -1 -6 5 -6 7 0 12 -6 12 -13 0
-7 7 -22 16 -33 15 -18 15 -18 5 3 -14 27 -14 33 0 33 5 0 17 -16 25 -35 8
-19 18 -34 23 -32 5 1 16 -7 25 -18 15 -20 15 -20 9 2 -3 12 -14 25 -24 28
-11 4 -19 16 -19 27 0 17 2 18 15 8 13 -11 14 -10 9 4 -3 9 -12 16 -19 16 -6
0 -27 7 -45 16 -24 12 -29 19 -19 25 8 5 23 2 37 -7 13 -9 26 -14 28 -11 9 9
-42 35 -68 35 -23 0 -26 -3 -18 -18z"/>
<path d="M1590 1024 c19 -8 42 -22 52 -31 10 -9 21 -14 24 -10 9 8 -68 57 -91
57 -14 -1 -10 -5 15 -16z"/>
<path d="M1910 1015 c0 -18 19 -40 26 -32 4 4 0 15 -9 24 -9 10 -17 13 -17 8z"/>
<path d="M1968 976 c12 -16 22 -34 22 -42 0 -7 14 -18 30 -26 17 -7 30 -16 30
-19 0 -13 -28 -17 -39 -6 -6 6 -11 7 -11 2 0 -4 -9 0 -20 10 -11 10 -23 15
-27 12 -3 -4 -1 -7 5 -7 7 0 12 -7 12 -16 0 -10 -6 -14 -15 -10 -8 3 -15 1
-15 -4 0 -6 17 -8 42 -4 36 6 40 5 35 -9 -9 -23 -2 -21 28 9 25 25 45 25 45
-1 0 -8 -8 -19 -17 -25 -17 -11 -17 -11 0 -6 10 3 22 6 27 6 4 0 6 9 3 20 -4
14 0 20 12 20 13 0 16 -6 12 -21 l-6 -21 20 20 c12 13 26 19 36 15 11 -4 14
-3 9 5 -4 7 -12 12 -18 12 -6 0 -17 8 -24 18 -13 16 -14 16 -8 0 4 -12 1 -18
-8 -18 -8 0 -20 16 -27 35 -7 19 -17 35 -22 35 -13 0 -11 -7 7 -36 19 -28 15
-38 -10 -28 -14 5 -19 22 -19 59 0 6 -8 12 -18 12 -18 2 -18 0 -2 -23 8 -14
13 -27 11 -30 -9 -9 -37 8 -43 25 -3 10 -17 29 -32 42 l-27 24 22 -29z"/>
<path d="M1598 983 c7 -3 16 -2 19 1 4 3 -2 6 -13 5 -11 0 -14 -3 -6 -6z"/>
<path d="M1596 872 c-2 -4 7 -9 20 -10 15 -1 22 2 19 8 -7 12 -32 13 -39 2z"/>
<path d="M1640 833 c0 -9 96 -10 105 -2 3 3 -20 7 -50 8 -30 1 -55 -2 -55 -6z"/>
<path d="M1907 820 c-3 -13 -2 -29 3 -34 6 -6 10 -18 10 -28 0 -10 4 -18 9
-18 5 0 13 -9 16 -20 4 -11 11 -17 17 -14 6 4 5 9 -3 15 -11 6 -11 11 -1 21 6
6 12 16 12 22 0 5 -6 1 -14 -10 -17 -22 -20 -17 -34 51 -7 36 -9 38 -15 15z"/>
<path d="M2148 833 c7 -3 16 -2 19 1 4 3 -2 6 -13 5 -11 0 -14 -3 -6 -6z"/>
<path d="M1610 819 c0 -5 5 -7 10 -4 6 3 10 8 10 11 0 2 -4 4 -10 4 -5 0 -10
-5 -10 -11z"/>
<path d="M1954 815 c11 -8 26 -15 33 -15 7 0 13 -4 13 -10 0 -5 3 -9 8 -8 8 2
54 -21 62 -32 9 -11 54 -40 63 -40 5 0 -1 9 -14 19 -13 11 -24 27 -24 37 0 9
-6 19 -14 22 -9 3 -11 0 -6 -8 4 -7 4 -11 -1 -8 -5 2 -27 12 -49 21 -22 10
-48 22 -57 27 -27 15 -36 11 -14 -5z"/>
<path d="M2120 795 c30 -17 60 -19 60 -4 0 5 -4 7 -10 4 -5 -3 -16 -3 -22 2
-7 4 -22 9 -33 10 -17 2 -16 0 5 -12z"/>
<path d="M1645 790 c-3 -5 -2 -10 4 -10 5 0 13 5 16 10 3 6 2 10 -4 10 -5 0
-13 -4 -16 -10z"/>
<path d="M1695 780 c-26 -28 -15 -31 14 -3 13 13 20 23 14 23 -5 0 -18 -9 -28
-20z"/>
<path d="M1775 790 c3 -5 1 -10 -4 -10 -6 0 -11 -9 -11 -21 0 -11 -4 -17 -10
-14 -12 8 -13 -5 -1 -24 7 -10 11 -5 16 18 3 17 11 33 16 36 12 8 11 25 -2 25
-5 0 -7 -4 -4 -10z"/>
<path d="M1990 750 c0 -5 8 -10 18 -10 13 0 14 -2 3 -9 -11 -7 -9 -11 8 -20
14 -8 21 -8 21 -1 0 5 -5 10 -11 10 -5 0 -8 4 -4 9 3 6 -4 15 -15 21 -13 7
-20 7 -20 0z"/>
<path d="M2140 745 c7 -8 17 -12 22 -9 6 4 5 10 -3 15 -22 14 -33 10 -19 -6z"/>
<path d="M2060 695 c0 -8 2 -15 4 -15 2 0 6 7 10 15 3 8 1 15 -4 15 -6 0 -10
-7 -10 -15z"/>
<path d="M653 1035 c0 -8 4 -12 9 -9 4 3 8 9 8 15 0 5 -4 9 -8 9 -5 0 -9 -7
-9 -15z"/>
</g>
</svg>
