<?xml version="1.0" standalone="no"?>
<!DOCTYPE svg PUBLIC "-//W3C//DTD SVG 20010904//EN"
 "http://www.w3.org/TR/2001/REC-SVG-20010904/DTD/svg10.dtd">
<svg version="1.0" xmlns="http://www.w3.org/2000/svg"
 width="300.000000pt" height="110.000000pt" viewBox="0 0 300.000000 110.000000"
 preserveAspectRatio="xMidYMid meet">
<metadata>
Created by potrace 1.10, written by Peter Selinger 2001-2011
</metadata>
<g transform="translate(0.000000,110.000000) scale(0.100000,-0.100000)"
fill="#e53e41" stroke="none">
<path d="M1285 901 c-30 -8 -115 -57 -115 -67 0 -3 6 -2 13 2 9 5 9 4 1 -5 -8
-9 -17 -9 -37 0 -15 7 -25 15 -22 18 2 4 -4 7 -13 8 -9 1 -55 6 -102 11 -50 6
-92 6 -102 1 -9 -5 -31 -9 -48 -9 -17 0 -56 -9 -88 -21 -31 -12 -66 -22 -77
-23 -10 0 -27 -8 -36 -16 -9 -8 -35 -26 -57 -39 -22 -13 -45 -33 -51 -45 -12
-21 -69 -64 -104 -78 -9 -4 -20 -14 -23 -23 -3 -8 -11 -12 -17 -8 -6 3 -7 1
-3 -5 4 -7 2 -12 -3 -12 -6 0 -11 -5 -11 -11 0 -14 -67 -79 -83 -79 -6 0 -23
-9 -36 -19 -19 -14 -31 -17 -53 -10 -31 8 -58 3 -58 -12 0 -5 -14 -2 -31 6
-28 15 -32 15 -61 -2 -35 -21 -48 -75 -24 -102 7 -9 17 -26 20 -38 9 -29 32
-35 107 -29 52 4 67 1 91 -15 15 -11 33 -17 39 -13 6 3 36 6 66 5 34 0 52 3
48 9 -4 6 7 10 24 10 17 0 31 -4 31 -9 0 -5 13 -11 30 -13 16 -3 30 -1 30 4 0
4 14 8 30 8 17 0 30 -4 30 -10 0 -5 5 -10 11 -10 5 0 8 4 4 10 -7 11 69 33
105 31 14 -1 66 -3 115 -5 50 -3 93 -5 96 -5 4 -1 3 -19 -1 -42 -7 -36 -5 -42
17 -56 33 -22 76 -8 78 25 3 39 30 56 90 59 30 1 55 -2 55 -7 0 -4 8 -6 18 -4
9 3 48 -2 85 -10 38 -7 65 -10 60 -5 -6 6 -50 17 -99 26 -49 9 -91 19 -94 22
-8 10 -40 10 -40 0 0 -5 -15 -9 -33 -9 -30 0 -36 -5 -52 -40 -19 -43 -31 -48
-61 -26 -15 12 -17 17 -6 27 6 7 12 26 12 41 l0 28 -73 -6 c-41 -4 -95 -2
-123 4 -37 8 -62 8 -90 0 -55 -15 -423 -17 -417 -2 10 27 -56 40 -97 19 -32
-16 -54 -20 -30 -5 8 5 11 12 7 16 -4 4 -13 2 -19 -4 -18 -18 -28 -14 -28 12
0 15 -7 26 -20 29 -17 4 -18 9 -9 35 13 37 43 46 80 25 27 -16 29 -16 50 3 16
13 23 15 26 7 7 -20 26 -16 97 21 35 19 67 32 69 29 3 -2 9 9 15 24 14 36 28
52 77 88 22 16 67 55 101 85 103 95 259 149 431 150 101 0 180 -49 141 -88 -8
-8 -4 -9 17 -4 19 6 29 16 32 32 2 14 17 38 33 54 41 42 128 48 195 16 50 -24
105 -89 105 -123 0 -19 1 -19 13 -4 20 28 57 -15 57 -67 0 -23 4 -25 38 -24
78 2 249 -14 287 -27 22 -8 76 -19 120 -25 44 -7 103 -18 130 -25 28 -8 109
-19 180 -25 72 -6 162 -18 200 -26 219 -49 240 -56 266 -83 31 -32 44 -67 29
-76 -6 -4 -8 -15 -5 -25 3 -10 1 -21 -4 -24 -6 -4 -8 -13 -5 -21 8 -20 -17
-28 -48 -16 -14 5 -29 6 -34 1 -5 -5 -89 -11 -186 -14 -166 -6 -177 -5 -172
11 5 16 4 16 -5 2 -12 -19 -70 -19 -155 1 -28 6 -77 11 -110 10 -34 0 -95 3
-136 7 -41 5 -106 8 -145 8 -38 0 -74 5 -78 10 -5 6 -5 0 -2 -13 7 -25 -21
-44 -35 -22 -6 9 -21 11 -54 7 -33 -5 -46 -3 -46 6 0 8 -3 8 -9 -2 -6 -9 -20
-12 -47 -7 -22 3 -56 8 -78 11 -21 2 -44 8 -50 13 -13 10 -114 17 -105 7 16
-15 248 -55 313 -53 39 1 84 -1 99 -4 20 -4 27 -2 23 7 -3 8 2 16 10 19 10 4
12 2 8 -6 -5 -8 -2 -9 12 -3 19 8 53 9 146 5 39 -2 48 -7 51 -24 4 -20 4 -19
6 2 0 14 5 21 12 16 6 -3 39 -6 73 -5 33 0 75 -4 91 -9 29 -9 28 -10 -7 -4
-23 3 -38 1 -38 -6 0 -6 30 -11 73 -12 39 -1 86 -3 102 -4 73 -6 265 -5 313 2
36 4 52 3 52 -5 0 -6 5 -11 10 -11 6 0 10 6 10 14 0 8 4 17 9 20 4 3 6 -7 5
-22 -2 -15 -1 -20 3 -12 13 30 34 42 71 39 57 -3 62 -1 62 25 0 14 5 28 10 31
6 4 8 10 5 15 -3 5 -1 20 5 35 7 19 6 33 -4 53 -16 29 -67 74 -88 78 -7 1 -42
10 -78 19 -36 9 -76 19 -90 21 -14 2 -43 8 -65 14 -65 15 -150 25 -243 29 -15
1 -21 5 -16 13 5 7 3 8 -7 3 -19 -12 -49 -14 -55 -3 -3 4 -10 5 -16 2 -5 -4
-20 -2 -31 4 -19 9 -46 15 -117 28 -8 1 -35 5 -60 9 -25 3 -60 11 -79 17 -18
6 -65 12 -105 14 -191 10 -187 8 -206 51 -20 45 -44 68 -61 57 -7 -4 -9 -3 -6
3 4 6 0 14 -9 17 -10 4 -14 12 -10 23 4 10 5 15 1 12 -3 -3 -24 11 -46 32 -23
21 -46 36 -50 33 -5 -3 -9 -1 -9 4 0 5 -6 9 -12 9 -7 0 -29 2 -48 5 -19 3 -48
3 -65 -1z m-1057 -581 c-4 -14 -138 -23 -138 -9 0 6 9 8 20 4 11 -3 26 -2 35
2 24 14 88 16 83 3z m101 -36 c2 -2 -10 -4 -27 -4 -17 0 -34 4 -37 10 -5 9 53
3 64 -6z m646 -84 c19 -8 19 -9 -2 -9 -12 -1 -25 4 -28 9 -7 12 2 12 30 0z"/>
<path d="M1320 849 c0 -5 5 -7 10 -4 6 3 10 8 10 11 0 2 -4 4 -10 4 -5 0 -10
-5 -10 -11z"/>
<path d="M1277 799 c4 -13 8 -18 11 -10 2 7 -1 18 -6 23 -8 8 -9 4 -5 -13z"/>
<path d="M1367 813 c-10 -9 -9 -23 1 -23 5 0 9 7 9 15 0 17 -1 18 -10 8z"/>
<path d="M888 793 c6 -2 18 -2 25 0 6 3 1 5 -13 5 -14 0 -19 -2 -12 -5z"/>
<path d="M1208 773 c7 -3 16 -2 19 1 4 3 -2 6 -13 5 -11 0 -14 -3 -6 -6z"/>
<path d="M1291 744 c-6 -15 -9 -29 -6 -32 3 -3 -2 -14 -12 -24 -19 -21 -8 -25
12 -4 13 12 32 86 23 86 -3 0 -10 -12 -17 -26z"/>
<path d="M1254 731 c0 -11 4 -17 8 -15 4 3 8 12 8 20 0 8 -4 14 -8 14 -4 0 -8
-9 -8 -19z"/>
<path d="M1320 734 c0 -8 5 -14 10 -14 6 0 10 5 10 11 0 5 6 7 12 3 7 -5 32
-9 56 -11 49 -2 103 -32 121 -65 8 -17 10 -17 5 -3 -4 11 -7 27 -8 36 0 10 -6
15 -15 11 -10 -4 -13 -1 -8 12 4 11 2 16 -6 15 -6 -2 -26 1 -43 5 -62 14 -134
14 -134 0z"/>
<path d="M776 731 c-4 -5 3 -7 14 -4 23 6 26 13 6 13 -8 0 -17 -4 -20 -9z"/>
<path d="M1081 730 c-1 -8 10 -20 24 -26 19 -9 28 -9 42 3 10 8 12 12 6 8 -7
-3 -13 -2 -13 3 0 6 -7 13 -16 16 -8 3 -12 2 -9 -4 3 -6 0 -10 -9 -10 -8 0
-17 6 -19 13 -4 8 -6 7 -6 -3z"/>
<path d="M650 720 c-9 -6 -10 -10 -3 -10 6 0 15 5 18 10 8 12 4 12 -15 0z"/>
<path d="M878 723 c7 -3 16 -2 19 1 4 3 -2 6 -13 5 -11 0 -14 -3 -6 -6z"/>
<path d="M750 703 c-30 -8 -59 -18 -64 -23 -4 -5 23 0 60 10 38 10 78 20 89
23 16 4 15 5 -5 5 -14 0 -50 -6 -80 -15z"/>
<path d="M1232 680 c-18 -29 -15 -38 4 -12 9 13 14 25 12 27 -2 2 -9 -5 -16
-15z"/>
<path d="M1090 675 c7 -9 15 -13 17 -11 7 7 -7 26 -19 26 -6 0 -6 -6 2 -15z"/>
<path d="M1134 664 c-17 -14 -17 -15 -1 -10 10 3 25 6 33 6 9 0 12 5 9 10 -9
14 -18 13 -41 -6z"/>
<path d="M1469 636 c6 -7 9 -22 5 -32 -5 -17 -4 -17 5 -2 12 18 5 48 -11 48
-7 0 -6 -5 1 -14z"/>
<path d="M241 624 c0 -11 3 -14 6 -6 3 7 2 16 -1 19 -3 4 -6 -2 -5 -13z"/>
<path d="M1210 631 c0 -6 9 -9 19 -8 11 0 17 5 15 9 -7 11 -34 10 -34 -1z"/>
<path d="M1534 588 c3 -57 -3 -78 -23 -78 -13 0 -13 -2 -2 -9 11 -7 6 -18 -23
-54 -46 -56 -96 -83 -160 -86 -28 -1 -53 -4 -57 -7 -5 -2 -41 -7 -81 -10 -70
-6 -75 -5 -98 19 -20 20 -28 23 -39 14 -12 -10 -13 -7 -7 18 4 16 8 32 9 35 1
3 -2 6 -8 8 -5 1 -11 -6 -13 -17 -2 -11 -14 -31 -28 -45 -13 -15 -21 -24 -17
-21 3 3 12 0 20 -6 10 -9 13 -7 13 10 0 13 4 19 10 16 6 -4 8 -10 5 -15 -3 -4
4 -6 15 -3 12 3 29 -2 40 -12 11 -10 37 -18 60 -19 22 0 40 -3 40 -6 0 -8 44
-5 58 4 7 4 17 4 24 0 7 -5 9 -2 5 8 -5 14 4 16 52 15 43 -1 63 4 75 16 10 9
24 17 32 17 8 0 17 7 20 15 4 8 12 15 20 15 8 0 13 4 12 9 -2 5 9 19 23 33 14
13 26 30 27 38 1 8 4 35 6 60 3 25 5 45 6 45 1 0 3 8 5 18 2 9 -3 17 -10 17
-9 0 -12 -13 -11 -42z"/>
<path d="M1161 597 c-13 -21 -12 -21 5 -5 10 10 16 20 13 22 -3 3 -11 -5 -18
-17z"/>
<path d="M531 598 c-1 -10 -8 -18 -16 -18 -8 0 -15 -4 -15 -10 0 -5 4 -10 9
-10 14 0 33 28 28 42 -4 8 -6 7 -6 -4z"/>
<path d="M1644 591 c1 -21 57 -51 102 -56 27 -3 34 -2 24 4 -8 5 -18 7 -22 5
-11 -7 -96 34 -101 49 -2 7 -3 5 -3 -2z"/>
<path d="M1600 578 c0 -5 7 -20 16 -34 12 -18 22 -23 38 -19 15 5 17 4 7 -3
-7 -5 -9 -12 -4 -15 10 -6 123 0 130 6 2 2 -19 7 -46 10 -57 7 -111 31 -111
51 0 7 -7 13 -15 13 -8 0 -15 -4 -15 -9z m38 -43 c-3 -3 -9 2 -12 12 -6 14 -5
15 5 6 7 -7 10 -15 7 -18z"/>
<path d="M1205 570 c-3 -6 1 -7 9 -4 18 7 21 14 7 14 -6 0 -13 -4 -16 -10z"/>
<path d="M1945 560 c-27 -7 -28 -8 -5 -8 14 0 34 3 45 8 25 11 2 11 -40 0z"/>
<path d="M458 553 c7 -3 16 -2 19 1 4 3 -2 6 -13 5 -11 0 -14 -3 -6 -6z"/>
<path d="M1490 534 c0 -8 5 -12 10 -9 6 4 8 11 5 16 -9 14 -15 11 -15 -7z"/>
<path d="M1818 543 c12 -2 30 -2 40 0 9 3 -1 5 -23 4 -22 0 -30 -2 -17 -4z"/>
<path d="M1989 546 c-8 -8 -85 -18 -134 -18 -48 1 -48 0 -15 -8 19 -5 37 -7
40 -5 3 2 6 -4 7 -13 3 -50 9 -72 19 -72 6 0 11 7 11 15 0 8 -4 12 -8 10 -12
-8 -17 44 -5 54 6 5 31 8 56 6 25 -2 60 -1 78 2 29 5 31 7 15 18 -14 10 -21
10 -40 -2 -13 -9 -23 -11 -23 -5 0 6 8 13 18 15 14 4 14 5 1 6 -9 0 -18 -1
-20 -3z"/>
<path d="M1196 527 c3 -10 9 -15 12 -12 3 3 0 11 -7 18 -10 9 -11 8 -5 -6z"/>
<path d="M1600 525 c0 -16 26 -38 39 -33 6 1 -1 13 -14 25 -16 14 -25 17 -25
8z"/>
<path d="M2118 528 c5 -5 16 -8 23 -6 8 3 3 7 -10 11 -17 4 -21 3 -13 -5z"/>
<path d="M1405 520 c3 -5 8 -10 11 -10 2 0 4 5 4 10 0 6 -5 10 -11 10 -5 0 -7
-4 -4 -10z"/>
<path d="M1830 502 c0 -8 -10 -13 -22 -12 -37 3 -48 1 -48 -11 0 -8 5 -8 15 1
8 7 15 9 15 4 0 -5 14 -9 30 -9 33 0 35 2 20 25 -7 11 -10 12 -10 2z"/>
<path d="M1962 486 c7 -8 15 -12 17 -11 5 6 -10 25 -20 25 -5 0 -4 -6 3 -14z"/>
<path d="M352 475 c-22 -12 -22 -13 -3 -18 13 -3 21 1 24 14 3 11 4 19 4 18
-1 -1 -12 -7 -25 -14z"/>
<path d="M1118 478 c9 -9 15 -9 24 0 9 9 7 12 -12 12 -19 0 -21 -3 -12 -12z"/>
<path d="M1600 480 c0 -5 5 -10 10 -10 6 0 10 5 10 10 0 6 -4 10 -10 10 -5 0
-10 -4 -10 -10z"/>
<path d="M1087 474 c-4 -4 -7 -17 -7 -28 1 -19 1 -20 11 -3 11 19 8 43 -4 31z"/>
<path d="M2388 473 c6 -2 18 -2 25 0 6 3 1 5 -13 5 -14 0 -19 -2 -12 -5z"/>
<path d="M1200 460 c0 -5 5 -10 10 -10 6 0 10 5 10 10 0 6 -4 10 -10 10 -5 0
-10 -4 -10 -10z"/>
<path d="M300 450 c-9 -6 -10 -10 -3 -10 6 0 15 5 18 10 8 12 4 12 -15 0z"/>
<path d="M1528 450 c-3 -8 6 -25 19 -38 20 -18 23 -26 13 -37 -7 -9 -8 -15 -2
-15 5 0 13 7 16 16 3 8 12 12 18 9 7 -4 -1 6 -18 22 -17 15 -33 35 -36 43 -4
13 -5 13 -10 0z"/>
<path d="M1700 449 c0 -5 5 -7 10 -4 6 3 10 8 10 11 0 2 -4 4 -10 4 -5 0 -10
-5 -10 -11z"/>
<path d="M1758 431 c-3 -19 0 -27 7 -24 7 2 10 15 7 29 -6 31 -9 30 -14 -5z"/>
<path d="M1821 450 c-10 -6 -25 -50 -16 -50 3 0 10 12 16 27 7 19 13 24 18 15
6 -10 10 -10 20 2 10 12 9 15 -9 13 -11 -1 -25 -4 -29 -7z"/>
<path d="M2488 425 c-2 -19 0 -41 5 -48 6 -8 7 -6 3 6 -3 9 -1 17 4 17 12 0
13 47 1 54 -5 3 -11 -10 -13 -29z"/>
<path d="M339 428 c-15 -14 -102 -21 -93 -7 3 5 -2 6 -11 2 -14 -5 -12 -10 12
-29 30 -24 44 -24 23 1 -11 13 -8 14 21 9 19 -3 41 -8 49 -10 8 -3 11 -2 7 2
-4 4 -2 13 5 21 15 18 4 27 -13 11z"/>
<path d="M2520 418 c0 -17 11 -28 41 -42 52 -24 62 -15 11 11 -25 12 -38 25
-36 36 1 9 -2 17 -7 17 -5 0 -9 -10 -9 -22z"/>
<path d="M1210 424 c0 -5 12 -18 27 -28 16 -12 24 -14 21 -6 -5 16 -48 46 -48
34z"/>
<path d="M1686 415 c-3 -8 -1 -15 4 -15 6 0 10 7 10 15 0 8 -2 15 -4 15 -2 0
-6 -7 -10 -15z"/>
<path d="M2458 423 c7 -3 16 -2 19 1 4 3 -2 6 -13 5 -11 0 -14 -3 -6 -6z"/>
<path d="M88 413 c7 -3 16 -2 19 1 4 3 -2 6 -13 5 -11 0 -14 -3 -6 -6z"/>
<path d="M130 410 c-8 -5 -12 -12 -9 -15 4 -3 12 1 19 10 14 17 11 19 -10 5z"/>
<path d="M1065 410 c-3 -5 -1 -10 4 -10 6 0 11 5 11 10 0 6 -2 10 -4 10 -3 0
-8 -4 -11 -10z"/>
<path d="M1127 405 c3 -8 9 -12 14 -9 12 7 11 11 -5 17 -10 4 -13 1 -9 -8z"/>
<path d="M1600 409 c0 -5 5 -7 10 -4 6 3 10 8 10 11 0 2 -4 4 -10 4 -5 0 -10
-5 -10 -11z"/>
<path d="M1905 410 c-3 -5 -1 -10 4 -10 6 0 11 5 11 10 0 6 -2 10 -4 10 -3 0
-8 -4 -11 -10z"/>
<path d="M1960 405 c-7 -9 -8 -15 -2 -15 5 0 12 7 16 15 3 8 4 15 2 15 -2 0
-9 -7 -16 -15z"/>
<path d="M170 394 c0 -8 5 -12 10 -9 6 4 8 11 5 16 -9 14 -15 11 -15 -7z"/>
<path d="M2764 359 c0 -27 1 -49 3 -49 1 0 7 10 14 21 7 15 8 19 0 15 -7 -5
-9 3 -5 22 3 16 2 32 -3 35 -5 3 -9 -17 -9 -44z"/>
<path d="M214 386 c11 -9 24 -16 30 -16 12 0 7 5 -24 19 -24 11 -24 11 -6 -3z"/>
<path d="M1275 390 c-3 -5 -1 -10 4 -10 6 0 11 5 11 10 0 6 -2 10 -4 10 -3 0
-8 -4 -11 -10z"/>
<path d="M1857 379 c4 -13 8 -18 11 -10 2 7 -1 18 -6 23 -8 8 -9 4 -5 -13z"/>
<path d="M2000 391 c0 -5 7 -12 16 -15 12 -5 15 -15 11 -39 -3 -17 -3 -26 0
-19 6 14 43 16 43 2 0 -5 8 -10 18 -10 16 1 16 1 -1 11 -9 6 -15 14 -12 19 3
4 -5 6 -16 3 -15 -4 -20 -2 -17 8 2 7 -3 21 -11 31 -17 19 -31 24 -31 9z"/>
<path d="M2407 386 c-4 -10 -1 -13 9 -9 7 3 14 9 14 14 0 14 -17 10 -23 -5z"/>
<path d="M2616 392 c-2 -4 -1 -14 4 -22 7 -11 9 -9 7 8 -1 24 -3 26 -11 14z"/>
<path d="M1525 379 c-4 -6 -14 -8 -24 -4 -12 5 -13 3 -4 -6 9 -9 17 -8 34 5
13 9 18 16 12 16 -7 0 -15 -5 -18 -11z"/>
<path d="M1914 375 c-4 -8 -10 -13 -14 -10 -4 3 -11 -3 -14 -12 -4 -10 -4 -14
0 -10 4 4 13 2 21 -5 11 -8 12 -7 8 5 -7 17 10 31 26 21 8 -5 8 -9 -1 -14 -8
-5 -8 -9 3 -13 10 -4 14 0 12 11 -2 9 -4 20 -4 23 -2 15 -32 18 -37 4z"/>
<path d="M1756 364 c-5 -14 -4 -15 9 -4 17 14 19 20 6 20 -5 0 -12 -7 -15 -16z"/>
<path d="M1790 370 c0 -5 5 -10 10 -10 6 0 10 5 10 10 0 6 -4 10 -10 10 -5 0
-10 -4 -10 -10z"/>
<path d="M1826 365 c-9 -26 -7 -32 5 -12 6 10 9 21 6 23 -2 3 -7 -2 -11 -11z"/>
<path d="M2285 370 c-3 -5 -1 -10 4 -10 6 0 11 5 11 10 0 6 -2 10 -4 10 -3 0
-8 -4 -11 -10z"/>
<path d="M2722 355 c-17 -36 -15 -38 9 -14 13 13 17 25 12 30 -6 6 -14 0 -21
-16z"/>
<path d="M368 363 c7 -3 16 -2 19 1 4 3 -2 6 -13 5 -11 0 -14 -3 -6 -6z"/>
<path d="M1587 363 c-4 -3 -7 -11 -7 -17 0 -6 5 -5 12 2 6 6 9 14 7 17 -3 3
-9 2 -12 -2z"/>
<path d="M1976 361 c-4 -7 -5 -15 -2 -18 9 -9 19 4 14 18 -4 11 -6 11 -12 0z"/>
<path d="M2118 363 c7 -3 16 -2 19 1 4 3 -2 6 -13 5 -11 0 -14 -3 -6 -6z"/>
<path d="M2250 355 c-7 -9 -8 -15 -2 -15 5 0 12 7 16 15 3 8 4 15 2 15 -2 0
-9 -7 -16 -15z"/>
<path d="M2650 359 c0 -5 5 -7 10 -4 6 3 10 8 10 11 0 2 -4 4 -10 4 -5 0 -10
-5 -10 -11z"/>
<path d="M1631 339 c10 -19 8 -20 -10 -14 -16 5 -20 3 -15 -9 8 -20 18 -20 39
0 12 12 13 19 4 30 -18 22 -31 17 -18 -7z"/>
<path d="M2190 349 c0 -5 5 -7 10 -4 6 3 10 8 10 11 0 2 -4 4 -10 4 -5 0 -10
-5 -10 -11z"/>
<path d="M950 339 c0 -5 5 -7 10 -4 6 3 10 8 10 11 0 2 -4 4 -10 4 -5 0 -10
-5 -10 -11z"/>
<path d="M1530 341 c0 -6 5 -13 10 -16 6 -3 10 1 10 9 0 9 -4 16 -10 16 -5 0
-10 -4 -10 -9z"/>
<path d="M1776 334 c-4 -9 -4 -19 -1 -22 2 -3 7 3 11 12 4 9 4 19 1 22 -2 3
-7 -3 -11 -12z"/>
<path d="M1848 343 c7 -3 16 -2 19 1 4 3 -2 6 -13 5 -11 0 -14 -3 -6 -6z"/>
<path d="M2591 324 c-12 -27 -11 -28 4 -12 10 9 16 21 13 28 -2 7 -10 -1 -17
-16z"/>
<path d="M1040 330 c0 -5 5 -10 11 -10 5 0 7 -5 3 -12 -4 -7 -3 -8 5 -4 9 6 9
11 0 22 -14 17 -19 18 -19 4z"/>
<path d="M1301 326 c-10 -12 -8 -13 8 -9 12 3 21 9 21 14 0 14 -16 11 -29 -5z"/>
<path d="M1722 320 c-7 -11 -9 -20 -4 -20 4 0 13 9 20 20 7 11 9 20 4 20 -4 0
-13 -9 -20 -20z"/>
<path d="M2556 325 c-3 -9 -6 -22 -5 -28 0 -7 5 -1 10 12 5 13 8 26 5 28 -2 2
-6 -3 -10 -12z"/>
<path d="M1570 319 c0 -5 5 -7 10 -4 6 3 10 8 10 11 0 2 -4 4 -10 4 -5 0 -10
-5 -10 -11z"/>
<path d="M2120 325 c0 -8 29 -12 39 -5 9 5 4 8 -13 8 -14 0 -26 -2 -26 -3z"/>
<path d="M2795 320 c-3 -5 -1 -10 4 -10 6 0 11 5 11 10 0 6 -2 10 -4 10 -3 0
-8 -4 -11 -10z"/>
<path d="M2195 311 c-3 -6 4 -9 15 -8 11 1 20 5 20 9 0 11 -28 10 -35 -1z"/>
<path d="M2276 307 c3 -10 9 -15 12 -12 3 3 0 11 -7 18 -10 9 -11 8 -5 -6z"/>
<path d="M2502 295 c0 -16 2 -22 5 -12 2 9 2 23 0 30 -3 6 -5 -1 -5 -18z"/>
<path d="M2365 300 c-3 -5 -1 -10 4 -10 6 0 11 5 11 10 0 6 -2 10 -4 10 -3 0
-8 -4 -11 -10z"/>
<path d="M2675 300 c-3 -5 -2 -10 4 -10 5 0 13 5 16 10 3 6 2 10 -4 10 -5 0
-13 -4 -16 -10z"/>
<path d="M2080 240 c0 -5 9 -10 20 -10 11 0 20 5 20 10 0 6 -9 10 -20 10 -11
0 -20 -4 -20 -10z"/>
<path d="M2018 233 c7 -3 16 -2 19 1 4 3 -2 6 -13 5 -11 0 -14 -3 -6 -6z"/>
<path d="M2885 150 c-3 -5 1 -10 10 -10 9 0 13 5 10 10 -3 6 -8 10 -10 10 -2
0 -7 -4 -10 -10z"/>
<path d="M2315 130 c3 -5 8 -10 11 -10 2 0 4 5 4 10 0 6 -5 10 -11 10 -5 0 -7
-4 -4 -10z"/>
<path d="M2950 124 c-17 -9 -20 -14 -9 -14 9 0 22 7 29 15 15 18 13 18 -20 -1z"/>
<path d="M2040 120 c0 -5 5 -10 11 -10 5 0 7 5 4 10 -3 6 -8 10 -11 10 -2 0
-4 -4 -4 -10z"/>
<path d="M1628 113 c6 -2 18 -2 25 0 6 3 1 5 -13 5 -14 0 -19 -2 -12 -5z"/>
<path d="M453 56 c15 -7 24 -15 21 -19 -4 -4 -1 -7 7 -7 8 0 25 -3 39 -6 14
-3 4 6 -23 20 -27 14 -54 26 -60 25 -7 0 0 -6 16 -13z"/>
<path d="M161 44 c0 -11 3 -14 6 -6 3 7 2 16 -1 19 -3 4 -6 -2 -5 -13z"/>
<path d="M695 40 c-3 -5 -1 -10 4 -10 6 0 11 5 11 10 0 6 -2 10 -4 10 -3 0 -8
-4 -11 -10z"/>
<path d="M338 33 c6 -2 18 -2 25 0 6 3 1 5 -13 5 -14 0 -19 -2 -12 -5z"/>
<path d="M400 30 c0 -5 5 -10 11 -10 5 0 7 5 4 10 -3 6 -8 10 -11 10 -2 0 -4
-4 -4 -10z"/>
<path d="M450 20 c0 -5 5 -10 11 -10 5 0 7 5 4 10 -3 6 -8 10 -11 10 -2 0 -4
-4 -4 -10z"/>
</g>
</svg>
