<?xml version="1.0" standalone="no"?>
<!DOCTYPE svg PUBLIC "-//W3C//DTD SVG 20010904//EN"
 "http://www.w3.org/TR/2001/REC-SVG-20010904/DTD/svg10.dtd">
<svg version="1.0" xmlns="http://www.w3.org/2000/svg"
 width="900.000000pt" height="330.000000pt" viewBox="0 0 900.000000 330.000000"
 preserveAspectRatio="xMidYMid meet">
<metadata>
Created by potrace 1.10, written by Peter Selinger 2001-2011
</metadata>
<g transform="translate(0.000000,330.000000) scale(0.100000,-0.100000)"
fill="#e53e41" stroke="none">
<path d="M3840 2710 c-60 -11 -129 -39 -152 -62 -11 -11 -27 -18 -36 -16 -15
4 -42 -20 -145 -130 -16 -16 -29 -21 -46 -17 -28 7 -78 43 -85 62 -3 7 -13 13
-22 13 -9 0 -55 13 -103 29 -47 16 -117 32 -156 36 -116 13 -333 8 -405 -9
-36 -8 -110 -18 -165 -22 -74 -5 -105 -11 -120 -24 -11 -10 -45 -21 -75 -25
-30 -4 -59 -11 -65 -15 -5 -4 -39 -20 -75 -35 -36 -14 -79 -33 -97 -41 -17 -8
-43 -14 -57 -14 -14 0 -34 -9 -43 -20 -10 -11 -58 -41 -108 -66 -49 -26 -107
-61 -127 -79 -20 -19 -47 -41 -61 -49 -13 -9 -82 -75 -153 -147 -91 -92 -134
-129 -147 -125 -10 2 -21 -3 -27 -14 -5 -9 -34 -30 -64 -45 -39 -20 -58 -36
-65 -56 -5 -16 -17 -29 -25 -29 -9 0 -16 -7 -16 -15 0 -8 -8 -19 -19 -24 -17
-10 -44 -46 -81 -110 -8 -14 -23 -35 -33 -46 -10 -11 -29 -35 -43 -52 -14 -18
-32 -33 -40 -33 -16 0 -140 -64 -164 -85 -8 -7 -34 -22 -58 -33 -34 -16 -49
-19 -70 -11 -14 5 -38 7 -54 3 -21 -4 -35 -1 -48 11 -18 16 -22 16 -62 0 -24
-9 -51 -24 -61 -33 -16 -14 -21 -14 -63 6 -24 12 -55 22 -67 22 -12 0 -28 4
-35 9 -15 9 -132 -45 -176 -83 -25 -21 -28 -29 -24 -63 4 -24 0 -49 -8 -64
-25 -44 -11 -101 37 -152 18 -19 49 -79 62 -119 7 -21 53 -52 65 -44 5 3 7 17
5 31 -4 19 0 27 18 34 24 10 24 10 2 10 -34 1 -53 38 -53 104 l0 59 -38 -7
c-32 -5 -41 -2 -65 23 -23 24 -26 31 -14 41 8 6 23 43 33 81 l18 69 43 7 c24
3 46 10 49 15 17 27 101 -4 141 -52 36 -42 64 -38 125 21 29 28 59 49 67 48 8
-2 22 -16 31 -33 13 -24 24 -31 55 -33 31 -3 49 4 94 35 31 22 83 52 116 67
33 16 68 32 77 37 10 5 23 9 31 9 7 0 29 9 50 20 20 11 46 20 57 20 15 0 27
13 40 43 11 23 20 50 20 61 0 17 101 151 119 158 5 2 29 21 55 43 26 22 64 49
85 60 69 38 156 108 201 163 103 124 167 175 325 257 28 15 70 37 94 51 24 13
48 24 53 24 4 0 36 13 70 28 180 82 278 110 423 121 55 5 127 16 160 25 50 14
90 16 245 11 l185 -6 73 -36 c40 -19 75 -40 78 -44 3 -5 15 -9 26 -9 12 0 36
-11 55 -26 28 -21 33 -31 33 -65 0 -22 -7 -50 -16 -63 -20 -32 -7 -39 61 -31
60 8 78 25 65 60 -4 11 -3 30 1 43 5 13 9 32 9 43 0 56 151 199 210 199 9 0
20 4 26 9 32 30 274 27 336 -5 15 -8 34 -14 42 -14 27 0 89 -33 161 -86 89
-66 146 -133 195 -231 20 -39 27 -65 23 -85 -6 -31 12 -40 21 -10 3 9 19 23
35 30 42 19 76 0 101 -57 12 -25 28 -59 35 -74 9 -17 15 -57 15 -97 0 -91 10
-99 91 -75 64 20 79 19 269 -16 30 -6 64 -10 75 -9 11 1 25 1 30 1 6 0 97 -3
204 -6 190 -5 195 -6 258 -35 34 -16 69 -30 77 -30 7 0 30 -7 49 -15 20 -8 56
-15 79 -15 24 0 93 -9 153 -19 61 -11 155 -25 210 -31 55 -7 108 -17 118 -22
16 -8 58 -19 238 -62 36 -9 94 -16 130 -16 35 0 89 -7 119 -15 35 -9 102 -15
182 -15 70 0 139 -5 155 -11 15 -6 84 -14 153 -18 69 -5 139 -13 155 -19 60
-21 142 -42 168 -42 14 0 38 -5 54 -11 15 -7 48 -15 73 -20 164 -28 250 -47
410 -94 30 -9 77 -19 103 -22 34 -4 52 -12 62 -27 8 -11 41 -50 74 -86 34 -36
61 -73 61 -82 0 -10 7 -32 16 -51 15 -32 15 -35 -10 -72 -16 -23 -24 -45 -20
-54 19 -45 16 -63 -15 -95 -28 -29 -30 -34 -16 -52 21 -28 18 -50 -10 -68 -33
-22 -51 -20 -125 10 l-63 25 -41 -20 c-51 -24 -95 -29 -366 -37 -118 -3 -219
-8 -224 -11 -15 -10 -480 -10 -500 0 -11 5 -35 5 -63 -2 -33 -9 -48 -9 -59 0
-7 6 -57 13 -111 15 -134 6 -148 7 -164 20 -8 7 -43 14 -79 17 -36 4 -97 11
-136 16 -103 15 -311 16 -327 3 -10 -8 -26 -7 -63 4 -27 9 -78 18 -114 20
-149 8 -318 24 -359 34 -55 14 -256 4 -326 -16 -42 -11 -54 -20 -73 -54 -21
-37 -26 -40 -67 -40 -37 0 -45 3 -45 19 0 36 -25 44 -113 38 -45 -3 -93 -10
-107 -15 -14 -5 -83 -10 -154 -11 -114 -1 -134 1 -175 21 -32 16 -61 21 -98
20 -52 -2 -170 25 -214 49 -13 7 -32 12 -42 10 -10 -1 -25 3 -32 9 -9 8 -31
10 -62 6 -27 -4 -69 -6 -95 -6 -56 1 -64 -16 -12 -26 34 -6 35 -8 29 -40 -4
-26 -2 -34 8 -34 8 0 17 6 20 14 7 16 100 32 119 19 7 -4 42 -13 78 -20 36 -6
97 -21 135 -33 39 -11 89 -22 112 -25 22 -2 52 -9 65 -17 25 -14 277 -16 300
-2 7 4 50 9 96 11 76 3 84 1 89 -16 4 -16 15 -21 52 -23 25 -2 61 1 79 6 27 8
35 6 46 -10 22 -28 38 -7 27 34 -11 36 -6 39 27 16 21 -14 25 -14 56 5 29 18
55 22 176 26 114 4 149 2 172 -10 19 -9 36 -11 47 -6 21 11 77 2 92 -15 6 -8
29 -14 50 -14 33 0 40 -4 45 -25 8 -33 17 -32 31 5 12 33 36 38 66 16 24 -18
22 -23 -14 -30 -18 -3 -28 -10 -24 -17 8 -12 134 -2 149 12 15 14 42 11 57 -7
10 -12 29 -15 88 -13 90 3 323 -8 436 -21 181 -21 755 -29 990 -14 180 11 233
9 253 -9 28 -26 47 -21 57 16 12 40 28 38 35 -4 6 -40 27 -49 36 -15 3 15 13
26 23 26 23 1 51 24 51 43 0 20 19 26 48 16 13 -5 43 -4 73 3 48 11 52 11 68
-11 13 -17 24 -22 39 -16 12 3 22 10 22 14 0 4 11 13 23 18 17 8 28 26 37 60
7 26 24 62 36 80 19 25 24 44 24 92 0 33 5 63 11 67 6 3 8 17 5 29 -3 13 -2
27 4 30 17 10 11 62 -11 107 -41 84 -52 103 -67 115 -8 7 -42 38 -75 70 -56
54 -120 89 -139 77 -5 -3 -15 -1 -22 6 -8 6 -22 12 -32 14 -34 7 -158 38 -190
47 -17 5 -45 9 -63 9 -32 0 -91 24 -91 38 0 4 -30 8 -66 10 -37 1 -78 9 -93
16 -20 10 -30 11 -44 2 -12 -7 -20 -8 -25 -1 -17 25 -156 55 -337 75 -60 6
-126 16 -145 23 -19 6 -96 12 -170 13 -194 1 -200 2 -200 19 0 19 -4 19 -40 0
-31 -16 -76 -12 -124 12 -16 8 -42 13 -59 10 -17 -2 -53 5 -81 16 -28 10 -76
24 -106 29 -121 21 -166 30 -184 40 -10 5 -36 6 -57 3 -22 -4 -45 -3 -52 2
-20 16 -88 31 -164 39 -42 4 -78 12 -84 20 -6 8 -28 14 -48 14 -20 0 -65 7
-101 16 -36 9 -76 18 -90 20 -14 2 -50 8 -80 13 -30 6 -129 11 -220 12 -91 0
-208 7 -260 14 -52 8 -120 17 -151 20 l-56 6 -42 86 c-50 100 -137 192 -183
193 -16 0 -28 6 -28 13 0 7 -16 28 -35 47 -19 19 -35 43 -35 52 0 9 -26 41
-57 70 -31 29 -66 62 -77 73 -12 11 -47 37 -78 57 -32 21 -58 43 -58 49 0 6
-7 8 -16 5 -9 -4 -23 -1 -32 6 -8 7 -27 14 -41 14 -14 1 -51 7 -81 13 -75 16
-205 22 -260 11z"/>
<path d="M4092 2378 c6 -18 28 -21 28 -4 0 9 -7 16 -16 16 -9 0 -14 -5 -12
-12z"/>
<path d="M3832 2349 c2 -6 8 -10 13 -10 5 0 11 4 13 10 2 6 -4 11 -13 11 -9 0
-15 -5 -13 -11z"/>
<path d="M3872 2238 c-7 -7 -12 -18 -12 -26 0 -8 -12 -25 -26 -38 -14 -13 -22
-29 -19 -35 11 -17 56 -30 69 -20 16 13 39 98 32 116 -7 18 -28 19 -44 3z"/>
<path d="M3755 2230 c-8 -13 16 -62 33 -68 21 -7 15 56 -7 68 -13 7 -22 7 -26
0z"/>
<path d="M4056 2211 c-10 -15 16 -51 37 -51 11 0 32 8 48 17 28 17 31 17 64
-1 24 -13 52 -18 95 -17 68 2 85 -7 168 -81 30 -26 57 -48 62 -48 4 0 13 -13
19 -30 5 -16 15 -30 20 -30 14 0 14 47 1 55 -5 3 -13 20 -18 38 -7 27 -12 32
-35 29 -23 -3 -27 0 -27 20 0 13 5 29 12 36 9 9 9 15 1 23 -9 9 -18 8 -38 -5
-19 -12 -30 -14 -44 -6 -11 5 -29 10 -41 10 -11 0 -35 7 -52 16 -17 9 -65 18
-107 21 -42 3 -95 7 -117 10 -24 3 -44 0 -48 -6z"/>
<path d="M3237 2194 c-4 -4 -7 -20 -7 -36 0 -21 5 -28 20 -28 17 0 19 4 14 28
-8 32 -18 45 -27 36z"/>
<path d="M3320 2190 c0 -5 7 -10 15 -10 24 0 18 -27 -7 -34 l-23 -5 26 -27
c23 -23 31 -25 55 -17 22 8 28 16 26 33 -3 31 -20 50 -43 50 -11 0 -19 5 -19
10 0 6 -7 10 -15 10 -8 0 -15 -4 -15 -10z"/>
<path d="M3960 2175 c0 -8 7 -15 15 -15 8 0 15 7 15 15 0 8 -7 15 -15 15 -8 0
-15 -7 -15 -15z"/>
<path d="M3862 2087 c-9 -11 -10 -17 -2 -22 15 -9 23 -1 18 21 -3 15 -4 16
-16 1z"/>
<path d="M3710 2070 c0 -13 5 -20 13 -17 6 2 12 10 12 17 0 7 -6 15 -12 18 -8
2 -13 -5 -13 -18z"/>
<path d="M2156 2065 c-3 -8 -17 -15 -31 -15 -14 0 -25 -4 -25 -10 0 -14 22
-12 64 5 20 9 34 20 31 25 -9 15 -32 12 -39 -5z"/>
<path d="M2220 2076 c0 -10 28 -13 41 -5 10 6 7 9 -13 9 -16 0 -28 -2 -28 -4z"/>
<path d="M3440 2006 c0 -7 10 -16 22 -19 27 -7 32 -3 25 18 -8 19 -47 20 -47
1z"/>
<path d="M3643 1893 c-18 -7 -16 -43 2 -43 12 0 35 28 35 44 0 7 -20 7 -37 -1z"/>
<path d="M4591 1874 c-26 -19 -26 -27 1 -67 13 -18 24 -34 26 -36 1 -3 9 2 17
10 17 17 9 95 -10 103 -7 2 -22 -2 -34 -10z"/>
<path d="M4595 1717 c0 -18 7 -43 14 -56 12 -23 12 -26 -8 -39 -23 -16 -29
-52 -7 -52 7 0 18 6 24 13 14 18 26 137 14 137 -6 0 -17 6 -25 14 -12 12 -14
10 -12 -17z"/>
<path d="M4846 1724 c-8 -22 1 -31 16 -16 9 9 9 15 1 23 -7 7 -12 5 -17 -7z"/>
<path d="M4956 1722 c-7 -11 31 -48 41 -38 4 3 -2 16 -14 27 -11 12 -23 17
-27 11z"/>
<path d="M1515 1711 c-7 -12 12 -24 25 -16 11 7 4 25 -10 25 -5 0 -11 -4 -15
-9z"/>
<path d="M5036 1673 c-3 -3 -3 -10 0 -14 7 -12 44 -12 44 0 0 10 -36 21 -44
14z"/>
<path d="M5443 1633 c15 -2 37 -2 50 0 12 2 0 4 -28 4 -27 0 -38 -2 -22 -4z"/>
<path d="M4850 1623 c0 -5 5 -15 10 -23 8 -12 10 -11 10 8 0 12 -4 22 -10 22
-5 0 -10 -3 -10 -7z"/>
<path d="M4470 1590 c0 -5 7 -10 15 -10 8 0 15 5 15 10 0 6 -7 10 -15 10 -8 0
-15 -4 -15 -10z"/>
<path d="M4790 1580 c0 -25 40 -108 54 -112 6 -2 31 -1 56 2 l45 5 -40 24
c-47 29 -79 59 -88 84 -9 23 -27 22 -27 -3z"/>
<path d="M4914 1580 c-8 -8 -1 -21 20 -44 38 -41 90 -50 156 -28 25 8 51 17
59 19 21 5 -1 25 -32 28 -33 4 -67 14 -95 28 -20 9 -25 8 -33 -6 -12 -21 -35
-22 -43 -2 -6 18 -18 19 -32 5z"/>
<path d="M5830 1575 c-15 -18 3 -28 41 -23 13 1 51 -5 83 -15 55 -17 62 -17
100 -3 23 9 53 16 66 16 30 0 57 16 46 27 -14 14 -161 9 -179 -6 -14 -11 -18
-11 -23 3 -8 22 -116 23 -134 1z"/>
<path d="M5563 1540 c6 -16 16 -30 22 -30 6 0 22 14 37 30 l26 30 -48 0 -48 0
11 -30z"/>
<path d="M5692 1549 c-9 -11 -27 -25 -38 -29 -29 -12 -38 -47 -13 -55 14 -5
19 -16 19 -45 0 -21 3 -45 6 -54 12 -32 24 -15 24 35 0 38 -5 55 -17 65 -17
12 -17 13 0 19 9 4 17 13 17 20 0 17 33 45 53 45 9 0 17 -5 17 -11 0 -5 5 -7
11 -4 13 9 -19 34 -44 35 -9 0 -25 -9 -35 -21z"/>
<path d="M5186 1532 c-2 -4 -1 -14 4 -22 8 -13 13 -13 32 -1 12 8 34 17 48 22
19 6 13 7 -27 8 -28 1 -54 -3 -57 -7z"/>
<path d="M4549 1513 c-1 -5 0 -19 0 -33 1 -17 -14 -42 -49 -79 -48 -52 -70
-94 -56 -109 13 -12 60 23 66 48 3 14 15 30 27 35 45 23 52 35 50 91 -2 44 -5
54 -19 54 -10 0 -18 -3 -19 -7z"/>
<path d="M5487 1513 c-4 -3 -7 -14 -7 -24 0 -10 -10 -25 -22 -33 l-22 -16 24
0 c30 0 44 9 53 33 11 29 -8 59 -26 40z"/>
<path d="M3360 1460 c-43 -6 -46 -29 -6 -49 34 -16 59 -6 64 26 4 25 -12 31
-58 23z"/>
<path d="M5293 1450 c-25 -20 -31 -50 -10 -50 17 1 51 50 41 60 -5 5 -19 0
-31 -10z"/>
<path d="M5360 1446 c0 -31 14 -40 30 -21 15 18 6 45 -15 45 -9 0 -15 -9 -15
-24z"/>
<path d="M3250 1386 c-13 -36 -17 -95 -5 -93 6 1 9 13 7 26 -2 17 4 31 19 42
14 10 20 22 16 33 -9 23 -26 20 -37 -8z"/>
<path d="M1075 1387 c-4 -10 -5 -21 -1 -24 10 -10 18 4 13 24 -4 17 -4 17 -12
0z"/>
<path d="M3600 1375 c0 -18 5 -25 20 -25 15 0 20 7 20 25 0 18 -5 25 -20 25
-15 0 -20 -7 -20 -25z"/>
<path d="M5185 1390 c-4 -6 -3 -16 3 -22 6 -6 12 -6 17 2 4 6 3 16 -3 22 -6 6
-12 6 -17 -2z"/>
<path d="M5553 1373 c-13 -2 -23 -9 -23 -15 0 -6 -6 -6 -15 2 -13 10 -19 10
-33 -3 -9 -8 -26 -17 -37 -19 -14 -2 -21 -12 -23 -33 -1 -17 -8 -40 -14 -52
-16 -31 -4 -39 27 -19 19 13 24 23 20 37 -5 14 1 28 19 46 15 14 28 24 30 22
2 -2 7 -12 12 -21 8 -15 12 -15 52 3 30 14 42 25 40 37 -3 18 -19 22 -55 15z"/>
<path d="M5726 1373 c-12 -12 -6 -33 9 -33 8 0 15 6 15 14 0 17 -14 28 -24 19z"/>
<path d="M5957 1363 c-8 -7 11 -33 24 -33 5 0 9 9 9 20 0 19 -20 27 -33 13z"/>
<path d="M5284 1300 c1 -57 4 -65 21 -68 18 -4 19 -3 3 10 -11 8 -18 32 -21
68 -3 50 -4 49 -3 -10z"/>
<path d="M4577 1321 c-5 -22 1 -33 14 -25 12 7 12 44 0 44 -5 0 -11 -9 -14
-19z"/>
<path d="M7465 1285 c-10 -78 4 -101 45 -75 12 7 12 16 4 50 -6 22 -7 43 -3
46 19 11 8 34 -15 34 -22 0 -25 -5 -31 -55z"/>
<path d="M3102 1304 c-17 -11 -20 -23 -18 -57 2 -37 -2 -47 -36 -84 -21 -24
-38 -47 -38 -52 0 -5 -11 -12 -25 -15 -31 -8 -31 -16 2 -40 32 -24 54 -13 67
33 6 23 14 30 24 26 19 -7 32 12 32 46 0 15 7 32 15 39 16 13 21 105 7 114 -5
3 -18 -1 -30 -10z"/>
<path d="M3565 1310 c-10 -17 12 -37 25 -24 8 8 6 15 -4 23 -10 9 -16 9 -21 1z"/>
<path d="M1018 1287 c-20 -12 -39 -30 -42 -40 -4 -15 -7 -16 -24 -6 -16 10
-28 10 -62 -1 -45 -15 -78 -35 -70 -44 3 -3 43 -8 88 -12 l82 -7 40 43 c23 25
40 53 40 67 0 27 -4 27 -52 0z"/>
<path d="M7570 1290 c0 -5 7 -10 15 -10 8 0 15 5 15 10 0 6 -7 10 -15 10 -8 0
-15 -4 -15 -10z"/>
<path d="M4396 1258 c-3 -13 -1 -27 4 -32 15 -15 40 2 40 29 0 33 -35 35 -44
3z"/>
<path d="M4610 1250 c0 -24 6 -32 33 -44 18 -7 41 -26 51 -41 16 -24 20 -26
33 -12 21 21 4 71 -24 75 -12 2 -33 14 -48 28 -34 32 -45 30 -45 -6z"/>
<path d="M7365 1270 c-8 -13 20 -24 41 -16 20 8 9 26 -16 26 -10 0 -22 -5 -25
-10z"/>
<path d="M5713 1226 c-13 -13 -23 -27 -23 -30 0 -13 28 -5 45 14 27 30 6 45
-22 16z"/>
<path d="M7556 1234 c-12 -32 -5 -43 38 -62 24 -11 47 -25 50 -31 4 -6 18 -11
32 -11 13 0 24 -4 24 -9 0 -12 69 -55 76 -48 7 6 -66 74 -107 101 -18 11 -40
16 -55 13 -24 -4 -25 -3 -19 29 5 29 3 34 -13 34 -11 0 -23 -7 -26 -16z"/>
<path d="M3680 1215 c0 -8 13 -21 30 -30 37 -19 41 -19 33 3 -12 35 -63 58
-63 27z"/>
<path d="M720 1213 c1 -13 37 -53 48 -53 5 0 16 -10 25 -22 11 -18 18 -20 27
-12 20 20 7 47 -35 71 -41 23 -65 29 -65 16z"/>
<path d="M8275 1210 c-7 -12 2 -30 16 -30 12 0 12 27 0 35 -5 3 -12 1 -16 -5z"/>
<path d="M4325 1179 c-9 -17 -14 -33 -11 -36 7 -7 56 44 56 58 0 21 -31 7 -45
-22z"/>
<path d="M357 1193 c-12 -11 -8 -23 8 -23 8 0 15 7 15 15 0 16 -12 20 -23 8z"/>
<path d="M504 1185 c-8 -21 10 -39 30 -32 22 9 20 24 -4 37 -16 9 -22 8 -26
-5z"/>
<path d="M7244 1182 c-20 -15 -53 -71 -44 -77 5 -3 14 4 20 15 6 11 19 20 29
20 15 0 31 18 31 35 0 7 -28 13 -36 7z"/>
<path d="M7912 1176 c1 -10 8 -17 13 -17 15 1 12 24 -3 29 -9 3 -13 -2 -10
-12z"/>
<path d="M6015 1169 c-4 -6 -5 -13 -2 -16 7 -7 27 6 27 18 0 12 -17 12 -25 -2z"/>
<path d="M3815 1150 c-3 -5 3 -10 15 -10 12 0 18 5 15 10 -3 6 -10 10 -15 10
-5 0 -12 -4 -15 -10z"/>
<path d="M4223 1144 c-35 -15 -45 -44 -15 -44 22 0 82 36 82 50 0 14 -28 11
-67 -6z"/>
<path d="M5575 1148 c-10 -26 2 -55 17 -40 8 8 8 18 1 34 -10 21 -12 21 -18 6z"/>
<path d="M8306 1135 c-7 -19 3 -47 15 -39 5 3 9 14 9 24 0 24 -16 34 -24 15z"/>
<path d="M3170 1133 c-17 -6 -54 -43 -49 -47 2 -2 26 -8 52 -15 31 -7 57 -22
75 -42 22 -25 38 -32 77 -36 l50 -4 -25 20 c-14 12 -46 33 -72 48 -33 19 -48
35 -52 55 -5 28 -21 34 -56 21z"/>
<path d="M4666 1104 c-8 -21 -8 -24 4 -24 5 0 14 9 20 20 8 16 8 20 -4 20 -7
0 -17 -7 -20 -16z"/>
<path d="M5372 1111 c4 -13 18 -16 19 -4 0 4 -5 9 -11 12 -7 2 -11 -2 -8 -8z"/>
<path d="M5480 1106 c0 -8 5 -18 10 -21 6 -3 10 3 10 14 0 12 -4 21 -10 21 -5
0 -10 -6 -10 -14z"/>
<path d="M5722 1108 c-7 -7 -12 -20 -12 -29 0 -13 -6 -16 -22 -12 -20 4 -21 3
-7 -9 9 -7 18 -20 22 -28 4 -10 6 -9 6 6 1 12 9 24 20 27 20 5 36 57 17 57 -7
0 -17 -5 -24 -12z"/>
<path d="M6340 1086 c0 -22 19 -30 35 -16 22 18 18 30 -10 30 -15 0 -25 -6
-25 -14z"/>
<path d="M7946 1091 c-4 -5 -3 -16 0 -25 5 -12 9 -13 25 -3 10 6 19 17 19 24
0 15 -36 18 -44 4z"/>
<path d="M8176 1064 c-9 -20 -14 -39 -11 -42 11 -11 58 46 52 62 -10 25 -22
19 -41 -20z"/>
<path d="M4039 1079 c-8 -5 -63 -7 -124 -4 -107 4 -110 4 -130 -20 -18 -22
-29 -25 -116 -28 -53 -2 -101 -7 -107 -11 -6 -3 -37 -9 -70 -12 -70 -8 -87
-16 -79 -38 8 -20 51 -21 67 -1 17 20 42 19 72 -4 16 -13 29 -17 39 -10 24 15
62 10 86 -12 l22 -22 41 37 c35 32 43 35 60 24 17 -11 22 -10 30 2 5 8 8 20 6
27 -4 10 14 23 34 23 17 0 20 -34 5 -63 -18 -36 -13 -44 18 -29 12 6 38 13 57
14 29 3 34 6 31 23 -12 58 -10 60 49 60 54 0 80 8 80 25 0 14 -56 29 -71 19z"/>
<path d="M5925 1069 c-17 -18 -17 -21 -3 -35 20 -20 38 -10 38 21 0 33 -14 38
-35 14z"/>
<path d="M7646 1073 c-12 -12 -6 -33 9 -33 8 0 15 6 15 14 0 17 -14 28 -24 19z"/>
<path d="M4130 1060 c0 -5 7 -10 15 -10 8 0 15 5 15 10 0 6 -7 10 -15 10 -8 0
-15 -4 -15 -10z"/>
<path d="M4740 1054 c0 -9 7 -14 17 -12 25 5 28 28 4 28 -12 0 -21 -6 -21 -16z"/>
<path d="M5060 1049 c-8 -14 -9 -24 -2 -31 14 -14 32 -1 32 22 0 28 -17 33
-30 9z"/>
<path d="M5240 1055 c0 -8 5 -15 10 -15 6 0 10 7 10 15 0 8 -4 15 -10 15 -5 0
-10 -7 -10 -15z"/>
<path d="M5450 1045 c0 -16 6 -25 15 -25 9 0 15 9 15 25 0 16 -6 25 -15 25 -9
0 -15 -9 -15 -25z"/>
<path d="M6737 1050 c-23 -28 -21 -40 7 -40 16 0 26 7 29 22 11 40 -8 50 -36
18z"/>
<path d="M4860 1051 c0 -6 4 -12 9 -15 4 -3 6 -17 4 -31 -4 -18 0 -27 13 -32
11 -3 22 -11 26 -17 9 -14 48 22 48 45 0 10 -17 25 -43 38 -48 23 -57 25 -57
12z"/>
<path d="M520 1033 c-58 -23 -140 -66 -140 -73 0 -4 -10 -11 -22 -15 -21 -6
-21 -8 -4 -12 10 -3 28 0 40 5 34 17 136 35 194 34 81 -1 102 -8 102 -37 0
-16 -6 -25 -15 -25 -8 0 -15 -5 -15 -11 0 -7 11 -8 30 -4 23 5 30 3 30 -8 0
-18 57 -70 101 -92 26 -14 39 -14 82 -5 29 6 95 11 147 10 52 0 158 -1 236 -2
77 -1 145 1 150 4 5 4 38 0 73 -7 38 -8 73 -10 86 -5 41 16 132 22 153 11 16
-8 30 -6 67 10 25 11 53 18 61 15 8 -3 29 1 47 8 65 28 144 39 224 31 43 -4
98 -10 123 -12 25 -3 134 -6 243 -8 241 -4 233 1 222 -131 -8 -99 -2 -111 79
-150 49 -24 160 -36 126 -14 -8 5 -29 10 -47 10 -17 0 -35 5 -38 10 -3 5 -15
10 -26 10 -14 0 -19 7 -19 26 0 23 3 25 26 20 19 -5 25 -3 22 6 -3 7 -12 14
-22 16 -9 2 -28 14 -43 28 -25 24 -25 24 -7 51 41 62 47 80 48 153 l1 75 -45
-3 c-25 -2 -61 -8 -81 -13 -20 -5 -119 -10 -220 -11 -163 -1 -194 1 -274 21
-102 27 -167 24 -239 -7 -29 -13 -78 -23 -138 -27 -51 -3 -118 -11 -149 -16
-45 -9 -78 -8 -158 5 -112 18 -342 21 -406 6 -37 -9 -294 3 -353 16 -14 3 -27
16 -34 34 -11 33 -60 62 -112 66 -17 2 -44 5 -61 8 -16 3 -37 2 -45 -1z m315
-156 c6 -7 37 -14 70 -15 62 -3 82 -12 70 -32 -9 -15 -154 -7 -164 8 -3 5 -16
12 -28 16 -23 7 -30 26 -16 40 10 10 56 -2 68 -17z"/>
<path d="M2860 1021 c-15 -29 -12 -50 4 -28 7 9 18 17 25 17 6 0 11 7 11 15 0
22 -27 19 -40 -4z"/>
<path d="M5515 1029 c-10 -15 1 -23 20 -15 9 3 13 10 10 16 -8 13 -22 13 -30
-1z"/>
<path d="M7790 1025 c0 -9 5 -15 11 -13 6 2 11 8 11 13 0 5 -5 11 -11 13 -6 2
-11 -4 -11 -13z"/>
<path d="M6090 1012 c0 -24 18 -32 71 -32 35 0 39 -3 39 -25 0 -18 5 -25 19
-25 14 0 18 5 14 20 -3 11 -9 23 -14 26 -5 3 -9 14 -9 24 0 17 -5 19 -45 13
-29 -4 -50 -1 -60 7 -13 10 -15 9 -15 -8z"/>
<path d="M340 1005 c-7 -8 -8 -15 -2 -15 5 0 15 7 22 15 7 8 8 15 2 15 -5 0
-15 -7 -22 -15z"/>
<path d="M4590 1005 c0 -8 5 -15 10 -15 6 0 10 7 10 15 0 8 -4 15 -10 15 -5 0
-10 -7 -10 -15z"/>
<path d="M5195 999 c-4 -6 -4 -13 -1 -16 8 -8 36 5 36 17 0 13 -27 13 -35 -1z"/>
<path d="M6372 968 c7 -19 38 -22 38 -4 0 10 -9 16 -21 16 -12 0 -19 -5 -17
-12z"/>
<path d="M7770 965 c0 -8 5 -15 10 -15 6 0 10 7 10 15 0 8 -4 15 -10 15 -5 0
-10 -7 -10 -15z"/>
<path d="M8386 955 c-22 -17 -14 -48 11 -43 19 4 30 35 16 48 -4 5 -16 2 -27
-5z"/>
<path d="M4820 953 c0 -5 6 -18 14 -29 12 -15 18 -17 33 -8 29 18 22 39 -14
42 -18 2 -33 -1 -33 -5z"/>
<path d="M390 894 c-25 -7 -61 -14 -80 -14 -26 0 -31 -3 -20 -10 20 -13 135
-13 181 0 20 6 42 17 49 25 11 13 6 15 -36 14 -27 0 -69 -7 -94 -15z"/>
<path d="M3265 877 c-16 -18 -25 -19 -110 -13 l-92 7 -22 -50 c-11 -27 -21
-56 -21 -64 0 -8 -12 -32 -28 -53 -15 -21 -33 -51 -39 -66 -10 -23 -19 -28
-48 -28 -19 0 -35 -5 -35 -10 0 -18 31 -24 52 -11 16 10 23 9 37 -3 40 -36 82
-5 74 55 -4 29 -2 39 8 39 8 0 23 19 35 42 35 70 124 101 293 103 88 1 94 0
104 -22 10 -24 19 -28 30 -16 13 12 142 9 152 -4 6 -8 40 -13 88 -15 50 -1 81
-6 88 -15 13 -14 79 -18 79 -4 0 8 -8 12 -80 32 -80 23 -270 58 -348 64 -24 2
-55 8 -70 14 -15 6 -50 17 -79 24 -48 13 -53 12 -68 -6z"/>
<path d="M8317 853 c-12 -12 -7 -22 8 -17 8 4 15 10 15 15 0 11 -14 12 -23 2z"/>
<path d="M8240 695 c0 -17 2 -18 24 -9 23 9 20 24 -4 24 -11 0 -20 -7 -20 -15z"/>
<path d="M8656 443 c-12 -12 -5 -23 14 -23 11 0 20 4 20 9 0 11 -26 22 -34 14z"/>
<path d="M1430 120 c0 -13 7 -20 20 -20 23 0 26 10 8 28 -18 18 -28 15 -28 -8z"/>
<path d="M1190 75 c0 -15 6 -25 14 -25 19 0 28 14 20 34 -10 25 -34 19 -34 -9z"/>
</g>
</svg>
