<?xml version="1.0" standalone="no"?>
<!DOCTYPE svg PUBLIC "-//W3C//DTD SVG 20010904//EN"
 "http://www.w3.org/TR/2001/REC-SVG-20010904/DTD/svg10.dtd">
<svg version="1.0" xmlns="http://www.w3.org/2000/svg"
 width="300.000000pt" height="216.000000pt" viewBox="0 0 300.000000 216.000000"
 preserveAspectRatio="xMidYMid meet">
<metadata>
Created by potrace 1.10, written by Peter Selinger 2001-2011
</metadata>
<g transform="translate(0.000000,216.000000) scale(0.100000,-0.100000)"
fill="#e33d3d" stroke="none">
<path d="M1749 2136 c-2 -2 -64 -6 -137 -9 -128 -6 -157 -11 -148 -25 4 -7 2
-8 -144 -17 -52 -4 -113 -13 -135 -22 -52 -20 -74 -23 -170 -28 -67 -3 -96
-10 -180 -46 -55 -23 -116 -55 -136 -71 -25 -19 -49 -28 -72 -28 -47 0 -114
-31 -159 -74 -44 -40 -52 -62 -10 -25 26 23 26 23 -2 -8 -16 -18 -26 -36 -22
-40 3 -4 26 14 49 40 56 60 105 81 171 73 36 -5 59 -2 79 8 40 22 92 30 114
18 16 -9 14 -11 -12 -17 -58 -13 -67 -17 -99 -46 -40 -34 -76 -49 -121 -49
-19 0 -36 -4 -40 -9 -5 -9 19 -8 99 4 15 3 43 18 61 34 18 16 62 39 98 50 36
12 71 29 78 37 18 22 48 36 88 41 29 3 33 2 21 -7 -12 -9 -10 -10 12 -6 20 5
32 0 47 -16 18 -18 30 -21 81 -19 58 2 66 -2 61 -32 -1 -5 3 -6 9 -2 16 10 12
-2 -15 -46 -16 -25 -32 -39 -43 -37 -9 2 -17 -3 -17 -10 0 -15 -50 -59 -76
-67 -11 -4 -19 -11 -19 -16 0 -12 18 -12 33 1 59 48 75 58 82 52 5 -4 4 -1 0
7 -6 11 -4 13 9 8 9 -4 15 -3 12 2 -7 10 22 24 34 16 4 -3 6 5 3 17 -4 19 -3
20 6 7 9 -14 17 -15 57 -6 39 9 47 8 55 -5 9 -17 49 -14 49 4 0 5 -4 6 -10 3
-5 -3 -10 -2 -10 4 0 15 -73 23 -103 12 -17 -7 -27 -7 -27 -1 0 6 4 10 8 10 5
0 8 10 7 22 -1 12 7 30 17 40 10 10 16 22 14 27 -3 5 2 15 12 24 31 28 231
127 256 127 14 0 28 5 31 10 12 19 -71 11 -98 -10 -14 -11 -30 -20 -35 -20 -6
0 -18 -8 -28 -17 -13 -14 -30 -17 -68 -14 -62 4 -65 4 -252 -3 -139 -5 -204
-15 -204 -32 0 -3 8 -3 18 1 9 4 53 8 97 9 44 1 87 4 95 7 8 3 12 4 8 2 -17
-10 -7 -23 10 -15 9 5 26 6 37 2 18 -7 18 -8 -7 -15 -16 -4 -28 -11 -28 -16 0
-9 86 25 109 44 9 8 12 8 8 1 -5 -8 6 -9 36 -3 58 10 80 -4 39 -25 -17 -9 -41
-29 -53 -45 -21 -28 -23 -29 -46 -14 -17 12 -38 14 -77 10 -49 -5 -54 -3 -64
18 -21 46 -144 43 -187 -5 -21 -23 -45 -26 -45 -6 0 17 -68 6 -102 -16 -28
-18 -78 -31 -78 -21 0 16 96 66 140 73 25 4 35 8 23 9 -12 0 -25 5 -28 11 -4
6 1 7 11 3 13 -5 15 -3 9 7 -5 8 -4 11 1 7 14 -8 105 13 99 23 -3 4 13 6 36 3
29 -4 44 -2 50 8 7 12 9 12 9 0 0 -16 92 -7 145 15 19 8 66 14 105 14 47 0 97
8 148 24 130 41 238 42 335 4 27 -11 27 -11 7 -25 -11 -8 -36 -16 -54 -19 -53
-6 -106 -32 -100 -48 4 -11 0 -13 -15 -9 -12 3 -21 1 -21 -6 0 -5 -6 -8 -14
-5 -14 6 -32 -13 -22 -23 3 -3 28 2 55 11 27 9 57 16 65 16 8 0 18 5 22 11 5
9 -1 10 -21 5 -25 -6 -27 -5 -16 8 7 9 17 14 21 11 5 -3 11 -2 14 3 2 4 19 9
37 10 29 2 42 -7 108 -71 42 -41 93 -84 114 -96 20 -13 37 -25 37 -27 0 -8
-34 0 -41 9 -3 4 -12 0 -20 -9 -12 -16 -12 -17 3 -11 10 3 20 1 24 -4 3 -6 14
-9 24 -6 16 4 17 2 7 -20 -11 -24 -12 -24 -27 -6 -11 14 -22 17 -40 12 -25 -6
-24 -6 5 -10 54 -7 32 -24 -39 -30 -48 -4 -73 -11 -81 -22 -7 -10 -17 -17 -24
-17 -6 0 -11 -4 -11 -10 0 -5 -11 -10 -25 -10 -30 0 -31 11 -7 47 9 15 12 24
5 20 -6 -4 -15 -2 -19 4 -4 7 -3 9 3 6 12 -7 47 16 49 32 1 6 2 16 3 21 0 6 5
10 11 10 5 0 6 -8 3 -17 -6 -15 -5 -16 9 -3 9 8 14 18 12 21 -1 3 24 5 56 4
33 -1 60 2 60 6 0 11 -57 22 -70 14 -13 -8 -71 13 -82 29 -4 6 -10 7 -14 3 -4
-4 1 -14 12 -22 17 -13 17 -14 2 -15 -10 0 -18 -4 -18 -10 0 -5 -12 -21 -26
-35 -18 -18 -25 -34 -21 -50 2 -14 1 -22 -3 -20 -4 3 -13 -8 -20 -24 -6 -16
-21 -32 -33 -35 -31 -8 -34 2 -3 13 31 12 35 21 6 14 -14 -4 -20 0 -20 10 0 9
-5 19 -12 23 -8 5 -9 2 -5 -10 6 -14 3 -16 -14 -11 -12 4 -19 3 -16 -2 3 -4
-14 -17 -38 -26 -38 -16 -69 -47 -46 -47 5 0 12 8 15 17 6 15 8 15 16 3 6 -8
10 -19 10 -25 0 -5 -4 -4 -9 4 -7 11 -11 10 -20 -7 -14 -27 -14 -35 2 -26 10
6 10 4 0 -7 -7 -7 -13 -22 -13 -33 0 -17 -2 -18 -9 -6 -6 8 -7 19 -3 24 9 15
10 46 1 46 -17 0 -19 -41 -6 -87 13 -44 12 -51 -4 -78 -17 -26 -24 -27 -20 -2
1 5 -3 6 -9 2 -6 -3 -8 -11 -5 -16 6 -8 -8 -13 -27 -10 -16 2 -7 -18 10 -22 9
-3 -8 -3 -38 -2 l-55 3 35 -16 c19 -8 41 -14 49 -13 7 1 10 -2 7 -7 -6 -11 21
-25 33 -18 4 3 36 -24 71 -59 34 -36 71 -67 82 -70 11 -4 18 -16 19 -33 0 -15
3 -21 6 -14 2 6 9 12 15 12 6 0 8 -6 5 -14 -3 -8 3 -17 16 -21 12 -4 25 -8 30
-10 4 -1 10 -3 15 -4 4 -1 0 -6 -8 -11 -8 -5 -10 -10 -5 -10 20 0 38 17 26 24
-14 9 -14 26 0 26 5 0 7 -4 4 -10 -8 -13 9 -12 60 1 22 6 45 11 52 11 7 1 9 6
6 11 -4 6 6 8 27 4 18 -4 39 -7 47 -7 8 0 11 -5 7 -12 -4 -6 -3 -8 4 -4 6 3
14 1 18 -5 5 -8 8 -8 14 1 8 12 60 4 60 -11 0 -9 63 -23 93 -21 9 0 17 -4 17
-10 0 -6 -8 -17 -17 -24 -17 -13 -17 -14 1 -7 14 5 17 3 12 -6 -5 -8 -18 -10
-32 -7 -14 4 -24 2 -24 -4 0 -5 -13 -10 -30 -10 -16 0 -30 -5 -30 -12 0 -6 -3
-9 -6 -6 -3 4 -22 -1 -42 -9 -20 -9 -58 -15 -84 -14 -31 1 -48 -2 -48 -10 0
-6 -8 -9 -18 -7 -15 4 -19 0 -18 -26 1 -39 12 -56 36 -56 10 0 20 -7 24 -15 7
-19 2 -19 -35 1 -29 15 -30 15 -20 -5 17 -30 13 -36 -9 -16 -11 10 -20 15 -20
10 0 -11 32 -34 47 -35 7 0 12 3 10 8 -1 4 1 8 6 10 16 5 19 1 7 -13 -7 -8
-21 -15 -31 -15 -11 0 -19 -4 -19 -9 0 -6 -16 -7 -35 -4 -26 4 -36 2 -41 -11
-3 -9 -13 -16 -21 -16 -8 0 -11 -5 -7 -11 5 -8 1 -8 -14 0 -18 10 -20 9 -17
-10 4 -17 2 -19 -11 -8 -11 9 -18 9 -26 1 -7 -7 -17 -8 -29 -2 -14 8 -16 6
-12 -10 3 -12 0 -20 -6 -20 -7 0 -9 5 -5 11 5 8 -3 10 -25 7 -17 -2 -31 -1
-31 4 0 5 -5 6 -12 2 -18 -12 -57 -11 -51 1 2 5 -4 0 -16 -13 -11 -12 -22 -18
-25 -13 -3 5 -15 7 -27 4 -16 -4 -17 -8 -7 -14 10 -7 9 -9 -4 -9 -10 0 -18 -6
-18 -12 0 -9 -3 -9 -9 1 -8 13 -12 13 -26 1 -15 -12 -15 -14 1 -23 24 -13 66
-18 58 -6 -3 5 2 9 10 9 9 0 16 5 16 10 0 11 24 22 73 34 22 5 27 4 21 -6 -5
-10 -4 -10 6 -1 14 13 43 6 34 -8 -3 -5 1 -6 9 -4 14 6 40 -18 50 -47 3 -9 2
-18 -4 -20 -5 -2 -11 -13 -13 -25 l-5 -23 28 21 c15 11 43 21 63 22 19 1 42 8
50 14 10 9 18 9 25 2 8 -8 13 -8 17 0 4 6 1 11 -6 12 -7 1 -3 4 10 8 23 6 23
6 -7 17 -23 9 -28 9 -25 -1 3 -6 -6 -20 -20 -29 -15 -9 -26 -13 -26 -8 0 5
-10 8 -22 8 -13 -1 -22 4 -21 12 2 6 -1 12 -6 12 -19 0 1 36 31 55 73 46 138
76 150 69 4 -3 8 0 8 6 0 6 5 8 10 5 6 -3 10 -1 10 5 0 6 5 8 12 4 6 -4 8 -3
4 4 -6 10 50 32 84 32 20 0 130 69 130 81 0 12 -18 11 -22 -1 -2 -6 -16 -12
-32 -14 -15 -2 -31 -7 -34 -12 -4 -5 -16 -10 -27 -12 -27 -3 -69 -9 -75 -11
-3 -1 1 -5 8 -10 11 -7 11 -9 -2 -14 -18 -7 -23 18 -6 28 6 3 10 11 10 17 0 6
-7 5 -17 -3 -9 -8 -14 -9 -11 -4 4 6 -3 17 -14 24 -18 11 -20 11 -15 -3 8 -19
0 -21 -17 -3 -27 26 4 43 88 50 44 3 82 11 86 18 5 6 13 8 20 4 9 -6 11 -4 5
5 -6 9 2 11 33 8 22 -2 38 1 35 6 -3 5 0 6 8 4 8 -3 20 2 27 11 11 13 12 13 6
1 -4 -9 2 -7 17 6 13 11 36 25 52 32 15 6 27 19 27 27 0 11 7 14 24 11 18 -3
25 1 29 15 6 23 -8 25 -17 2 -6 -14 -8 -14 -21 3 -11 15 -14 16 -15 4 0 -8
-15 -24 -33 -35 -49 -30 -50 -29 -12 10 20 20 33 40 30 45 -8 13 1 13 25 0 13
-7 21 -7 25 0 9 14 35 12 32 -2 -1 -7 6 -12 16 -12 9 1 17 -3 17 -8 0 -5 7
-16 15 -25 14 -14 14 -17 -2 -29 -16 -12 -16 -15 -3 -24 19 -13 30 -13 30 1 0
5 -4 8 -9 4 -5 -3 -12 -1 -15 4 -12 19 26 20 47 0 21 -19 21 -20 2 -14 -20 7
-20 6 -1 -9 11 -9 24 -16 29 -16 15 0 -5 44 -30 68 -13 12 -21 27 -17 33 4 8
-1 9 -17 4 -20 -6 -22 -5 -11 6 18 19 15 28 -8 24 -11 -2 -22 0 -25 6 -4 5
-15 9 -26 9 -13 0 -18 4 -13 13 4 6 -2 4 -13 -6 -20 -17 -58 -14 -47 4 3 5 10
7 15 3 6 -3 21 4 35 17 22 21 22 23 6 36 -15 13 -15 13 8 7 23 -6 24 -6 10 11
-10 13 -11 16 -2 11 9 -5 13 -3 11 5 -6 48 4 72 46 114 45 43 78 102 68 118
-3 5 5 3 18 -4 13 -7 25 -12 27 -11 9 7 22 0 17 -8 -4 -6 -3 -10 2 -9 20 3 34
-2 28 -11 -4 -6 -11 -7 -17 -4 -7 4 -8 2 -4 -4 10 -17 46 -15 46 2 0 8 -10 22
-22 30 -17 12 -19 19 -10 28 9 9 16 8 31 -6 36 -33 30 1 -10 49 -57 69 -38 70
26 1 36 -38 52 -63 49 -74 -5 -15 -4 -15 5 -2 16 22 29 -3 25 -48 -10 -107
-20 -132 -53 -132 -14 0 -14 -2 -1 -10 13 -9 13 -10 0 -11 -8 0 -27 -2 -43 -3
-18 -1 -26 3 -23 10 3 7 -5 14 -16 17 -23 6 -19 33 5 29 8 -1 18 2 22 8 3 5
14 10 23 9 11 0 12 -2 4 -6 -6 -2 -9 -9 -6 -14 9 -16 44 31 37 49 -6 14 -4 15
8 5 12 -10 15 -8 16 7 2 20 -26 51 -28 31 -4 -36 -20 -61 -39 -61 -11 0 -22
-5 -25 -11 -5 -7 -14 -5 -28 4 -14 9 -29 11 -42 6 -11 -4 -17 -8 -12 -10 21
-5 28 -7 39 -8 6 0 8 -4 4 -8 -10 -10 -56 -12 -50 -1 3 4 1 8 -5 8 -5 0 -18 3
-28 7 -15 5 -13 1 6 -20 13 -15 27 -25 30 -22 4 2 8 -8 9 -23 2 -15 4 -34 5
-42 1 -8 -2 -17 -8 -18 -5 -2 -16 -9 -24 -15 -11 -9 -13 -9 -8 0 4 6 2 15 -4
18 -5 4 -8 12 -6 19 3 7 -3 22 -12 35 l-17 23 -18 -26 c-15 -23 -15 -27 -1
-32 8 -3 13 -10 10 -15 -3 -4 3 -6 13 -4 12 2 18 -3 19 -16 2 -22 -8 -24 -25
-7 -23 23 -22 1 2 -25 13 -14 21 -29 17 -33 -3 -4 0 -4 7 0 6 4 12 13 12 20 0
13 57 43 73 38 11 -3 9 6 -8 32 -15 23 -15 24 10 30 14 4 33 2 43 -4 14 -9 12
-10 -11 -7 -31 5 -47 -10 -26 -24 8 -5 28 -8 44 -8 l30 1 -30 9 c-29 8 -29 8
7 6 23 -2 39 2 42 10 3 7 11 10 19 7 14 -5 62 50 84 96 l11 25 1 -27 c1 -39
-19 -128 -30 -128 -4 0 -6 -6 -3 -13 2 -7 -7 -30 -21 -51 -26 -39 -31 -51 -16
-41 5 3 13 0 17 -6 4 -7 3 -9 -4 -5 -5 3 -12 0 -15 -6 -3 -9 -17 -1 -40 21
-20 19 -33 39 -30 45 4 8 3 8 -6 0 -9 -8 -9 -17 0 -40 7 -16 13 -37 13 -46 1
-10 4 -17 7 -15 4 1 16 -7 28 -17 12 -11 21 -14 21 -8 0 7 8 12 18 12 16 -1
16 -1 0 -11 -10 -5 -18 -14 -18 -19 0 -6 8 -18 18 -29 9 -10 29 -32 44 -49 16
-16 49 -37 75 -46 45 -16 48 -15 80 6 18 13 33 29 33 36 0 6 8 12 18 13 12 0
13 2 3 6 -8 3 -20 -2 -27 -12 -8 -10 -20 -15 -29 -11 -9 3 -14 2 -11 -2 2 -4
-1 -15 -8 -25 -11 -14 -18 -15 -45 -6 -27 10 -58 43 -54 59 1 3 -7 17 -18 30
-19 23 -19 23 -9 3 7 -16 7 -23 0 -23 -5 0 -11 8 -11 18 -2 26 -4 35 -13 61
-5 14 -4 39 2 60 49 164 57 224 41 291 -7 28 36 15 74 -22 41 -41 41 -43 10
-123 -24 -63 -28 -69 -54 -76 -21 -6 -22 -7 -4 -10 11 -1 30 -1 43 0 12 1 22
-3 22 -8 0 -6 7 -8 15 -4 9 3 23 -3 31 -13 9 -11 13 -14 10 -8 -3 6 1 11 9 11
8 0 12 -4 9 -9 -3 -4 0 -8 6 -8 8 0 10 -9 6 -26 -5 -17 -3 -23 4 -19 5 3 10
15 10 25 0 10 5 22 10 25 6 3 10 10 10 16 0 5 -4 9 -10 9 -16 0 -50 39 -40 45
6 4 7 13 1 23 -14 28 -20 77 -11 92 9 15 -4 32 -32 43 -21 8 -24 27 -5 27 15
0 51 -37 60 -60 5 -13 6 -12 6 1 1 9 -8 29 -20 45 l-21 29 27 -29 c29 -32 31
-73 3 -68 -10 2 -18 -2 -18 -8 0 -5 7 -10 15 -10 10 0 15 -10 15 -34 0 -19 5
-38 11 -41 6 -4 8 -13 5 -21 -3 -7 0 -16 6 -20 7 -5 9 3 6 24 -2 17 -1 29 4
26 4 -3 8 -13 9 -22 0 -11 2 -12 6 -4 3 7 0 18 -6 26 -6 7 -13 38 -16 70 -5
55 -27 106 -46 106 -5 0 -18 9 -29 20 l-20 20 -1 -22 c0 -22 -1 -22 -8 -3 -5
11 -4 30 0 43 5 13 9 27 9 32 0 12 -93 100 -107 100 -6 0 -14 9 -18 20 -11 35
-86 122 -100 116 -9 -3 -12 0 -9 8 7 18 -59 66 -89 66 -16 0 -33 11 -48 31
-44 56 -54 65 -120 112 -37 26 -79 48 -95 49 -16 2 -62 20 -102 40 -56 29 -86
38 -123 38 -29 0 -64 8 -88 20 -42 23 -128 40 -101 21 9 -7 10 -11 3 -11 -6 0
-15 5 -18 10 -6 10 -28 14 -36 6z m96 -24 c-3 -3 -11 0 -18 7 -9 10 -8 11 6 5
10 -3 15 -9 12 -12z m-318 -8 c-3 -3 -12 -4 -19 -1 -8 3 -5 6 6 6 11 1 17 -2
13 -5z m371 -26 c34 -16 62 -21 102 -20 43 2 52 0 40 -8 -12 -10 -11 -11 8 -7
12 3 22 1 22 -4 0 -5 6 -9 14 -9 8 0 16 -7 19 -15 4 -8 32 -19 66 -27 34 -6
61 -15 61 -19 0 -11 -38 -21 -51 -14 -13 9 -63 15 -107 15 -52 -1 -111 -29
-127 -61 -22 -41 -29 -42 -61 -6 -17 18 -20 25 -9 17 19 -14 19 -13 0 5 -23
21 -90 75 -109 87 -6 4 -7 10 -3 14 11 11 87 12 80 1 -3 -4 2 -7 10 -5 8 2 31
-11 50 -29 33 -30 59 -35 36 -6 -6 7 -9 24 -7 38 5 25 -5 34 -17 15 -3 -5 -11
-10 -16 -10 -6 0 -8 4 -4 9 7 13 -23 21 -60 16 -18 -2 -37 3 -47 12 -9 8 -32
19 -50 23 -26 6 -18 8 40 9 56 1 84 -4 120 -21z m309 -79 c10 0 13 -3 6 -6
-18 -7 -79 15 -95 34 -9 12 -2 10 29 -6 23 -11 50 -21 60 -22z m115 -61 c31
-21 71 -58 88 -82 33 -49 36 -43 -29 -61 -15 -5 -20 1 -26 32 -3 21 -16 48
-27 60 -12 13 -17 27 -12 34 5 9 2 10 -9 6 -11 -4 -17 -1 -17 7 0 7 -7 19 -15
26 -12 10 -15 10 -15 -2 0 -8 6 -20 13 -27 10 -10 8 -11 -8 -6 -11 3 -6 -2 11
-11 17 -9 38 -29 47 -44 21 -35 21 -40 2 -40 -8 0 -15 -5 -15 -10 0 -6 8 -10
17 -8 11 2 19 -5 21 -17 2 -16 1 -17 -7 -5 -6 8 -11 11 -11 7 0 -4 -9 -3 -21
3 -11 7 -18 17 -16 24 3 7 1 19 -3 27 -6 8 -4 17 3 22 8 5 5 7 -8 4 -11 -2
-19 -9 -17 -15 1 -7 -4 -12 -10 -13 -7 0 -30 -2 -51 -4 -33 -2 -36 -1 -25 13
11 13 11 14 -1 7 -11 -6 -13 -4 -7 11 5 14 -1 11 -20 -9 -14 -16 -29 -26 -32
-22 -4 3 -1 10 6 14 10 6 10 11 -3 21 -13 11 -15 10 -9 -3 5 -13 0 -15 -22
-11 -16 3 -31 8 -34 11 -3 3 5 3 18 0 12 -3 22 -2 22 3 0 15 -39 18 -51 4 -6
-8 -15 -11 -20 -8 -14 9 -10 -10 7 -32 14 -18 15 -18 8 6 -5 21 -4 23 7 12 11
-10 11 -16 1 -33 -8 -12 -11 -24 -8 -27 3 -3 6 1 6 9 0 12 2 12 9 0 8 -12 16
-11 52 7 36 18 45 19 51 8 11 -19 64 -36 107 -34 19 1 37 -4 39 -10 2 -7 7
-10 11 -7 9 5 -2 -58 -14 -87 -4 -10 -14 -18 -22 -18 -8 0 -13 8 -11 18 2 9
-2 16 -10 14 -14 -2 -17 0 -77 52 -58 50 -85 54 -141 21 -43 -25 -46 -26 -39
-6 4 13 -4 40 -21 76 -15 30 -24 58 -20 62 4 4 11 1 16 -7 8 -12 10 -10 10 7
0 44 40 50 187 28 36 -6 43 -4 54 17 7 12 12 27 11 31 -3 9 -3 9 80 -45z
m-212 -92 c0 -2 -7 -6 -15 -10 -8 -3 -15 -1 -15 4 0 6 7 10 15 10 8 0 15 -2
15 -4z m104 -18 c3 6 14 9 24 7 9 -2 24 -4 32 -5 8 -1 2 -6 -13 -12 -32 -12
-81 -3 -71 13 4 8 9 7 14 -1 5 -8 10 -9 14 -2z m297 -54 c14 -17 33 -19 23 -2
-4 7 -3 8 5 4 6 -4 9 -11 6 -15 -2 -5 13 -32 35 -61 22 -29 37 -57 34 -61 -3
-5 2 -6 10 -3 22 9 20 20 -9 42 -30 24 -33 37 -5 22 17 -9 45 -51 52 -77 2 -5
16 -17 33 -29 16 -12 29 -26 27 -33 -1 -7 1 -10 5 -8 5 3 22 -6 38 -19 25 -19
28 -27 19 -41 -6 -10 -9 -33 -7 -52 l4 -34 -36 30 c-23 19 -45 29 -61 27 -13
-1 -22 1 -19 5 2 5 -11 26 -30 47 -19 21 -35 43 -35 47 0 5 -6 5 -12 1 -7 -4
-10 -4 -6 0 8 9 -56 76 -72 76 -6 0 -8 5 -4 12 5 8 2 9 -9 5 -20 -8 -29 4 -17
23 7 12 13 12 34 1 14 -8 24 -19 23 -25 -1 -6 4 -10 11 -8 8 1 11 -2 8 -7 -6
-9 91 -101 107 -101 4 0 12 -11 17 -24 5 -13 22 -33 38 -45 26 -18 31 -19 36
-5 3 8 2 13 -3 10 -5 -3 -24 14 -42 38 -19 25 -43 50 -54 55 -17 9 -14 11 17
8 21 -2 34 1 29 6 -4 4 -18 9 -30 10 -15 1 -21 8 -21 25 0 21 -1 22 -16 7 -9
-8 -13 -22 -10 -30 11 -29 -4 -14 -30 30 -14 25 -29 45 -33 45 -4 0 -13 10
-20 23 -15 27 -58 50 -68 35 -4 -7 -1 -8 7 -3 9 6 11 4 5 -4 -5 -9 -10 -10
-18 -2 -15 15 -37 -5 -37 -35 0 -30 18 -77 33 -86 9 -6 9 -8 0 -8 -7 0 -13 -5
-13 -11 0 -5 4 -8 9 -4 5 3 12 1 16 -5 5 -8 -18 -15 -28 -7 -2 1 -12 -5 -22
-13 -14 -11 -17 -12 -11 -1 6 9 5 12 -4 9 -8 -2 -15 -17 -17 -34 -3 -16 -11
-33 -19 -37 -8 -5 -12 -12 -9 -18 4 -5 1 -9 -5 -9 -6 0 -8 -4 -5 -10 3 -5 2
-10 -3 -10 -6 0 -13 7 -16 16 -3 8 -11 12 -17 8 -8 -4 -7 -9 2 -15 17 -10 6
-21 -26 -24 -19 -3 -29 4 -40 25 -8 15 -11 31 -7 35 4 5 2 5 -4 2 -6 -3 -21
12 -33 34 -18 32 -22 52 -19 98 1 33 0 57 -4 54 -5 -2 -8 2 -8 9 0 7 -4 19 -9
27 -8 12 -12 12 -25 2 -11 -9 -16 -10 -16 -2 0 6 -5 11 -11 11 -6 0 -8 -9 -4
-21 4 -13 1 -27 -9 -38 -10 -10 -16 -32 -14 -50 3 -43 18 -39 18 6 0 37 23 73
47 73 15 0 17 -19 3 -40 -8 -12 -12 -13 -19 -1 -6 9 -10 4 -13 -18 -3 -18 1
-39 8 -49 12 -15 13 -13 8 15 -5 25 -3 31 10 29 8 -1 19 -6 23 -11 4 -4 2 -5
-4 -1 -10 5 -13 -3 -13 -29 0 -22 -8 -47 -20 -62 -14 -17 -20 -21 -20 -10 0 8
7 17 15 21 8 3 15 11 15 17 0 7 -9 4 -22 -7 -19 -17 -21 -17 -15 -2 3 10 1 20
-5 24 -8 5 -9 -3 -4 -27 10 -49 20 -54 51 -22 15 15 25 23 22 17 -3 -6 3 -17
14 -24 10 -8 19 -21 19 -30 0 -8 9 -21 20 -28 12 -7 18 -17 15 -22 -3 -6 -1
-10 6 -10 7 0 2 -11 -11 -25 -13 -14 -18 -25 -11 -25 7 0 9 -5 6 -11 -5 -6
-12 -4 -20 8 -11 14 -10 20 4 31 15 12 14 13 -2 8 -10 -3 -16 -2 -13 3 3 4 -6
13 -21 20 -14 6 -23 14 -20 18 4 3 2 14 -3 23 -7 13 -6 20 6 24 8 3 12 11 9
17 -5 6 -13 2 -23 -13 -19 -26 -25 -51 -10 -42 5 3 8 -2 6 -12 -2 -11 2 -18 9
-17 14 3 45 -50 41 -69 -2 -7 3 -12 10 -10 6 1 12 -3 12 -9 0 -8 5 -7 15 1 9
7 14 19 11 25 -6 18 10 39 24 30 9 -6 9 -9 0 -15 -8 -5 -7 -12 5 -24 15 -15
15 -16 -4 -16 -21 0 -29 -24 -11 -35 6 -3 7 1 4 9 -3 9 -1 16 5 16 12 0 14
-11 5 -33 -5 -13 -9 -13 -31 -2 -14 8 -30 20 -34 27 -7 10 -9 10 -9 1 0 -7 -7
-13 -16 -13 -14 0 -14 -2 -3 -16 12 -14 14 -14 19 2 6 16 7 16 13 1 6 -17 -2
-21 -35 -18 -10 1 -18 -2 -18 -8 0 -6 -6 -8 -13 -5 -8 3 -20 -2 -27 -11 -7 -8
-19 -15 -27 -15 -8 0 -11 -5 -8 -10 5 -8 11 -7 21 1 17 14 48 -7 40 -28 -3 -7
1 -13 8 -13 8 0 17 7 20 16 3 8 2 13 -3 10 -5 -3 -16 6 -26 20 -15 24 -15 25
2 22 10 -2 22 -7 26 -13 5 -6 7 -3 3 8 -8 26 1 21 19 -10 8 -16 15 -21 14 -13
-3 31 1 39 16 34 11 -5 14 -1 9 12 -5 18 -5 18 6 1 18 -28 20 -55 4 -61 -9 -3
-12 -1 -9 4 10 16 -8 11 -35 -10 -14 -11 -19 -20 -12 -20 18 0 14 -28 -8 -52
-16 -17 -23 -19 -32 -10 -9 9 -8 16 5 29 11 12 17 13 17 5 0 -7 5 -10 10 -7
17 10 11 25 -10 25 -11 0 -20 -6 -20 -12 0 -7 -5 -5 -11 5 -12 21 -29 22 -29
1 0 -8 4 -13 9 -9 5 3 12 1 16 -5 3 -6 -1 -13 -10 -17 -17 -6 -38 14 -29 29 3
4 0 8 -7 8 -6 0 -9 -8 -6 -19 3 -14 0 -17 -15 -13 -15 4 -17 7 -6 13 10 7 9 9
-4 9 -10 0 -18 4 -18 9 0 5 -20 9 -45 8 -24 -1 -45 3 -46 8 0 6 -7 14 -15 18
-8 5 -12 12 -9 17 3 5 15 0 25 -10 25 -25 70 -29 50 -5 -7 8 -18 15 -24 15
-18 0 -56 67 -56 97 0 16 4 43 9 61 5 17 6 32 1 32 -17 0 -36 -47 -34 -85 3
-39 -11 -69 -27 -59 -5 3 -9 -2 -9 -10 0 -11 7 -15 23 -12 12 2 21 9 20 15 -2
5 4 8 12 5 8 -4 15 -10 15 -16 0 -5 -4 -7 -9 -4 -4 3 -7 -7 -5 -23 3 -25 0
-29 -20 -27 -14 0 -22 6 -19 13 3 7 9 10 14 7 5 -3 9 0 9 5 0 17 -15 13 -35
-9 -10 -11 -26 -19 -36 -18 -9 2 -26 -6 -38 -16 -12 -11 -21 -15 -21 -9 0 5
-10 9 -22 7 -13 -1 -29 -3 -36 -3 -7 -1 -10 -5 -7 -11 3 -5 1 -10 -4 -10 -6 0
-11 5 -11 11 0 5 -4 7 -10 4 -6 -3 -7 1 -4 10 4 9 13 14 21 11 21 -9 94 12
121 34 21 17 22 21 8 42 -8 13 -13 38 -11 56 1 17 -1 32 -6 32 -12 0 -11 37 1
45 5 3 7 0 4 -9 -4 -10 0 -14 13 -12 10 2 12 1 6 -1 -16 -6 -16 -16 -1 -31 10
-10 10 -15 -2 -22 -9 -6 -10 -10 -3 -10 6 0 19 -7 28 -17 14 -13 18 -14 25 -2
5 7 5 16 0 19 -5 3 -14 29 -21 58 -15 74 3 148 42 171 30 17 40 37 13 27 -10
-4 -13 -2 -8 7 4 6 -2 4 -13 -5 -22 -20 -38 -24 -27 -6 5 7 3 8 -5 4 -7 -5
-21 0 -33 11 -12 10 -18 12 -14 6 9 -17 -20 -17 -30 -1 -4 7 -3 8 4 4 15 -9
15 -6 -4 39 -17 42 -16 44 43 71 39 17 65 19 43 3 -12 -9 -10 -10 8 -6 17 4
22 2 18 -8 -2 -7 4 -21 15 -31 11 -10 17 -24 14 -31 -2 -8 0 -11 5 -8 6 3 11
0 11 -7 1 -7 2 -20 3 -28 0 -8 13 -20 27 -27 15 -7 32 -26 39 -43 7 -16 16
-27 21 -24 5 3 9 -2 9 -11 0 -9 6 -23 14 -31 13 -12 15 -11 18 8 2 13 -4 29
-12 36 -8 8 -9 11 -3 7 16 -8 6 23 -15 47 -9 10 -13 29 -10 48 3 17 1 33 -4
36 -4 3 -8 0 -8 -5 0 -6 -7 -11 -15 -11 -9 0 -15 -7 -13 -16 2 -10 -3 -19 -9
-21 -7 -3 -13 3 -13 13 0 9 -8 23 -17 31 -17 13 -16 14 5 10 16 -4 22 -1 22
13 0 25 -15 33 -39 21 -14 -8 -22 -7 -32 6 -12 14 -11 15 8 9 25 -8 63 8 63
27 0 7 -3 8 -8 2 -4 -5 -17 -11 -29 -13 -17 -2 -23 2 -22 15 0 10 3 13 6 6 2
-7 9 -13 14 -13 4 0 6 7 3 15 -4 8 -1 15 6 15 6 0 8 -4 5 -10 -9 -14 8 -12 24
3 11 10 13 10 7 0 -4 -7 -2 -13 5 -13 7 0 9 -10 7 -25 -3 -14 -1 -25 3 -25 5
0 9 11 9 24 0 26 42 80 53 69 4 -3 7 -1 7 5 0 9 5 9 19 0 11 -7 19 -16 18 -21
-1 -5 4 -11 11 -12 7 -2 8 -1 2 2 -5 2 -8 9 -4 14 3 5 -2 12 -10 15 -9 3 -16
11 -16 17 0 5 8 3 18 -6 10 -10 25 -17 33 -17 8 0 10 -3 4 -8 -13 -9 -17 -32
-6 -32 5 0 11 6 13 12 3 9 10 8 22 -5 10 -9 26 -22 37 -27 10 -6 19 -16 19
-23 0 -8 -4 -7 -10 3 -7 12 -9 10 -8 -7 1 -11 7 -19 13 -17 6 3 19 -2 30 -11
20 -15 20 -15 0 -9 -12 4 -5 -5 15 -20 19 -15 35 -30 35 -34 0 -4 5 -6 12 -4
8 2 10 -3 7 -13 -3 -8 -10 -12 -15 -9 -12 7 -11 -10 1 -22 5 -5 6 -20 3 -34
-6 -22 -7 -23 -14 -4 -7 18 -8 18 -8 -3 -1 -12 -8 -23 -18 -25 -14 -3 -14 -5
2 -18 11 -9 16 -10 11 -2 -4 6 -3 12 3 12 5 0 17 7 25 16 11 11 16 12 16 3 0
-8 7 -5 19 7 14 15 15 20 4 24 -11 4 -10 10 6 27 17 18 18 23 6 40 -8 11 -11
24 -7 28 4 5 1 5 -6 1 -7 -4 -10 -12 -7 -17 4 -5 2 -9 -4 -9 -15 0 -23 18 -11
25 16 10 -8 35 -26 28 -20 -7 -7 -23 14 -17 14 5 14 4 3 -4 -10 -7 -21 -7 -35
0 -18 10 -18 11 -2 20 9 5 14 13 11 19 -8 13 26 -1 49 -20 11 -9 16 -11 13 -4
-11 18 9 25 23 8 10 -12 10 -18 -1 -32 -13 -15 -12 -15 9 -4 18 10 22 9 22 -3
0 -8 -6 -16 -12 -18 -7 -3 -2 -7 10 -10 24 -7 28 5 13 45 -9 24 -67 88 -74 81
-9 -10 3 59 13 71 14 16 85 33 117 27 12 -2 28 -10 34 -18z m-894 -95 c-9 -6
-15 -14 -12 -20 4 -5 -1 -9 -9 -9 -9 0 -16 4 -16 10 0 5 -7 7 -15 4 -8 -4 -12
-11 -8 -17 3 -6 1 -7 -5 -3 -7 4 -12 11 -12 16 0 10 47 28 75 29 18 0 19 0 2
-10z m728 -12 c10 -8 14 -17 8 -20 -5 -3 -17 3 -26 14 -19 22 -9 25 18 6z
m-586 -9 c9 3 11 0 6 -7 -4 -7 -13 -10 -21 -7 -17 7 -17 5 -1 -28 8 -14 18
-22 22 -18 4 4 0 -5 -10 -20 -9 -16 -14 -28 -11 -28 4 0 2 -9 -4 -20 -13 -24
2 -27 24 -4 9 8 20 12 26 9 6 -3 13 1 16 9 3 9 10 16 16 16 5 0 6 -4 3 -10 -6
-9 8 -15 29 -11 5 1 4 -5 -3 -13 -7 -9 -11 -23 -7 -31 3 -9 2 -14 -2 -11 -4 2
-12 -7 -19 -20 -7 -15 -8 -24 -1 -24 6 0 0 -8 -13 -19 -18 -14 -27 -16 -41 -8
-13 9 -21 8 -29 0 -9 -9 -6 -11 12 -7 21 4 22 4 4 -5 -11 -5 -47 -15 -80 -22
l-60 -12 35 -8 c75 -18 91 -19 110 -9 25 14 45 2 46 -27 0 -12 -3 -20 -8 -17
-4 3 -8 0 -8 -5 0 -6 6 -11 13 -11 7 -1 5 -6 -5 -14 -10 -7 -17 -15 -15 -17 1
-2 -4 2 -10 10 -8 9 -13 10 -13 4 0 -7 7 -19 16 -28 9 -9 14 -18 11 -21 -3 -3
-17 7 -31 21 -14 14 -26 22 -26 17 0 -4 4 -12 10 -18 6 -6 1 -10 -16 -12 -14
-1 -32 -9 -40 -17 -9 -8 -23 -15 -32 -14 -13 0 -13 2 3 9 12 4 26 14 32 22 10
11 6 14 -22 15 -42 1 -96 31 -112 64 -17 33 -16 90 3 128 15 30 14 53 -3 97
-4 12 -3 15 5 10 8 -5 10 -2 6 8 -3 9 -10 14 -14 11 -4 -3 -11 2 -14 10 -7 20
26 53 61 61 16 3 46 11 68 18 22 7 49 10 60 6 11 -4 26 -5 34 -2z m592 -106
c-6 -2 -9 -8 -5 -13 3 -5 0 -9 -5 -9 -15 0 -14 23 1 38 10 10 14 10 17 0 2 -6
-1 -14 -8 -16z m-813 -39 c14 -12 14 -13 -1 -13 -9 0 -20 0 -24 0 -7 0 -8 20
-3 58 2 11 4 8 7 -8 2 -14 12 -31 21 -37z m242 53 c0 -2 -7 -7 -16 -10 -8 -3
-12 -2 -9 4 6 10 25 14 25 6z m710 -31 c-7 -9 -15 -13 -18 -10 -3 2 1 11 8 20
7 9 15 13 18 10 3 -2 -1 -11 -8 -20z m-940 -54 c0 -6 -5 -13 -11 -16 -6 -4 -8
-14 -4 -24 5 -13 4 -14 -6 -3 -16 15 -33 16 -23 0 4 -6 8 -26 10 -44 1 -24 -2
-31 -15 -30 -36 2 -65 56 -30 56 10 0 18 3 18 8 -4 22 3 32 21 32 11 0 19 3
19 8 -3 14 1 22 11 22 6 0 10 -4 10 -9z m1097 -38 c-4 -3 0 -14 8 -23 14 -15
14 -18 1 -23 -9 -4 -16 3 -19 18 -4 23 0 35 11 35 3 0 2 -3 -1 -7z m-352 -33
c3 -5 1 -10 -4 -10 -6 0 -11 5 -11 10 0 6 2 10 4 10 3 0 8 -4 11 -10z m-505
-30 c0 -5 -2 -10 -4 -10 -3 0 -8 5 -11 10 -3 6 -1 10 4 10 6 0 11 -4 11 -10z
m-32 -12 c-2 -6 -16 -12 -31 -12 -29 -2 -24 9 8 17 11 3 22 5 23 6 2 0 2 -4 0
-11z m1060 -35 c1 -10 4 -35 6 -55 4 -26 1 -38 -7 -38 -8 0 -7 -4 3 -10 12 -8
12 -10 -3 -16 -9 -3 -14 -11 -10 -17 3 -5 1 -7 -5 -3 -7 4 -8 17 -2 38 5 17 7
46 4 64 -3 19 -2 38 1 44 9 14 10 13 13 -7z m-354 -11 c3 -5 -1 -9 -9 -9 -8 0
-15 4 -15 9 0 4 4 8 9 8 6 0 12 -4 15 -8z m-93 -55 c-13 -13 -26 -3 -16 12 3
6 11 8 17 5 6 -4 6 -10 -1 -17z m-547 -6 c3 -5 0 -11 -7 -14 -8 -3 -14 1 -14
9 0 16 13 19 21 5z m971 -8 c-4 -10 -10 -26 -12 -35 -3 -10 -9 -15 -14 -13
-10 7 10 65 23 65 6 0 7 -8 3 -17z m65 -69 c0 -2 -7 -4 -15 -4 -8 0 -15 4 -15
10 0 5 7 7 15 4 8 -4 15 -8 15 -10z m-235 -102 c-3 -3 -11 0 -18 7 -9 10 -8
11 6 5 10 -3 15 -9 12 -12z m-975 -312 c0 -5 -2 -10 -4 -10 -3 0 -8 5 -11 10
-3 6 -1 10 4 10 6 0 11 -4 11 -10z m-20 -23 c0 -7 -10 -13 -21 -14 -21 -2 -21
-1 -3 12 24 18 24 18 24 2z m-13 -33 c-3 -3 -12 -4 -19 -1 -8 3 -5 6 6 6 11 1
17 -2 13 -5z"/>
<path d="M1916 1906 c6 -15 4 -17 -6 -11 -9 6 -11 4 -5 -4 5 -9 10 -10 18 -2
8 8 7 14 -2 24 -10 10 -11 8 -5 -7z"/>
<path d="M2334 1905 c11 -8 23 -15 28 -15 4 0 8 -6 8 -14 0 -8 7 -17 16 -20
15 -6 15 -8 -2 -28 -19 -21 -19 -21 4 -9 17 9 22 9 22 0 0 -7 3 -9 6 -6 14 14
-66 107 -90 107 -6 0 -2 -7 8 -15z"/>
<path d="M2746 1526 c3 -9 13 -16 22 -16 8 0 13 1 11 3 -2 1 -12 9 -22 16 -15
12 -17 12 -11 -3z"/>
<path d="M2170 1475 c0 -8 6 -15 13 -15 9 0 9 -3 -1 -9 -10 -6 -5 -11 19 -20
l33 -11 -27 28 c-15 16 -24 31 -20 35 3 4 1 7 -5 7 -7 0 -12 -7 -12 -15z"/>
<path d="M2057 1343 c8 -37 16 -70 19 -72 11 -12 22 24 13 46 -5 14 -5 23 1
23 15 0 12 57 -2 57 -7 0 -20 4 -29 7 -14 6 -14 1 -2 -61z m20 15 c-3 -8 -6
-5 -6 6 -1 11 2 17 5 13 3 -3 4 -12 1 -19z"/>
<path d="M2053 1236 c-6 -8 -9 -17 -5 -22 4 -4 -1 -4 -10 -1 -10 4 -18 2 -18
-4 0 -6 9 -9 20 -6 11 3 20 1 20 -4 0 -12 42 -11 60 2 12 9 10 10 -9 5 -26 -5
-50 12 -43 32 5 15 0 15 -15 -2z"/>
<path d="M1841 1231 c-8 -6 -9 -11 -3 -15 6 -3 14 -1 17 5 9 14 2 20 -14 10z"/>
<path d="M1650 1561 c-22 -45 -28 -66 -21 -83 l8 -22 13 23 c10 19 10 22 -2
15 -11 -6 -11 -5 1 9 7 9 17 14 22 11 5 -3 9 7 10 23 0 15 3 40 5 56 7 42 -3
33 -36 -32z"/>
<path d="M1745 1320 c-4 -6 1 -7 11 -3 11 4 15 3 10 -5 -3 -6 -1 -14 5 -18 8
-4 9 -3 5 4 -4 7 -2 12 4 12 6 0 8 5 5 10 -8 13 -32 13 -40 0z"/>
<path d="M1480 1400 c-12 -8 -10 -10 8 -10 13 0 20 4 17 10 -7 12 -6 12 -25 0z"/>
<path d="M1493 1983 c9 -2 17 -8 16 -11 -1 -12 -56 -52 -76 -55 -43 -6 -122
-72 -80 -66 28 3 47 -2 45 -13 -4 -15 22 -18 39 -5 7 5 10 13 7 19 -3 5 -13 4
-22 -4 -12 -10 -14 -10 -8 0 4 7 4 12 -1 11 -20 -3 -30 2 -30 16 0 9 6 14 13
11 7 -3 18 2 25 10 8 10 15 11 24 4 6 -5 15 -7 18 -3 4 3 7 -1 7 -10 0 -9 -5
-17 -11 -17 -6 0 -8 -9 -4 -20 4 -11 2 -20 -4 -20 -6 0 -10 -6 -8 -12 2 -15
-1 -15 -61 -3 -24 4 -38 11 -32 15 6 4 -3 7 -19 8 -48 1 -36 -15 24 -33 43
-12 55 -20 55 -35 0 -12 -7 -20 -17 -21 -11 0 -13 -3 -5 -6 15 -6 16 -39 0
-49 -7 -5 -9 -2 -4 7 4 8 -6 -1 -23 -20 -33 -38 -47 -79 -32 -94 8 -8 11 -2
11 18 1 29 1 29 15 11 8 -11 15 -25 15 -30 0 -6 -5 -4 -10 4 -8 12 -10 11 -10
-6 0 -11 3 -24 7 -28 11 -10 12 -37 2 -30 -5 3 -9 11 -9 17 0 7 -9 13 -19 14
-19 2 -19 1 0 -18 10 -10 19 -22 19 -26 -1 -10 -66 -43 -85 -43 -8 0 -15 -4
-15 -10 0 -5 -7 -10 -15 -10 -8 0 -15 5 -15 11 0 5 4 8 9 5 5 -3 14 1 21 9 7
8 16 12 21 9 5 -3 9 0 9 6 0 7 6 10 14 7 8 -3 20 1 26 9 9 10 9 14 1 14 -22 0
-81 -29 -81 -39 0 -6 -5 -10 -12 -9 -6 2 -21 -11 -33 -29 -12 -18 -25 -29 -29
-26 -3 4 -6 -1 -6 -11 0 -9 5 -14 10 -11 6 3 10 0 10 -7 0 -7 5 -20 10 -28 9
-13 11 -13 20 0 5 8 10 10 10 4 0 -15 -58 -56 -64 -45 -3 5 -19 7 -36 5 -16
-2 -30 1 -30 6 0 6 -4 10 -9 10 -5 0 -8 -8 -7 -17 2 -10 7 -18 12 -18 5 0 15
-4 22 -9 7 -4 16 -5 19 -2 4 3 1 6 -5 6 -7 0 -12 4 -12 9 0 4 11 6 25 3 31 -5
33 -28 4 -35 -26 -7 -88 32 -82 51 6 15 -13 16 -23 1 -3 -6 -1 -16 5 -22 16
-16 13 -27 -6 -21 -10 2 -2 -3 17 -12 19 -10 52 -26 73 -36 20 -10 37 -14 37
-10 0 4 4 1 9 -6 7 -11 9 -11 14 2 6 15 -9 22 -36 17 -5 -1 -6 3 -3 8 4 5 0
12 -6 14 -8 3 -6 6 5 6 9 1 17 -3 17 -8 0 -5 11 -12 25 -15 14 -4 25 -11 25
-17 0 -6 -4 -7 -10 -4 -5 3 -10 1 -10 -4 0 -6 5 -11 10 -11 6 0 10 -7 10 -15
0 -17 -31 -20 -46 -5 -6 6 -10 2 -11 -12 -1 -13 -7 -24 -13 -26 -5 -2 -10 -13
-9 -25 0 -12 3 -16 6 -9 2 6 9 10 14 6 9 -5 13 9 10 34 -2 15 15 16 25 1 4 -8
9 -7 15 2 4 8 6 -1 5 -21 -5 -50 -17 -90 -27 -90 -5 0 -5 7 -2 17 4 11 3 14
-5 9 -8 -4 -12 0 -12 11 0 14 -2 15 -9 4 -7 -11 -9 -11 -13 0 -3 8 -9 11 -12
7 -4 -3 2 -16 13 -27 12 -12 21 -26 21 -31 0 -6 8 -10 18 -8 12 2 16 -3 14
-16 -3 -17 -1 -18 11 -7 12 9 17 9 23 0 5 -8 3 -9 -6 -4 -8 5 -11 4 -6 -3 4
-6 14 -8 23 -5 11 5 14 3 8 -6 -6 -10 -3 -11 16 -1 20 10 22 10 12 -1 -18 -18
-16 -34 2 -19 22 18 18 38 -7 42 -13 2 -23 8 -23 15 0 6 -3 15 -7 19 -9 9 -11
98 -2 107 10 9 57 -52 59 -77 2 -21 24 -30 36 -13 3 4 6 -5 6 -22 0 -35 22
-60 46 -52 10 4 18 11 17 15 -2 8 19 26 31 26 3 0 6 -7 6 -15 0 -8 -5 -15 -11
-15 -6 0 -4 -5 4 -10 12 -8 11 -10 -7 -10 -13 0 -23 -4 -23 -9 0 -5 -18 -8
-39 -8 -35 1 -38 2 -23 15 9 7 11 11 4 7 -6 -3 -15 1 -18 9 -3 9 -10 16 -14
16 -11 0 -9 -41 2 -57 5 -6 5 -14 1 -16 -15 -9 -115 0 -122 11 -4 6 -14 4 -28
-8 -12 -9 -19 -20 -16 -24 4 -3 1 -6 -5 -6 -7 0 -12 5 -12 11 0 5 -5 7 -12 3
-7 -4 -8 -3 -4 4 4 7 13 12 20 12 8 0 20 7 27 17 13 15 12 15 -11 3 -31 -17
-81 -21 -97 -8 -9 7 -13 7 -13 -1 0 -6 -8 -11 -18 -11 -10 0 -22 -4 -28 -9
-11 -12 -66 -2 -58 10 3 5 7 22 10 37 5 31 32 92 41 92 3 0 3 -7 0 -14 -4 -10
-1 -13 9 -9 11 4 12 9 5 16 -6 6 -11 35 -11 64 0 57 -16 103 -36 103 -12 0
-13 24 -1 36 4 4 -6 18 -21 30 -33 29 -48 31 -24 4 9 -12 17 -24 17 -28 0 -4
4 -13 8 -19 10 -16 -5 -17 -21 -1 -19 19 -27 0 -8 -21 18 -19 5 -24 -20 -9 -6
4 -11 1 -11 -7 0 -8 3 -15 7 -15 9 0 5 -30 -10 -65 -7 -16 -15 -43 -19 -59 -4
-16 -13 -32 -20 -34 -10 -3 -12 1 -8 17 3 11 1 24 -4 27 -5 3 -9 -2 -9 -10 0
-9 -3 -16 -7 -16 -5 0 -19 -9 -33 -20 -26 -20 -23 -21 29 -8 8 1 16 -4 18 -13
3 -12 -2 -15 -19 -12 -19 4 -26 -2 -37 -29 -8 -18 -14 -37 -15 -41 0 -4 -8
-12 -16 -17 -13 -8 -12 -10 3 -10 19 0 23 -15 6 -26 -6 -3 -15 0 -20 7 -6 10
-8 9 -8 -6 -1 -43 -5 -55 -18 -55 -16 0 -17 12 0 29 10 11 8 13 -12 8 -14 -4
-29 0 -38 9 -8 8 -18 12 -23 9 -9 -6 -22 23 -16 34 3 4 -4 8 -15 8 -12 1 -17
-3 -13 -9 4 -6 3 -8 -4 -5 -5 4 -8 17 -4 29 5 21 5 21 -15 2 -11 -10 -18 -23
-15 -29 3 -5 1 -7 -3 -2 -5 4 -10 18 -12 30 -2 17 -1 19 6 7 6 -8 13 -11 18
-7 4 4 1 17 -6 28 -7 12 -10 24 -7 27 3 3 6 0 6 -6 0 -7 7 -9 17 -5 13 5 9 9
-18 19 -19 7 -29 13 -22 13 17 1 4 31 -13 31 -8 0 -26 7 -39 16 -14 9 -25 12
-25 8 0 -12 20 -41 20 -31 0 5 12 -5 26 -22 20 -25 25 -38 21 -67 -6 -41 -20
-54 -48 -47 -22 6 -24 14 -7 31 7 7 9 12 5 12 -3 0 -16 -10 -27 -22 -16 -17
-19 -18 -15 -5 7 16 -8 23 -37 18 -4 0 -5 5 -2 13 3 7 -2 19 -11 26 -20 17
-19 39 4 93 22 52 53 77 94 77 20 0 38 10 60 35 17 19 34 35 38 35 5 0 19 -12
32 -26 16 -17 27 -22 31 -15 10 16 -3 53 -16 45 -7 -5 -8 -2 -3 6 5 9 2 10
-13 6 -12 -4 -23 -2 -28 5 -5 8 -2 10 8 6 10 -3 24 3 35 15 l18 21 -53 -6
c-63 -7 -83 -1 -75 21 4 9 2 14 -2 9 -5 -4 -17 1 -28 10 -11 10 -17 12 -13 6
4 -7 4 -13 -1 -13 -4 0 -13 12 -20 26 -10 21 -9 32 2 58 21 44 47 87 73 120
25 32 22 48 -3 22 -9 -9 -20 -16 -24 -16 -4 0 -16 -18 -26 -40 -10 -22 -21
-37 -26 -35 -4 3 -11 -5 -15 -17 -4 -13 -17 -33 -30 -45 -28 -26 -34 -53 -7
-32 9 8 14 10 11 4 -3 -5 4 -19 15 -30 11 -12 17 -14 13 -5 -4 8 -1 7 7 -3 8
-10 23 -17 33 -15 25 4 29 -19 5 -32 -13 -6 -21 -7 -21 -1 0 5 8 11 17 13 12
3 9 6 -10 10 -23 4 -27 2 -22 -11 3 -9 -5 -3 -18 13 -24 30 -48 29 -46 -2 0
-11 3 -12 6 -4 2 6 9 12 15 12 6 0 7 -7 4 -16 -3 -8 -2 -12 4 -9 6 3 10 -4 11
-17 0 -13 3 -17 6 -10 2 6 9 12 15 12 6 0 7 -7 4 -16 -5 -13 -3 -14 6 -7 18
13 118 16 118 3 0 -5 -7 -10 -16 -10 -8 0 -13 -4 -10 -9 13 -20 -27 -20 -43 1
-12 15 -20 18 -25 10 -4 -7 -1 -12 8 -12 9 0 13 -6 10 -14 -3 -8 2 -16 13 -19
16 -4 16 -5 -2 -6 -11 0 -26 8 -33 19 -16 26 -21 25 -57 -8 -17 -16 -36 -27
-44 -24 -10 3 -11 0 -2 -17 7 -11 14 -21 17 -21 3 0 2 5 -1 10 -3 6 -1 10 4
10 14 0 14 -27 1 -35 -9 -6 -40 44 -40 65 0 5 15 11 33 11 24 1 26 3 9 6 -13
3 -43 -2 -68 -11 -69 -23 -89 -8 -59 44 8 14 14 40 15 58 0 18 4 40 9 50 16
29 45 117 43 125 -1 5 2 6 7 3 5 -4 13 -1 18 6 4 7 20 19 34 27 15 7 44 28 65
47 50 43 93 58 172 58 l63 1 74 -80 c41 -44 78 -88 81 -98 4 -12 -3 -28 -16
-42 -16 -17 -21 -31 -16 -49 3 -14 1 -28 -6 -32 -7 -4 -8 -3 -4 4 4 7 1 12 -7
12 -7 0 -19 -11 -25 -25 -6 -14 -20 -25 -29 -24 -16 0 -15 2 2 9 18 8 18 9 2
9 -14 1 -17 6 -12 24 6 22 6 22 -10 2 -9 -11 -20 -19 -25 -18 -4 1 -6 -7 -3
-17 3 -11 10 -20 15 -20 5 0 6 -5 2 -11 -4 -7 -9 -8 -17 0 -7 7 -16 7 -28 0
-15 -7 -17 -6 -13 6 5 11 2 13 -10 9 -23 -9 -20 -23 7 -33 14 -5 25 -4 29 3 6
8 8 8 8 -1 0 -6 -7 -19 -16 -27 -8 -9 -12 -16 -8 -16 4 0 -1 -7 -12 -15 -15
-12 -16 -16 -6 -23 8 -5 13 -22 11 -38 -3 -35 29 -104 49 -104 11 0 9 8 -7 36
-12 19 -17 32 -11 29 5 -3 8 0 6 7 -3 7 -7 33 -10 58 -5 32 -3 41 4 30 8 -12
10 -11 10 6 0 23 29 54 51 54 12 0 11 2 -1 10 -13 9 -13 10 0 10 9 0 24 9 33
21 14 15 26 19 51 16 39 -5 69 13 55 34 -8 12 -10 12 -19 -1 -8 -12 -10 -11
-10 6 0 24 -26 40 -34 21 -2 -7 -5 -4 -5 6 -1 9 2 17 7 17 16 0 57 46 60 69 3
16 0 21 -9 16 -8 -6 -10 -4 -5 4 5 7 0 21 -10 32 -9 10 -14 19 -9 19 4 0 2 7
-5 15 -7 9 -19 14 -26 11 -7 -3 -11 2 -9 12 1 9 -2 23 -8 31 -6 7 -16 23 -22
35 -7 12 -19 20 -29 18 -10 -2 -16 0 -13 5 3 5 -17 8 -44 6 -27 -1 -49 3 -49
8 0 5 -11 9 -25 9 -15 0 -25 -6 -25 -14 0 -8 -4 -17 -8 -20 -5 -3 -9 2 -9 10
0 23 52 57 154 99 52 21 90 42 86 48 -3 5 0 7 8 5 8 -3 26 1 41 9 17 8 39 11
55 7 26 -7 27 -6 14 10 -13 16 -12 16 11 6 29 -14 98 1 118 25 7 8 19 15 26
15 8 0 14 5 14 10 0 13 -10 13 -60 -5 -23 -8 -53 -15 -66 -15 -39 0 -175 -50
-228 -84 -28 -18 -76 -44 -107 -58 -32 -14 -65 -39 -78 -57 -32 -44 -52 -53
-93 -39 -18 6 -36 15 -39 20 -3 5 -15 10 -27 11 -14 1 -18 5 -12 11 6 6 10 18
10 27 0 10 8 25 17 35 14 14 26 54 16 54 -9 0 -63 -55 -62 -64 0 -6 3 -5 6 2
2 7 14 17 26 23 19 11 19 9 -4 -18 -13 -17 -25 -26 -27 -21 -6 14 -22 9 -49
-16 -15 -15 -23 -30 -20 -40 4 -10 1 -13 -9 -9 -7 3 -14 0 -14 -6 0 -6 -7 -11
-15 -11 -8 0 -15 -4 -15 -9 0 -5 -24 -25 -54 -46 -55 -37 -86 -87 -86 -136 0
-11 -14 -38 -31 -59 -25 -31 -35 -57 -46 -122 -27 -158 -26 -188 15 -270 31
-61 44 -76 80 -95 36 -18 48 -20 68 -11 31 14 31 28 -1 28 -14 0 -33 4 -43 9
-26 14 -56 24 -65 22 -5 -1 -6 3 -3 8 4 5 2 12 -3 15 -15 10 -21 65 -9 91 15
33 22 32 33 -7 6 -17 16 -34 23 -36 10 -3 9 3 -3 22 -11 17 -15 36 -12 56 9
46 12 52 35 90 12 19 22 40 22 45 0 6 10 26 22 45 12 19 23 38 24 43 1 4 2 10
3 15 1 4 6 0 12 -8 8 -12 10 -12 8 5 -3 37 1 55 11 55 19 0 10 -62 -16 -121
-25 -55 -26 -60 -11 -83 20 -30 50 -41 76 -27 23 13 32 14 29 4 0 -5 2 -16 7
-26 6 -15 10 -16 16 -5 6 9 8 6 6 -9 0 -12 -5 -19 -10 -16 -4 2 -7 -8 -5 -24
3 -23 -1 -28 -20 -28 -13 0 -28 -8 -33 -18 -7 -12 -6 -16 3 -13 7 1 10 1 5 -1
-4 -3 -4 -10 0 -16 5 -8 2 -8 -9 0 -8 7 -19 9 -23 5 -5 -4 -5 -1 -1 6 4 6 2
12 -3 12 -6 0 -11 -6 -12 -12 0 -7 -5 -2 -11 12 -6 15 -12 20 -15 13 -6 -16
-29 5 -42 39 -8 20 -10 21 -16 6 -10 -26 32 -88 74 -107 33 -15 36 -20 37 -58
0 -33 9 -52 38 -88 21 -25 42 -43 47 -39 6 3 16 0 24 -6 10 -8 19 -9 28 -3 6
5 22 10 34 11 20 1 21 -2 10 -18 -6 -11 -18 -22 -27 -25 -12 -5 -13 -4 -2 6
15 16 16 29 1 29 -5 0 -8 -4 -4 -9 3 -5 0 -13 -6 -17 -9 -5 -7 -11 6 -21 11
-7 15 -13 9 -13 -14 0 -30 13 -37 30 -4 11 -6 10 -6 -4 -1 -15 -4 -16 -16 -6
-8 7 -22 9 -31 6 -14 -5 -15 -4 -5 8 9 11 8 15 -6 19 -10 2 -27 8 -38 12 -20
8 -20 8 0 -9 20 -17 20 -17 -3 -6 -12 6 -22 17 -22 25 0 9 -20 18 -57 25 -32
6 -73 15 -90 20 -31 8 -47 -2 -20 -13 15 -6 22 -77 7 -77 -5 0 -10 1 -10 3 0
1 -14 40 -30 87 -17 47 -30 103 -30 125 0 27 -3 36 -9 26 -7 -11 -10 -9 -13
10 -2 13 -4 -6 -3 -43 0 -36 3 -69 6 -73 4 -3 5 7 3 22 l-4 28 10 -30 c5 -16
7 -41 5 -55 -4 -21 -4 -22 3 -5 7 16 11 10 21 -33 7 -29 22 -58 32 -66 10 -7
16 -16 12 -19 -3 -4 -1 -7 5 -7 7 0 12 4 12 8 0 16 33 9 37 -8 4 -13 13 -15
56 -9 29 4 62 10 74 14 18 6 21 4 16 -14 -4 -16 -1 -21 13 -20 11 0 14 3 7 6
-7 2 -13 8 -13 12 0 14 143 -1 175 -17 35 -19 36 -19 76 -21 19 -1 28 -5 23
-12 -3 -6 -17 -8 -30 -5 -14 4 -24 2 -24 -4 0 -6 -4 -8 -10 -5 -5 3 -10 1 -10
-4 0 -18 66 -12 83 7 23 26 8 41 -40 38 -30 -2 -40 1 -36 11 3 7 9 10 14 7 5
-3 19 4 31 16 19 18 20 22 8 30 -8 5 -19 10 -25 10 -5 -1 -2 -5 8 -11 18 -10
18 -11 0 -24 -9 -7 -25 -11 -35 -10 -10 2 -18 0 -18 -6 0 -5 -4 -9 -10 -9 -5
0 -7 7 -4 15 4 11 2 13 -9 9 -8 -3 -18 0 -23 7 -4 7 -3 10 4 5 6 -3 12 3 14
15 2 17 14 25 50 34 26 6 50 10 53 7 3 -3 5 2 5 11 0 21 32 26 48 7 11 -13 12
-12 6 9 -4 16 -3 21 5 17 19 -12 8 18 -12 33 -15 11 -21 11 -30 1 -9 -10 -9
-11 1 -6 6 4 12 2 12 -4 0 -6 5 -8 10 -5 5 3 10 2 10 -3 0 -14 -28 -23 -35
-12 -4 6 -12 10 -18 10 -7 0 -6 -4 3 -10 12 -7 10 -11 -10 -18 -17 -7 -30 -6
-39 2 -11 8 -13 8 -8 0 4 -7 0 -17 -7 -23 -8 -7 -17 -8 -20 -3 -5 8 -56 9 -81
2 -5 -1 -25 3 -42 11 -23 9 -33 20 -33 35 0 17 5 20 24 17 15 -3 23 -11 22
-21 -3 -18 15 -42 26 -35 5 2 8 9 8 14 0 6 -4 8 -9 5 -5 -3 -12 1 -15 10 -5
12 -2 15 10 10 8 -3 22 -6 30 -6 9 0 12 -4 9 -10 -10 -16 12 -11 30 6 18 18
12 32 -7 17 -15 -11 -39 -6 -85 20 -32 17 -33 17 -45 -2 -11 -19 -13 -18 -30
10 -22 36 -22 40 -1 32 10 -4 14 -2 10 4 -4 6 -1 14 5 17 7 3 4 4 -7 3 -25 -3
-27 31 -3 47 13 8 22 5 42 -13 13 -13 29 -20 34 -17 6 3 13 -1 16 -9 11 -28
79 -47 122 -33 12 4 27 1 33 -5 9 -9 11 -7 6 8 -6 19 -6 19 8 3 8 -10 19 -18
24 -18 6 0 16 -7 23 -15 7 -9 15 -13 18 -11 2 3 13 1 24 -5 16 -8 17 -13 7
-25 -10 -12 -9 -13 7 -7 16 6 17 5 6 -9 -9 -11 -10 -18 -2 -23 10 -6 11 -5 14
14 2 19 16 23 22 7 3 -9 11 -16 16 -16 7 0 6 5 -1 14 -9 10 -8 15 3 19 8 3 16
1 19 -6 2 -6 6 -3 10 7 4 9 3 15 -2 12 -5 -3 -14 0 -20 8 -9 11 -7 14 12 14
19 0 23 -6 23 -29 0 -17 -5 -29 -13 -29 -7 0 -13 -8 -12 -17 0 -11 3 -13 6 -5
2 6 12 12 20 12 13 0 13 -2 2 -17 -13 -15 -12 -15 9 -2 12 8 22 17 22 20 0 4
6 9 14 12 11 5 11 0 -2 -23 -9 -16 -19 -27 -22 -25 -3 2 -12 0 -20 -5 -9 -6
-24 -1 -43 12 l-30 21 -18 -22 c-10 -12 -23 -20 -29 -16 -5 3 -7 0 -4 -8 4
-10 -2 -14 -20 -12 -14 2 -29 6 -34 9 -5 3 -9 -2 -9 -10 0 -8 6 -13 14 -10 7
3 13 -1 13 -11 0 -12 3 -13 13 -4 10 8 14 7 14 -4 0 -8 -9 -15 -19 -15 -22 0
-23 -10 -2 -36 10 -13 17 -15 20 -7 3 7 12 9 20 6 8 -3 14 0 14 6 0 6 -3 10
-7 8 -9 -2 -13 6 -13 26 0 8 9 13 20 12 24 -2 40 -15 18 -15 -11 0 -14 -6 -11
-20 7 -26 16 -25 39 3 10 12 12 16 4 10 -19 -17 -35 -17 -21 0 6 8 8 17 4 20
-9 9 20 8 32 -1 12 -9 16 -44 4 -36 -5 3 -9 1 -9 -4 0 -6 -17 -15 -37 -21 -36
-10 -36 -10 -5 -6 l33 5 -5 -40 c-3 -23 1 -54 9 -73 8 -17 15 -25 15 -17 0 12
3 11 11 -3 6 -9 15 -14 21 -11 8 5 9 1 5 -10 -4 -10 1 -24 13 -36 11 -11 16
-20 11 -20 -5 0 -21 15 -35 33 -31 38 -35 28 -5 -14 11 -16 27 -29 35 -29 8 0
25 -11 37 -24 23 -25 46 -34 105 -40 19 -2 39 -9 45 -15 6 -6 22 -11 37 -10
23 1 22 2 -7 10 -18 5 -33 12 -33 14 0 8 53 -6 65 -16 11 -10 79 -12 88 -2 4
3 -1 13 -11 21 -15 12 -14 12 8 0 21 -13 32 -13 65 -3 22 7 32 13 23 14 -9 1
-28 -3 -43 -9 -14 -5 -24 -6 -21 -1 9 13 97 32 124 26 59 -13 68 -14 84 -9 20
6 25 25 6 21 -7 -1 -12 6 -12 16 1 9 -3 17 -8 17 -6 0 -8 -11 -6 -25 5 -26 -9
-35 -18 -12 -4 10 -21 11 -82 4 -42 -5 -82 -13 -89 -18 -6 -6 -23 -7 -39 -3
-17 4 -25 3 -21 -3 10 -17 -87 -15 -109 2 -12 9 -14 14 -6 15 7 0 30 8 50 18
37 18 50 18 155 6 32 -4 53 -2 63 7 10 8 18 9 22 3 8 -12 27 -12 39 -1 4 5 3
8 -2 7 -22 -5 -34 1 -29 14 3 8 21 14 44 14 21 0 49 6 62 13 13 8 26 12 31 11
4 -1 7 3 7 9 0 5 5 7 10 4 6 -4 9 -1 8 5 -2 7 12 14 32 17 63 10 83 8 88 -6 3
-10 0 -12 -13 -7 -10 3 -24 1 -31 -5 -11 -9 -14 -8 -14 1 0 16 -15 3 -15 -13
0 -7 -8 -11 -18 -11 -9 1 -17 -4 -17 -12 0 -8 -5 -14 -11 -14 -5 0 -7 -5 -4
-10 3 -5 -1 -10 -9 -10 -10 0 -13 6 -9 16 5 14 3 14 -18 2 -13 -7 -26 -14 -28
-15 -1 -1 4 -12 13 -24 13 -20 16 -20 22 -6 3 9 10 15 15 12 4 -3 16 6 25 20
12 18 19 23 25 14 4 -8 -5 -21 -27 -35 -70 -48 -94 -56 -148 -50 -35 4 -45 3
-31 -3 27 -13 102 -13 110 -1 4 6 10 8 14 5 7 -4 20 4 68 45 8 6 14 6 18 0 3
-6 14 -10 23 -10 15 1 15 2 1 10 -11 6 -14 19 -11 40 2 16 7 30 11 31 3 0 14
2 24 4 9 2 17 -1 17 -6 0 -5 -7 -9 -15 -9 -8 0 -12 -6 -9 -14 3 -8 0 -17 -6
-21 -17 -11 37 -35 88 -39 23 -2 52 -12 62 -21 15 -13 20 -15 20 -5 0 11 3 11
12 2 17 -17 39 -15 31 3 -3 9 -8 13 -11 11 -6 -7 -32 13 -32 25 0 4 10 19 23
32 22 24 45 25 59 3 5 -7 8 -4 8 7 0 10 5 15 10 12 6 -4 8 -11 5 -16 -4 -5 18
-6 54 -3 54 6 60 5 59 -12 0 -11 3 -27 7 -36 5 -13 3 -18 -9 -18 -16 0 -19 8
-17 45 1 20 1 20 -8 0 -9 -21 3 -55 19 -55 6 0 9 -5 8 -11 -2 -6 2 -13 9 -16
7 -3 9 3 6 18 l-6 22 25 -19 c14 -10 23 -23 20 -28 -3 -5 0 -6 6 -2 7 4 12 2
12 -4 0 -6 4 -9 9 -6 5 3 15 -1 22 -10 10 -12 10 -17 0 -23 -7 -5 -12 -11 -11
-15 0 -3 -4 -14 -9 -24 -8 -12 -10 -13 -11 -3 0 8 -3 12 -6 8 -3 -3 -3 -10 0
-16 10 -16 34 -2 40 25 7 26 20 31 32 12 5 -7 2 -8 -7 -3 -11 6 -12 5 -1 -6 9
-10 15 -10 24 -1 9 9 15 7 25 -6 13 -15 13 -15 4 4 -6 12 -7 24 -3 28 3 4 -1
4 -11 0 -17 -6 -74 23 -64 33 3 2 18 -4 33 -14 16 -10 25 -12 21 -5 -11 16 11
15 43 -3 19 -11 21 -14 8 -15 -10 0 -18 -4 -18 -10 0 -6 11 -5 27 3 21 9 27 9
31 -1 2 -6 13 -12 25 -12 12 0 39 -9 60 -20 20 -11 37 -16 37 -12 0 4 10 9 22
9 13 1 24 7 26 13 2 5 8 8 12 5 5 -3 12 0 16 6 7 12 7 12 -63 -9 -20 -7 -33
-7 -33 -1 0 5 -10 9 -23 9 -16 0 -23 6 -23 20 0 18 1 18 20 2 11 -9 16 -11 12
-4 -4 6 -2 12 3 12 6 0 11 -4 11 -8 0 -4 9 -8 20 -8 23 0 22 18 -1 22 -104 16
-294 96 -285 119 3 8 1 17 -4 20 -6 4 -10 11 -10 16 0 5 10 0 22 -11 18 -17
25 -18 33 -8 16 21 89 73 98 70 5 -1 6 2 2 7 -7 12 71 71 94 71 9 0 39 11 66
24 28 13 78 26 110 30 75 9 153 28 138 33 -7 3 -9 11 -6 20 4 11 2 14 -5 9 -7
-4 -12 -14 -12 -22 0 -12 -4 -13 -21 -3 -12 6 -19 7 -15 1 3 -5 -4 -12 -16
-15 -13 -4 -26 -1 -30 6 -6 9 -8 9 -8 -1 0 -8 -9 -13 -22 -11 -13 1 -31 -1
-40 -5 -10 -5 -23 -6 -30 -4 -7 3 -17 -1 -23 -7 -5 -7 -44 -25 -85 -41 -54
-21 -89 -43 -126 -79 -74 -71 -79 -74 -95 -64 -12 7 -12 9 1 9 8 0 42 27 75
60 57 57 152 109 169 93 3 -4 6 -1 6 6 0 7 4 10 8 7 13 -8 53 24 46 36 -4 5
-9 6 -13 2 -13 -18 -81 -46 -96 -40 -9 3 -14 2 -11 -3 3 -5 -8 -14 -25 -21
-17 -7 -59 -39 -95 -71 -35 -33 -72 -59 -82 -59 -10 0 -23 -5 -29 -11 -6 -6
-17 -8 -24 -3 -17 10 -79 14 -79 4 0 -4 -10 -10 -22 -13 -26 -7 -51 10 -44 29
3 7 1 16 -4 19 -13 8 -13 25 1 25 5 0 8 -3 5 -8 -2 -4 13 -7 34 -5 30 1 40 -3
49 -20 l12 -22 -5 22 c-2 14 0 20 9 17 7 -3 16 -1 19 4 7 11 -42 35 -55 26 -5
-3 -27 -6 -49 -6 -22 0 -40 -5 -40 -10 0 -5 -4 -7 -10 -3 -5 3 -17 1 -27 -4
-10 -5 -26 -12 -35 -15 -19 -6 -25 -46 -7 -46 6 0 8 7 5 15 -6 17 2 22 47 29
15 3 25 1 22 -4 -3 -4 1 -10 7 -13 7 -2 10 -7 7 -11 -3 -4 -18 -2 -33 4 -15 5
-25 6 -22 1 8 -13 -21 -34 -39 -27 -18 7 -20 -5 -2 -23 10 -11 10 -13 0 -7
-17 9 -17 -16 -1 -32 8 -8 8 -12 1 -12 -12 0 -28 29 -24 45 1 5 -6 2 -16 -7
-13 -12 -23 -14 -36 -7 -9 6 -17 7 -17 3 0 -4 -10 1 -22 12 -19 15 -20 16 -9
2 8 -11 9 -18 3 -18 -18 0 -24 20 -11 36 10 13 14 12 31 -3 18 -16 19 -16 12
1 -5 14 -3 17 12 14 10 -2 18 -11 18 -21 -1 -9 3 -14 8 -11 5 3 7 12 4 19 -2
7 4 15 15 18 10 3 19 12 19 21 0 12 -10 16 -43 16 -32 0 -45 5 -55 21 -12 19
-20 20 -95 15 l-82 -6 44 20 c35 16 46 18 54 8 6 -10 8 -9 4 3 -3 9 -2 20 3
25 13 13 -3 77 -20 82 -10 2 -11 0 -4 -5 12 -10 14 -64 1 -56 -8 5 -49 -32
-42 -38 6 -7 -70 -2 -87 6 -12 5 -20 2 -24 -9 -3 -9 -10 -16 -15 -16 -6 0 -6
7 0 18 7 14 6 18 -10 18 -10 0 -18 -5 -18 -11 3 -22 -2 -35 -12 -35 -5 0 -7 5
-3 12 5 8 2 9 -10 5 -17 -7 -49 15 -41 27 3 3 -5 -3 -17 -14 -32 -29 -25 -32
75 -39 5 -1 5 -6 2 -11 -4 -6 -11 -8 -16 -4 -6 3 -3 -10 5 -29 12 -31 12 -35
0 -30 -10 4 -12 0 -8 -11 5 -12 2 -15 -10 -10 -9 3 -16 1 -16 -5 0 -17 -50
-13 -57 5 -3 9 -8 11 -12 6 -4 -7 -15 -5 -31 5 -14 8 -17 12 -8 9 20 -6 34 10
16 17 -8 3 -6 6 5 6 9 1 17 -4 17 -9 0 -6 11 -8 25 -4 15 4 32 1 43 -7 15 -12
16 -11 2 4 -19 21 -123 30 -167 14 -23 -8 -33 -17 -32 -32 0 -19 1 -19 16 2
19 28 53 31 52 6 0 -11 -3 -13 -6 -5 -2 6 -11 12 -19 12 -7 0 -11 -6 -8 -14 9
-24 -33 -26 -50 -2 -13 18 -15 18 -9 2 4 -12 3 -17 -4 -13 -6 4 -14 -4 -17
-19 -5 -20 -12 -25 -26 -21 -11 3 -22 1 -25 -3 -3 -5 7 -11 22 -13 16 -2 6 -4
-22 -5 -32 0 -43 2 -31 7 18 7 18 8 2 14 -24 10 -28 9 -20 -4 4 -7 1 -10 -6
-7 -7 2 -15 15 -17 29 -2 17 -1 20 6 10 8 -12 12 -12 25 -2 23 19 10 31 -24
24 -38 -7 -61 2 -54 22 3 8 11 12 17 8 6 -3 7 -1 3 6 -4 6 -12 9 -17 6 -5 -4
-12 1 -15 10 -4 9 -13 14 -20 11 -8 -3 -11 0 -8 8 3 7 -2 20 -10 29 -32 31
-17 90 39 164 20 26 33 53 31 60 -3 7 0 12 7 10 7 -1 11 6 11 15 -1 10 2 16 6
13 11 -7 51 40 43 50 -5 4 -2 5 4 1 7 -4 23 0 35 8 15 11 18 16 8 17 -8 0 10
9 40 20 53 19 59 19 162 4 58 -8 113 -18 121 -21 22 -8 96 14 112 34 8 9 22
27 32 39 10 12 30 25 44 28 26 7 27 6 18 -37 -11 -58 -11 -78 1 -78 6 0 10 16
10 35 0 48 22 97 51 117 23 14 28 14 73 -8 56 -27 69 -37 42 -32 -10 2 -24 -6
-33 -19 -13 -19 -12 -24 7 -43 11 -11 18 -25 15 -31 -4 -5 -3 -9 2 -8 4 1 19
-3 33 -9 24 -10 24 -11 3 -11 -12 -1 -24 -5 -27 -10 -4 -5 2 -8 11 -6 10 1 24
-2 31 -8 10 -8 19 -4 37 15 22 24 23 38 3 38 -5 0 -7 -4 -4 -9 3 -4 -4 -17
-16 -27 -21 -19 -21 -19 -9 4 13 25 7 42 -14 42 -20 0 -29 43 -16 68 14 26 14
45 1 37 -5 -3 -10 -2 -10 2 0 5 -8 9 -17 10 -40 3 -74 23 -71 41 2 9 8 17 13
18 6 0 30 10 54 22 52 24 61 49 24 63 -20 7 -30 6 -46 -8 -19 -18 -20 -17 -8
4 15 30 13 42 -3 20 -13 -17 -14 -17 -20 0 -7 17 -8 17 -17 0 -6 -9 -16 -14
-22 -11 -7 4 -9 4 -5 -1 8 -9 -51 -81 -64 -78 -4 2 -5 -4 -2 -12 4 -8 10 -15
16 -15 5 0 7 4 3 9 -3 5 -1 12 5 16 5 3 10 -2 11 -12 0 -15 2 -15 9 3 12 30
40 39 40 14 0 -11 -6 -19 -12 -17 -7 1 -12 -4 -11 -10 2 -8 -7 -13 -21 -13
-20 0 -56 -27 -48 -37 1 -1 2 -6 2 -10 0 -5 -6 1 -12 11 -8 15 -7 21 6 28 13
7 14 13 4 31 -13 24 -19 119 -7 111 4 -2 12 10 18 26 5 17 9 30 8 31 -17 7
-57 8 -53 1 3 -6 -1 -13 -10 -16 -12 -5 -15 -2 -10 11 4 10 4 14 0 11 -3 -4
-23 2 -42 13 -59 31 -58 22 3 -34 56 -51 59 -56 61 -107 1 -29 8 -56 14 -60 9
-5 9 -9 1 -14 -6 -4 -11 -3 -11 2 0 5 -13 7 -30 4 -16 -2 -28 -7 -26 -11 3 -4
1 -13 -4 -21 -7 -12 -12 -12 -22 -2 -9 9 -8 12 6 12 16 0 17 2 5 17 -10 11
-10 14 -1 9 7 -4 12 -2 12 5 0 7 3 9 7 6 3 -4 12 -2 20 4 10 9 13 8 13 -1 0
-8 3 -11 6 -7 10 10 -7 28 -19 20 -6 -4 -22 -8 -35 -9 -18 -2 -21 0 -13 10 11
14 5 26 -13 26 -6 0 -4 -5 4 -10 10 -7 11 -10 2 -10 -7 0 -15 7 -18 15 -4 8
-10 15 -16 15 -5 0 -6 -5 -2 -12 4 -7 3 -8 -5 -4 -9 6 -9 11 0 22 9 11 9 14 0
14 -7 0 -9 5 -5 12 4 7 3 8 -5 4 -6 -4 -8 -12 -5 -18 5 -7 2 -8 -5 -4 -7 5
-10 15 -7 23 3 8 2 12 -3 9 -4 -3 -8 8 -9 24 0 15 -8 43 -18 62 -18 35 -20
110 -4 153 7 18 6 25 -3 25 -23 1 28 31 71 42 54 13 72 39 72 104 0 43 5 58
35 97 30 39 35 54 35 97 0 45 5 57 35 93 19 22 36 48 36 56 1 9 2 23 3 31 3
27 -14 50 -37 49 -17 -1 -18 -2 -4 -6z m24 -37 c-10 -8 -20 -23 -22 -33 -2
-10 -4 -20 -4 -22 -1 -2 -7 2 -14 8 -8 6 -16 10 -18 8 -3 -1 9 10 26 25 16 15
35 27 40 27 6 0 2 -6 -8 -13z m-540 -122 c-3 -3 -12 -4 -19 -1 -8 3 -5 6 6 6
11 1 17 -2 13 -5z m469 -46 c-1 -7 -5 -19 -9 -25 -5 -7 -5 -17 -2 -23 3 -5 2
-17 -2 -25 -7 -11 -9 -5 -10 20 -1 19 3 35 8 35 4 0 6 7 3 15 -4 8 -2 15 4 15
6 0 9 -6 8 -12z m-60 -112 c-7 -6 -16 -18 -18 -26 -2 -7 -7 -10 -10 -5 -10 18
10 55 27 49 13 -5 14 -8 1 -18z m-1026 -12 c0 -9 9 -18 20 -21 20 -5 28 -23
11 -23 -5 0 -29 -16 -53 -36 -23 -20 -58 -43 -77 -51 -18 -8 -31 -16 -29 -19
11 -10 157 67 166 89 2 4 13 7 25 6 21 0 21 -1 2 -9 -19 -8 -18 -9 4 -9 l24
-1 -22 -24 c-13 -14 -37 -30 -54 -37 -18 -7 -48 -24 -67 -38 -59 -44 -78 -51
-106 -41 -40 16 -46 12 -22 -14 20 -22 28 -24 65 -17 30 6 40 5 37 -4 -3 -7
-18 -10 -37 -7 -28 4 -30 3 -19 -10 10 -13 9 -18 -4 -28 -8 -8 -23 -29 -33
-49 l-18 -35 -17 31 c-8 17 -19 56 -22 86 -6 52 -5 56 30 94 19 22 32 43 28
47 -4 4 -2 6 3 4 14 -4 75 43 69 53 -3 5 2 6 10 3 10 -4 23 8 40 35 27 42 46
53 46 25z m394 -32 c2 -4 -7 -8 -22 -9 -24 -2 -24 -1 -7 7 11 5 21 9 22 9 1 1
4 -3 7 -7z m31 -60 c-3 -3 -11 0 -18 7 -9 10 -8 11 6 5 10 -3 15 -9 12 -12z
m-605 -35 c0 -2 -12 -14 -27 -28 l-28 -24 24 28 c23 25 31 32 31 24z m646 -9
c4 -7 3 -8 -5 -4 -6 4 -14 1 -17 -8 -5 -12 -9 -13 -19 -3 -10 10 -9 13 9 19
11 3 22 6 23 7 1 1 5 -4 9 -11z m2 -53 c-3 -3 -9 2 -12 12 -6 14 -5 15 5 6 7
-7 10 -15 7 -18z m397 -25 c3 -5 1 -10 -4 -10 -6 0 -11 -10 -12 -22 0 -22 -1
-22 -8 -3 -5 11 -4 22 0 23 5 2 7 8 3 13 -3 5 -1 9 5 9 5 0 13 -4 16 -10z
m-1108 -22 c-3 -8 -6 -5 -6 6 -1 11 2 17 5 13 3 -3 4 -12 1 -19z m148 12 c-3
-5 -11 -10 -16 -10 -6 0 -7 5 -4 10 3 6 11 10 16 10 6 0 7 -4 4 -10z m-148
-42 c-2 -7 0 -21 4 -30 7 -12 3 -21 -12 -31 -22 -16 -10 -33 16 -24 8 4 18 -5
25 -23 10 -23 9 -33 -4 -52 -9 -14 -13 -28 -9 -33 5 -4 2 -5 -4 -1 -12 6 -15
0 -12 -20 0 -4 -3 -10 -8 -13 -5 -3 -14 -17 -21 -31 -7 -14 -23 -40 -37 -58
-13 -18 -21 -40 -18 -48 3 -8 1 -14 -4 -14 -15 0 -14 72 2 125 8 28 15 67 15
88 0 21 7 54 15 73 8 20 12 40 9 45 -3 5 0 8 7 7 7 -2 14 2 14 7 2 15 17 45
22 45 3 0 3 -6 0 -12z m1123 2 c0 -5 -5 -10 -11 -10 -5 0 -7 5 -4 10 3 6 8 10
11 10 2 0 4 -4 4 -10z m-55 -81 c-4 -6 0 -9 11 -7 12 2 18 -2 16 -11 -1 -7 3
-19 9 -27 14 -17 8 -18 -22 -1 -21 11 -25 20 -20 50 0 4 4 7 7 7 3 0 2 -5 -1
-11z m50 -116 l-8 -28 -7 25 c-3 14 -3 27 2 28 4 2 5 9 2 15 -5 9 -4 9 6 0 8
-8 10 -21 5 -40z m-275 17 c0 -5 -6 -10 -13 -10 -7 0 -22 -7 -33 -16 -18 -15
-18 -15 0 -10 15 5 17 4 7 -8 -16 -19 2 -30 37 -22 26 6 26 6 7 -9 -11 -9 -25
-13 -32 -11 -12 5 -18 -18 -14 -51 1 -7 -4 -13 -10 -13 -7 0 -10 -3 -6 -6 11
-11 47 7 47 24 0 15 -2 15 -10 2 -9 -13 -10 -13 -10 0 0 8 10 21 23 29 15 9
18 9 10 1 -6 -7 -9 -18 -6 -26 2 -7 -2 -23 -10 -35 -9 -12 -13 -29 -10 -38 4
-12 3 -13 -4 -3 -8 10 -12 10 -22 -1 -9 -12 -9 -18 2 -29 8 -7 11 -20 8 -28
-8 -19 -61 -26 -61 -9 0 10 -3 10 -12 1 -15 -15 -38 -16 -38 -2 0 6 6 10 14
10 7 0 19 7 26 15 10 13 10 19 -4 33 -17 20 -12 34 9 26 8 -4 11 2 8 18 -2 13
3 44 12 68 9 25 18 54 19 65 2 11 4 24 5 28 0 5 5 6 10 2 5 -3 12 -1 16 5 8
13 35 13 35 0z m497 -12 c-3 -8 -6 -5 -6 6 -1 11 2 17 5 13 3 -3 4 -12 1 -19z
m-1022 2 c-3 -5 -1 -10 4 -10 6 0 11 -5 11 -11 0 -8 -4 -8 -14 0 -11 9 -15 9
-19 -1 -4 -9 -6 -7 -6 4 -1 14 8 22 27 27 2 1 0 -3 -3 -9z m535 -14 c0 -3 -4
-8 -10 -11 -5 -3 -10 -1 -10 4 0 6 5 11 10 11 6 0 10 -2 10 -4z m-680 -36 c0
-5 -7 -7 -15 -4 -8 4 -15 8 -15 10 0 2 7 4 15 4 8 0 15 -4 15 -10z m1273 -24
c-21 -28 -53 -50 -53 -37 0 8 59 61 68 61 2 0 -5 -11 -15 -24z m87 10 c0 -2
-7 -7 -16 -10 -8 -3 -12 -2 -9 4 6 10 25 14 25 6z m-62 -36 c-2 -6 -8 -6 -18
0 -13 9 -13 11 0 20 15 10 25 0 18 -20z m63 4 c-19 -8 -41 -19 -48 -26 -7 -6
-13 -8 -13 -4 0 10 63 46 80 46 8 -1 0 -7 -19 -16z m-838 -130 c-17 -13 -17
-14 2 -8 20 7 20 7 0 -9 -11 -9 -22 -11 -23 -6 -2 5 -8 6 -14 3 -6 -4 -5 -9 3
-14 9 -6 10 -13 3 -22 -13 -17 -12 -40 2 -45 13 -4 46 25 40 36 -3 4 16 8 41
9 42 2 44 0 32 -16 -12 -15 -12 -16 2 -5 9 7 20 9 24 5 5 -4 5 -1 1 6 -4 6 -2
12 3 12 20 0 11 -30 -11 -41 -47 -21 -64 -35 -60 -47 2 -6 0 -12 -5 -13 -4 0
-18 -2 -31 -3 -28 -3 -52 22 -33 33 9 6 4 10 -14 15 -20 5 -25 10 -17 18 6 6
7 21 2 39 -5 17 -5 29 1 29 5 0 9 7 9 16 0 8 5 12 10 9 6 -3 10 0 10 8 0 10 7
13 20 10 19 -5 20 -6 3 -19z m550 -25 c-6 -6 -9 -18 -5 -27 4 -11 1 -14 -12
-9 -9 4 -15 3 -12 -1 2 -4 -15 -8 -40 -8 -24 0 -44 4 -44 9 0 5 8 6 18 3 9 -3
35 5 57 19 44 27 55 31 38 14z m276 -10 c-16 -10 -23 -4 -14 10 3 6 11 8 17 5
6 -4 5 -9 -3 -15z m-832 -29 c-4 -27 -17 -38 -17 -13 0 18 8 33 17 33 1 0 2
-9 0 -20z m388 10 c3 -5 -1 -10 -10 -10 -9 0 -13 5 -10 10 3 6 8 10 10 10 2 0
7 -4 10 -10z m40 -9 c3 -5 1 -12 -4 -15 -5 -3 -11 1 -15 9 -6 16 9 21 19 6z
m-1097 -123 c-2 -6 27 -20 65 -32 71 -22 85 -33 40 -30 -16 0 -38 -6 -50 -14
-20 -13 -23 -13 -23 1 0 9 8 18 18 20 9 3 0 4 -20 2 -31 -2 -38 1 -38 16 0 9
-3 24 -6 33 -3 9 -1 16 5 16 6 0 10 -5 9 -12z m596 -49 c-5 -9 -44 1 -44 10 0
4 3 10 6 14 8 8 44 -15 38 -24z m-21 -14 c31 -13 36 -13 41 0 6 16 46 21 46 6
0 -5 -10 -13 -22 -18 -29 -10 -88 -10 -88 -1 0 4 -7 5 -15 2 -15 -6 -21 7 -8
19 8 9 5 9 46 -8z m-78 -65 c3 -5 2 -10 -4 -10 -5 0 -13 5 -16 10 -3 6 -2 10
4 10 5 0 13 -4 16 -10z m719 -113 c16 -12 16 -13 -3 -13 -11 0 -23 6 -25 13
-7 17 5 17 28 0z m51 -37 l30 -7 -28 -11 c-36 -15 -60 -15 -75 0 -9 9 -11 7
-7 -10 3 -18 0 -20 -18 -13 -12 5 -23 18 -25 30 -3 19 1 21 45 20 26 -1 62 -5
78 -9z m175 -45 c0 -8 -6 -12 -14 -9 -8 3 -12 12 -9 20 6 17 23 9 23 -11z m64
4 c3 -2 -6 -6 -19 -7 -13 -1 -26 2 -29 7 -6 8 39 9 48 0z m285 -26 c-4 -25 5
-43 37 -77 45 -48 37 -59 -10 -14 -40 37 -65 98 -40 98 8 0 13 -3 13 -7z m99
-77 c12 -4 19 -12 16 -18 -4 -6 1 -8 13 -4 12 4 33 -2 54 -17 19 -13 41 -22
49 -20 10 3 9 0 -2 -7 -12 -7 -23 -7 -35 -1 -31 17 -84 31 -78 21 11 -17 -12
-11 -26 7 -10 11 -10 14 -1 9 6 -4 12 -2 12 3 0 6 -5 11 -12 11 -17 0 -78 61
-78 79 0 9 13 1 33 -21 17 -19 42 -38 55 -42z m-1187 37 c13 -17 13 -17 -6 -3
-11 8 -22 16 -24 17 -2 2 0 3 6 3 6 0 17 -8 24 -17z m569 13 c0 -11 -19 -15
-25 -6 -3 5 1 10 9 10 9 0 16 -2 16 -4z m-303 -82 c-3 -3 -12 -4 -19 -1 -8 3
-5 6 6 6 11 1 17 -2 13 -5z m1088 -54 c3 -5 -3 -10 -15 -10 -12 0 -18 5 -15
10 3 6 10 10 15 10 5 0 12 -4 15 -10z"/>
<path d="M897 1143 c-9 -9 -9 -43 1 -43 4 0 8 11 8 25 2 27 1 29 -9 18z"/>
<path d="M890 1025 c-7 -9 -11 -17 -8 -20 2 -2 12 4 21 15 9 11 13 20 8 20 -5
0 -14 -7 -21 -15z"/>
<path d="M895 960 c-3 -5 -1 -10 4 -10 6 0 11 5 11 10 0 6 -2 10 -4 10 -3 0
-8 -4 -11 -10z"/>
<path d="M860 900 c0 -5 5 -10 10 -10 6 0 10 5 10 10 0 6 -4 10 -10 10 -5 0
-10 -4 -10 -10z"/>
<path d="M1555 1980 c-3 -6 1 -7 9 -4 18 7 21 14 7 14 -6 0 -13 -4 -16 -10z"/>
<path d="M1635 1885 c-27 -18 -33 -25 -18 -22 13 3 26 1 29 -5 4 -5 23 -7 47
-3 34 6 39 5 34 -9 -3 -8 -2 -18 2 -21 12 -7 24 26 13 37 -5 5 -26 11 -47 13
-40 5 -59 14 -34 16 8 0 22 2 32 4 9 2 17 0 17 -4 0 -10 39 -11 45 -1 3 5 -3
9 -12 9 -10 0 -29 3 -43 6 -17 4 -37 -2 -65 -20z m42 -21 c-3 -3 -12 -4 -19
-1 -8 3 -5 6 6 6 11 1 17 -2 13 -5z"/>
<path d="M1145 1830 c-4 -6 -10 -8 -15 -5 -5 3 -15 -3 -22 -13 -7 -10 -39 -31
-71 -46 -38 -18 -55 -31 -50 -39 4 -7 -2 -5 -12 3 -10 8 -16 10 -12 4 3 -6 -1
-20 -9 -30 -9 -10 -13 -14 -10 -7 4 6 1 15 -5 19 -8 5 -9 3 -4 -5 5 -9 1 -12
-11 -11 -81 9 -120 -11 -51 -25 37 -8 59 -24 51 -36 -3 -5 4 -9 15 -9 12 0 21
-5 21 -11 0 -6 7 -8 18 -4 13 5 14 4 5 -6 -10 -10 -15 -9 -28 1 -20 17 -19 1
2 -22 9 -10 13 -21 9 -25 -4 -4 -12 -1 -17 7 -9 12 -9 11 -4 -5 4 -11 7 -35 6
-54 -1 -20 5 -41 15 -52 18 -20 6 -27 -14 -7 -6 6 -15 8 -19 3 -5 -4 -2 -10 5
-12 10 -4 7 -12 -9 -29 -17 -18 -20 -27 -12 -35 8 -8 15 -3 27 17 8 16 15 25
16 19 0 -5 5 -3 10 5 8 12 10 10 10 -9 0 -16 -4 -21 -14 -18 -8 3 -17 0 -19
-7 -4 -10 1 -12 16 -9 21 5 21 4 6 -12 -13 -13 -21 -15 -37 -6 -26 14 -32 14
-32 1 0 -5 10 -10 21 -10 16 0 20 -5 16 -19 -3 -11 1 -22 7 -24 7 -3 12 3 12
15 -1 12 5 23 12 25 6 3 12 0 12 -7 0 -6 -4 -9 -9 -6 -14 9 -7 -49 8 -68 7 -9
10 -16 6 -16 -4 0 0 -11 9 -25 9 -14 14 -25 11 -25 -3 0 2 -16 10 -36 8 -20
16 -48 16 -63 2 -23 2 -24 6 -3 2 12 9 22 14 22 5 0 8 16 6 35 -1 19 -6 35
-11 35 -4 0 -6 7 -2 15 3 8 2 15 -3 15 -5 0 -14 13 -21 30 -7 16 -16 27 -21
24 -12 -7 -11 78 1 110 5 15 5 28 0 31 -13 8 -9 63 5 69 8 3 12 -6 11 -24 -1
-15 -4 -26 -8 -23 -10 5 -11 -11 -2 -20 11 -11 39 26 36 48 -4 26 19 47 53 49
14 0 25 4 25 9 0 4 3 6 8 5 4 -2 17 7 29 19 14 14 29 20 42 16 14 -4 27 2 41
18 25 31 27 64 3 54 -10 -4 -26 -8 -36 -10 -10 -2 -43 -16 -74 -30 -62 -28
-67 -29 -58 -15 3 6 1 10 -4 10 -6 0 -11 -7 -11 -16 0 -12 6 -15 26 -10 25 7
25 7 7 -17 -17 -24 -18 -24 -31 -6 -14 21 -32 25 -32 8 0 -5 6 -7 13 -3 9 6 9
4 -1 -8 -10 -13 -10 -17 0 -21 9 -4 9 -6 1 -6 -15 -1 -23 11 -25 42 -1 14 -5
24 -8 22 -3 -2 -7 22 -8 53 -2 53 7 85 22 83 3 -1 5 0 4 2 -6 6 39 45 67 60
34 17 84 67 67 67 -6 0 -14 -5 -17 -10z m-155 -130 c0 -5 -5 -10 -11 -10 -5 0
-7 5 -4 10 3 6 8 10 11 10 2 0 4 -4 4 -10z m-4 -38 c-4 -25 -29 -25 -47 1 -17
22 -16 23 16 19 24 -3 32 -9 31 -20z m236 -51 c8 11 9 11 5 -1 -2 -8 -10 -14
-16 -12 -6 1 -11 -3 -11 -9 0 -5 -5 -7 -10 -4 -6 4 -17 1 -25 -5 -12 -10 -15
-9 -15 4 0 14 18 21 43 17 4 0 7 5 8 12 0 8 2 8 6 -2 5 -11 7 -11 15 0z m-220
-67 c13 -37 13 -44 2 -40 -9 3 -16 -4 -20 -20 -10 -38 -28 -13 -19 26 5 24 10
29 16 19 13 -21 12 17 -1 42 -6 10 -7 19 -3 19 5 0 16 -21 25 -46z m134 31
c-1 -8 -6 -18 -11 -22 -4 -4 -5 -2 -1 5 4 7 2 12 -6 12 -9 0 -9 3 2 10 19 12
19 13 16 -5z m-87 -435 c1 -26 -16 10 -23 50 l-6 35 14 -35 c8 -19 15 -42 15
-50z"/>
<path d="M955 1660 c3 -5 8 -10 11 -10 2 0 4 5 4 10 0 6 -5 10 -11 10 -5 0 -7
-4 -4 -10z"/>
<path d="M1683 1826 c-1 -6 -3 -28 -6 -48 -7 -46 8 -50 18 -5 13 52 13 64 0
64 -6 0 -12 -5 -12 -11z"/>
<path d="M1645 1780 c-3 -5 -2 -17 3 -26 8 -14 10 -12 10 9 0 29 -3 33 -13 17z"/>
<path d="M1316 1762 c-3 -5 1 -9 9 -9 8 0 12 4 9 9 -3 4 -7 8 -9 8 -2 0 -6 -4
-9 -8z"/>
<path d="M474 1730 c-37 -16 -74 -52 -74 -72 0 -16 19 -8 23 10 3 11 5 8 6 -9
0 -15 8 -30 17 -33 12 -5 14 -1 9 15 -9 27 2 69 18 69 15 1 52 28 46 34 -2 3
-23 -3 -45 -14z"/>
<path d="M1650 1716 c7 -7 13 -7 20 0 6 6 3 10 -10 10 -13 0 -16 -4 -10 -10z"/>
<path d="M687 1659 c7 -7 15 -10 18 -7 3 3 -2 9 -12 12 -14 6 -15 5 -6 -5z"/>
<path d="M1010 1659 c0 -5 5 -7 10 -4 6 3 10 8 10 11 0 2 -4 4 -10 4 -5 0 -10
-5 -10 -11z"/>
<path d="M1020 1608 c0 -7 5 -20 10 -28 8 -12 10 -11 10 7 0 12 -4 25 -10 28
-5 3 -10 0 -10 -7z"/>
<path d="M1166 1541 c-4 -5 3 -7 14 -4 23 6 26 13 6 13 -8 0 -17 -4 -20 -9z"/>
<path d="M593 1473 c-23 -26 -32 -70 -13 -58 6 4 8 11 4 16 -3 6 3 5 15 -3 12
-7 21 -15 21 -18 0 -9 -43 -6 -58 4 -7 4 -16 5 -19 2 -4 -3 -1 -6 5 -6 7 0 12
-5 12 -10 0 -6 -6 -10 -14 -8 -8 2 -15 -1 -15 -7 -1 -6 34 -9 90 -8 77 2 91
-1 95 -15 3 -9 9 -25 14 -34 6 -11 5 -18 -3 -21 -7 -3 -5 -6 4 -6 16 -1 28 16
35 47 1 6 -3 9 -9 5 -6 -4 -8 0 -4 10 4 12 -5 18 -44 27 -27 7 -46 16 -43 21
3 5 0 9 -6 9 -6 0 -9 4 -6 9 3 5 -1 14 -8 20 -10 8 -16 9 -21 1 -6 -10 1 -14
18 -11 5 1 6 -3 2 -9 -5 -8 -11 -8 -19 -1 -7 6 -16 8 -19 4 -4 -3 -7 -2 -7 4
0 6 7 16 15 23 15 13 21 40 8 39 -5 0 -18 -12 -30 -26z"/>
<path d="M1010 1392 c0 -5 7 -15 15 -22 8 -7 15 -9 15 -6 0 4 -7 14 -15 22 -8
9 -15 11 -15 6z"/>
<path d="M2370 1386 c0 -2 9 -6 20 -9 11 -3 20 -1 20 4 0 5 -9 9 -20 9 -11 0
-20 -2 -20 -4z"/>
<path d="M2722 1357 c0 -19 2 -26 7 -18 6 10 10 9 14 -3 4 -9 2 -16 -3 -16
-14 0 -22 -35 -14 -65 4 -18 10 -23 17 -16 7 7 6 15 -2 25 -10 11 -10 19 -1
33 10 16 10 15 5 -4 -4 -14 -2 -23 5 -23 6 0 9 4 5 9 -3 5 -1 12 5 16 6 4 7
12 1 22 -4 9 -6 24 -4 34 3 10 -3 21 -15 28 -17 9 -19 7 -20 -22z"/>
<path d="M1148 1362 c-3 -11 0 -19 7 -19 7 0 10 8 7 19 -2 10 -6 18 -7 18 -1
0 -5 -8 -7 -18z"/>
<path d="M2592 1375 c4 -4 3 -14 -3 -22 -7 -8 -8 -13 -1 -13 15 0 23 28 9 36
-7 4 -9 4 -5 -1z"/>
<path d="M1001 1354 c0 -11 3 -14 6 -6 3 7 2 16 -1 19 -3 4 -6 -2 -5 -13z"/>
<path d="M854 1349 c-3 -5 -2 -9 3 -8 4 1 16 -1 25 -5 10 -4 23 -6 30 -4 7 3
-2 10 -20 16 -20 7 -34 7 -38 1z"/>
<path d="M2324 1344 c3 -22 12 -26 25 -10 9 11 7 15 -8 19 -12 3 -18 0 -17 -9z"/>
<path d="M342 1320 c0 -14 2 -19 5 -12 2 6 2 18 0 25 -3 6 -5 1 -5 -13z"/>
<path d="M2520 1326 c0 -2 7 -6 15 -10 8 -3 15 -1 15 4 0 6 -7 10 -15 10 -8 0
-15 -2 -15 -4z"/>
<path d="M521 1301 c-10 -7 -7 -9 12 -8 15 1 27 5 27 10 0 10 -22 9 -39 -2z"/>
<path d="M890 1293 c0 -7 -6 -10 -14 -7 -7 3 -16 -2 -19 -10 -8 -21 4 -26 30
-13 16 9 20 16 13 27 -6 10 -10 11 -10 3z"/>
<path d="M640 1280 c20 -13 33 -13 25 0 -3 6 -14 10 -23 10 -15 0 -15 -2 -2
-10z"/>
<path d="M2400 1280 c0 -5 5 -10 11 -10 5 0 7 5 4 10 -3 6 -8 10 -11 10 -2 0
-4 -4 -4 -10z"/>
<path d="M2305 1249 c-4 -6 -4 -13 -1 -16 3 -4 6 -1 6 6 0 7 5 9 12 5 7 -4 8
-3 4 4 -9 15 -13 15 -21 1z"/>
<path d="M2406 1252 c-3 -5 1 -9 9 -9 8 0 12 4 9 9 -3 4 -7 8 -9 8 -2 0 -6 -4
-9 -8z"/>
<path d="M2326 1201 c-3 -5 1 -11 9 -14 9 -4 12 -1 8 9 -6 16 -10 17 -17 5z"/>
<path d="M1595 1190 c-3 -6 1 -7 9 -4 18 7 21 14 7 14 -6 0 -13 -4 -16 -10z"/>
<path d="M2591 1179 c-7 -12 -10 -23 -8 -26 3 -3 11 5 17 17 15 28 8 35 -9 9z"/>
<path d="M2399 1183 c-8 -45 -4 -70 10 -65 8 3 12 1 8 -5 -3 -5 9 -24 28 -41
19 -16 35 -28 35 -25 0 10 -52 92 -66 104 -11 9 -12 14 -3 19 8 6 8 9 0 14 -6
4 -12 4 -12 -1z m26 -53 c3 -6 -1 -7 -9 -4 -18 7 -21 14 -7 14 6 0 13 -4 16
-10z"/>
<path d="M2903 1153 c-9 -18 -9 -30 -2 -42 9 -14 10 -13 5 3 -4 10 -1 25 5 32
6 7 9 18 7 23 -1 6 -8 -1 -15 -16z"/>
<path d="M1990 1146 c0 -2 7 -9 15 -16 13 -11 14 -10 9 4 -5 14 -24 23 -24 12z"/>
<path d="M2300 1131 c14 -27 13 -30 -12 -41 -18 -7 -19 -9 -5 -9 9 -1 17 -5
17 -11 0 -5 6 -10 13 -10 8 0 24 -8 35 -19 19 -16 20 -22 11 -48 -5 -17 -20
-36 -32 -42 -19 -10 -19 -11 -2 -6 19 5 19 4 3 -9 -19 -14 -25 -32 -9 -21 5 3
12 2 15 -3 7 -12 -48 -42 -62 -33 -9 6 -7 14 8 34 18 23 19 26 4 20 -12 -5
-15 -3 -9 6 6 10 3 11 -14 2 -11 -7 -21 -17 -21 -23 0 -7 5 -6 15 2 24 20 17
-5 -7 -26 -12 -10 -18 -13 -14 -6 4 6 3 12 -3 12 -5 0 -11 -6 -13 -12 -3 -9
-9 -8 -22 5 -17 16 -16 17 2 17 11 0 22 6 25 14 5 11 0 13 -23 6 -16 -4 -31
-6 -34 -2 -3 3 -6 -1 -6 -9 0 -18 35 -49 56 -49 23 0 65 -46 58 -65 -4 -8 -1
-22 6 -30 14 -17 50 -20 50 -4 0 6 -7 9 -15 5 -15 -6 -19 2 -17 42 1 15 -3 20
-11 15 -7 -4 -7 0 2 10 7 9 17 15 21 12 11 -7 74 43 82 65 4 12 1 23 -8 31
-13 11 -15 10 -14 -2 1 -7 2 -22 1 -32 -1 -15 -3 -16 -15 -5 -10 9 -11 17 -4
26 6 6 7 12 2 12 -5 0 1 7 12 15 16 10 20 21 16 41 -3 19 -1 25 7 20 6 -4 9
-12 6 -17 -4 -5 -1 -9 5 -9 7 0 8 -6 1 -19 -9 -16 -8 -18 9 -14 11 3 20 0 20
-6 0 -6 -5 -10 -12 -8 -6 1 -12 -10 -13 -24 -1 -14 -5 -30 -8 -36 -3 -5 0 -10
7 -10 8 0 12 6 9 14 -7 19 5 16 34 -7 14 -11 43 -23 64 -26 23 -4 36 -11 32
-17 -4 -6 2 -8 15 -5 14 4 20 2 15 -5 -4 -7 0 -8 11 -4 26 10 39 -2 24 -21
-11 -13 -11 -14 2 -7 8 5 42 11 75 13 103 6 110 7 117 17 4 6 8 2 8 -7 0 -12
-8 -18 -22 -18 -19 0 -20 -2 -8 -11 12 -9 11 -10 -7 -6 -12 3 -21 1 -20 -3 2
-9 -2 -10 -34 -10 -13 0 -18 4 -13 12 4 7 3 8 -5 4 -6 -4 -8 -12 -5 -18 5 -7
1 -9 -9 -5 -9 3 -18 -1 -21 -10 -5 -11 -2 -13 11 -8 38 15 52 17 70 5 16 -10
16 -11 -4 -7 -13 3 -23 0 -23 -6 0 -6 -3 -8 -6 -4 -4 3 -21 0 -38 -7 -20 -8
-40 -10 -55 -5 -16 6 -27 5 -37 -6 -9 -8 -11 -15 -6 -15 5 0 7 -11 4 -25 -2
-14 0 -25 6 -25 6 0 8 10 4 22 -3 14 -2 19 6 14 14 -8 16 -46 3 -46 -5 0 -16
-3 -24 -6 -10 -4 -14 2 -13 18 1 13 -1 31 -6 40 -5 10 -4 19 2 23 15 9 12 25
-4 19 -7 -3 -16 1 -19 9 -7 18 -72 8 -72 -10 0 -20 -15 -27 -16 -7 -1 10 -1
22 0 26 0 4 -6 5 -15 1 -8 -3 -13 -12 -10 -20 3 -8 1 -11 -4 -8 -6 3 -10 -1
-10 -10 0 -9 -4 -13 -10 -10 -5 3 -22 -1 -37 -8 l-27 -15 30 2 c17 1 39 7 48
15 10 9 16 10 16 2 0 -7 17 -10 53 -6 51 5 53 4 64 -25 10 -27 9 -30 -8 -30
-12 0 -19 -7 -19 -19 0 -14 5 -18 21 -14 16 5 18 8 7 15 -9 7 -8 8 5 4 29 -9
67 4 67 23 0 9 6 23 13 30 10 10 8 12 -7 9 -10 -1 -21 2 -23 8 -2 7 5 10 22 7
14 -3 25 -9 25 -14 0 -5 4 -9 10 -9 5 0 7 7 3 16 -4 12 -2 15 8 12 8 -3 13
-11 11 -17 -3 -16 10 -13 38 9 14 11 20 20 13 20 -6 0 -15 -4 -18 -10 -8 -13
-25 -13 -25 0 0 5 17 12 38 16 20 4 43 11 50 17 7 5 12 6 12 0 0 -17 -90 -73
-119 -73 -17 0 -31 -6 -35 -16 -9 -24 -7 -31 5 -11 5 9 21 17 33 17 34 0 73
23 111 65 37 40 99 145 109 185 l6 25 -12 -25 c-27 -57 -90 -161 -95 -157 -2
3 3 17 12 30 9 14 15 34 13 44 -2 11 2 17 10 15 8 -1 11 2 7 8 -3 5 -14 10
-23 10 -14 0 -15 2 -2 10 8 5 12 11 9 14 -3 3 -16 -6 -30 -21 -13 -15 -17 -22
-7 -15 11 9 18 10 23 2 6 -10 2 -11 -47 -14 -15 -1 -30 -4 -33 -8 -4 -3 -19
-3 -35 2 -18 5 -32 4 -40 -3 -8 -9 -10 -8 -5 4 6 15 3 17 -44 21 -15 2 -17 5
-9 15 6 8 8 16 5 19 -10 10 -39 -5 -32 -16 3 -5 1 -10 -4 -10 -6 0 -11 5 -11
10 0 6 -6 10 -14 10 -8 0 -22 10 -30 22 -14 20 -20 18 -18 -3 1 -4 -10 -6 -24
-6 -18 0 -24 4 -20 14 3 8 2 11 -3 8 -5 -3 -13 0 -17 6 -4 8 -3 9 4 5 7 -4 12
-1 12 9 0 9 5 13 11 9 6 -3 9 -14 6 -24 -3 -13 0 -17 10 -13 8 3 12 11 9 19
-3 8 2 11 19 8 13 -2 26 0 29 5 3 5 16 7 29 4 20 -4 20 -3 4 7 -14 9 -22 9
-33 -1 -10 -8 -18 -9 -25 -2 -12 12 -2 41 17 45 11 2 10 6 -6 16 -18 11 -20
10 -20 -11 0 -13 -6 -32 -14 -42 -13 -18 -14 -18 -25 3 -7 13 -16 20 -20 18
-4 -3 -8 1 -8 8 0 9 7 12 16 8 14 -5 14 -4 1 10 -8 9 -18 14 -22 11 -5 -2 -8
1 -8 8 0 7 -3 10 -6 6 -10 -9 -81 30 -88 48 -3 9 1 18 9 22 13 4 12 9 -6 24
-28 24 -32 24 -19 0z m238 -392 c10 -14 7 -16 -28 -16 -43 0 -50 19 -10 28 14
3 25 5 25 5 1 -1 6 -8 13 -17z"/>
<path d="M2744 1135 c11 -8 28 -13 38 -9 21 6 24 -6 6 -24 -9 -9 -9 -12 2 -13
8 -1 19 -1 24 0 5 1 6 -5 3 -13 -4 -11 -1 -13 10 -9 13 5 15 3 8 -13 -4 -10
-8 -28 -9 -39 -1 -11 -4 -25 -8 -31 -12 -19 4 -25 18 -6 9 13 10 20 1 31 -10
12 -9 14 6 8 20 -7 23 3 5 21 -9 9 -9 12 1 12 7 0 9 5 5 12 -4 7 -3 8 5 4 6
-4 9 -11 7 -15 -3 -4 0 -13 6 -21 8 -12 9 -12 4 2 -3 10 -1 20 4 23 5 3 11 -3
13 -12 3 -10 5 -4 6 14 0 17 -3 35 -9 38 -5 3 -10 -1 -10 -11 0 -13 -3 -14
-13 -5 -8 6 -17 8 -20 4 -9 -9 -37 17 -37 35 0 13 3 12 20 -3 11 -10 20 -13
20 -7 0 7 -6 12 -12 13 -7 0 -4 4 7 8 17 7 17 8 -8 13 -15 3 -27 1 -27 -3 0
-5 -6 -7 -12 -5 -7 3 -26 7 -43 10 -28 6 -29 5 -11 -9z"/>
<path d="M621 1114 c0 -11 3 -14 6 -6 3 7 2 16 -1 19 -3 4 -6 -2 -5 -13z"/>
<path d="M743 1117 c-4 -6 -1 -7 7 -2 8 5 11 3 8 -6 -3 -8 -11 -13 -17 -11 -7
1 -9 -3 -5 -9 3 -6 0 -15 -7 -20 -8 -5 -9 -9 -3 -9 9 0 54 52 54 63 0 8 -31 3
-37 -6z"/>
<path d="M1960 1116 c0 -2 7 -7 16 -10 8 -3 12 -2 9 4 -6 10 -25 14 -25 6z"/>
<path d="M783 1095 c-6 -7 -9 -15 -6 -18 2 -3 -9 -13 -25 -21 -17 -9 -33 -20
-36 -25 -4 -5 12 0 34 12 22 12 43 30 46 40 7 24 2 28 -13 12z"/>
<path d="M1175 1101 c-3 -5 -1 -12 5 -16 5 -3 10 1 10 9 0 18 -6 21 -15 7z"/>
<path d="M1921 1107 c2 -1 15 -11 28 -22 l24 -20 -12 23 c-6 12 -19 22 -28 22
-9 0 -14 -1 -12 -3z"/>
<path d="M2015 1100 c8 -13 -54 -50 -72 -43 -8 3 -11 8 -8 11 2 3 -4 12 -16
20 -15 10 -24 11 -32 3 -6 -6 -38 -11 -71 -12 -54 -1 -132 -15 -97 -18 10 -1
11 -4 2 -14 -6 -8 -8 -17 -4 -20 13 -13 82 -7 97 9 23 23 20 25 -12 7 -18 -10
-36 -14 -48 -9 -18 7 -18 8 5 20 13 7 48 12 77 11 30 -1 54 2 54 6 0 15 28 10
34 -7 9 -24 8 -27 -14 -21 -11 3 -20 1 -20 -4 0 -14 21 -11 98 14 69 22 71 24
51 40 -21 19 -33 22 -24 7z"/>
<path d="M2245 1100 c-3 -6 1 -7 9 -4 18 7 21 14 7 14 -6 0 -13 -4 -16 -10z"/>
<path d="M2912 1070 c0 -14 2 -19 5 -12 2 6 2 18 0 25 -3 6 -5 1 -5 -13z"/>
<path d="M2775 1059 c-4 -6 -5 -12 -2 -15 2 -3 7 2 10 11 7 17 1 20 -8 4z"/>
<path d="M2447 1040 c3 -11 7 -20 9 -20 2 0 4 9 4 20 0 11 -4 20 -9 20 -5 0
-7 -9 -4 -20z"/>
<path d="M300 1046 c0 -2 7 -6 15 -10 8 -3 15 -1 15 4 0 6 -7 10 -15 10 -8 0
-15 -2 -15 -4z"/>
<path d="M1848 1043 c6 -2 18 -2 25 0 6 3 1 5 -13 5 -14 0 -19 -2 -12 -5z"/>
<path d="M2792 1025 c0 -16 2 -22 5 -12 2 9 2 23 0 30 -3 6 -5 -1 -5 -18z"/>
<path d="M1270 1030 c-8 -5 0 -7 18 -7 17 1 29 4 26 6 -8 9 -31 9 -44 1z"/>
<path d="M2913 1005 c0 -22 2 -30 4 -17 2 12 2 30 0 40 -3 9 -5 -1 -4 -23z"/>
<path d="M714 1005 c-12 -9 -14 -14 -6 -15 9 0 11 -7 7 -20 -4 -12 -2 -20 5
-20 6 0 8 5 5 10 -3 6 -2 10 4 10 6 0 16 10 22 23 9 18 9 20 -2 10 -18 -18
-34 -16 -19 2 16 19 9 19 -16 0z"/>
<path d="M961 988 c0 -16 4 -28 9 -28 6 0 10 -8 10 -17 0 -15 2 -15 9 -4 6 10
5 18 -4 25 -7 6 -15 20 -18 31 -4 15 -5 13 -6 -7z"/>
<path d="M1720 1001 c0 -15 23 -26 28 -13 3 9 9 9 23 2 13 -7 19 -7 19 0 0 5
-6 10 -12 11 -7 0 -23 2 -35 5 -13 2 -23 0 -23 -5z"/>
<path d="M2775 987 c4 -17 2 -26 -4 -23 -5 4 -12 2 -15 -3 -6 -10 19 -9 29 1
3 3 1 16 -5 29 -10 23 -10 23 -5 -4z"/>
<path d="M2875 1000 c-3 -6 1 -7 9 -4 18 7 21 14 7 14 -6 0 -13 -4 -16 -10z"/>
<path d="M480 990 c0 -5 5 -10 11 -10 5 0 7 5 4 10 -3 6 -8 10 -11 10 -2 0 -4
-4 -4 -10z"/>
<path d="M595 991 c3 -5 1 -13 -5 -16 -6 -4 0 -15 15 -27 19 -14 23 -23 16
-32 -8 -9 -6 -13 4 -13 20 0 19 16 -2 39 -9 10 -11 18 -5 18 6 0 14 -5 17 -10
5 -8 11 -7 21 1 10 8 14 8 14 0 0 -6 7 -11 15 -11 12 0 11 4 -5 20 -21 21 -32
26 -27 13 1 -5 -2 -9 -8 -9 -5 -1 -9 2 -8 7 2 4 -5 5 -14 2 -10 -4 -14 -2 -10
4 4 6 0 14 -9 17 -8 3 -12 2 -9 -3z"/>
<path d="M1030 990 c-13 -8 -12 -10 3 -10 9 0 17 5 17 10 0 12 -1 12 -20 0z"/>
<path d="M685 970 c-3 -5 -1 -10 4 -10 6 0 11 5 11 10 0 6 -2 10 -4 10 -3 0
-8 -4 -11 -10z"/>
<path d="M1061 976 c2 -2 20 -6 39 -10 25 -4 31 -3 20 4 -14 9 -69 15 -59 6z"/>
<path d="M470 958 c0 -4 4 -8 9 -8 6 0 12 4 15 8 3 5 -1 9 -9 9 -8 0 -15 -4
-15 -9z"/>
<path d="M1729 934 c-5 -15 -12 -32 -15 -38 -3 -6 1 -3 9 7 17 20 28 22 23 5
-1 -7 -1 -10 1 -5 3 4 11 7 18 7 8 0 17 5 21 11 4 7 0 9 -14 5 -17 -6 -20 -3
-17 13 6 30 -14 26 -26 -5z"/>
<path d="M1928 943 c7 -3 16 -2 19 1 4 3 -2 6 -13 5 -11 0 -14 -3 -6 -6z"/>
<path d="M2846 927 c-16 -17 -17 -19 -3 -14 22 8 22 -2 0 -20 -16 -13 -16 -13
3 -4 21 10 39 48 26 54 -4 2 -16 -5 -26 -16z"/>
<path d="M465 930 c-3 -5 -1 -10 4 -10 6 0 11 5 11 10 0 6 -2 10 -4 10 -3 0
-8 -4 -11 -10z"/>
<path d="M2569 921 c24 -12 45 -21 47 -21 9 0 3 29 -8 36 -7 5 -8 3 -3 -6 6
-10 4 -12 -9 -7 -48 19 -67 17 -27 -2z"/>
<path d="M685 920 c4 -6 11 -8 16 -5 14 9 11 15 -7 15 -8 0 -12 -5 -9 -10z"/>
<path d="M1572 918 c3 -7 13 -15 24 -17 16 -3 17 -1 5 13 -16 19 -34 21 -29 4z"/>
<path d="M2515 910 c3 -5 16 -10 28 -9 21 0 21 1 2 9 -28 12 -37 12 -30 0z"/>
<path d="M2287 903 c-4 -3 -7 -11 -7 -17 0 -6 5 -5 12 2 6 6 9 14 7 17 -3 3
-9 2 -12 -2z"/>
<path d="M2630 899 c0 -5 5 -7 10 -4 6 3 10 8 10 11 0 2 -4 4 -10 4 -5 0 -10
-5 -10 -11z"/>
<path d="M2664 902 c4 -7 1 -13 -8 -13 -29 -3 -34 -4 -42 -11 -4 -5 0 -8 9 -8
8 0 24 -3 34 -7 10 -3 15 -3 11 2 -4 4 -3 14 3 21 7 8 6 14 -2 20 -8 4 -9 3
-5 -4z"/>
<path d="M675 890 c3 -5 8 -10 11 -10 2 0 4 5 4 10 0 6 -5 10 -11 10 -5 0 -7
-4 -4 -10z"/>
<path d="M1585 880 c-6 -10 44 -35 53 -26 2 3 -8 8 -23 12 -20 5 -23 9 -13 15
9 6 9 9 1 9 -6 0 -15 -5 -18 -10z"/>
<path d="M2683 882 c-21 -13 1 -36 23 -24 14 7 26 7 39 0 11 -6 17 -7 13 -3
-4 4 0 14 10 21 16 12 15 13 -6 14 -13 0 -20 -4 -17 -10 3 -5 2 -10 -4 -10 -5
0 -13 5 -16 10 -7 12 -25 13 -42 2z"/>
<path d="M440 854 c-25 -10 -28 -13 -10 -10 14 2 33 7 43 11 12 5 17 3 17 -8
0 -9 4 -19 10 -22 6 -4 7 2 1 16 -10 29 -18 31 -61 13z"/>
<path d="M545 860 c-3 -6 1 -7 9 -4 18 7 21 14 7 14 -6 0 -13 -4 -16 -10z"/>
<path d="M1772 856 c7 -8 16 -12 21 -9 11 7 -2 23 -19 23 -12 0 -12 -2 -2 -14z"/>
<path d="M2380 858 c0 -5 -4 -7 -9 -3 -6 3 -8 -4 -6 -15 3 -16 0 -20 -13 -18
-9 3 -16 10 -14 16 1 7 -2 12 -8 12 -5 0 -10 -7 -10 -15 0 -8 5 -15 10 -15 6
0 10 -5 10 -11 0 -5 -4 -7 -10 -4 -5 3 -10 2 -10 -4 0 -5 5 -13 10 -16 6 -4 8
-15 5 -26 -5 -13 -2 -19 7 -17 7 2 12 -3 11 -9 -4 -18 26 -16 33 2 4 8 10 13
14 10 4 -3 11 2 14 10 6 17 -16 31 -33 21 -5 -4 -12 -3 -15 2 -2 4 4 13 15 20
14 9 19 9 19 0 0 -6 3 -9 6 -5 3 3 3 11 -1 17 -4 7 -16 3 -36 -10 -16 -12 -29
-17 -29 -11 0 6 9 15 20 21 11 6 18 15 15 20 -3 5 -1 11 5 15 5 3 10 2 10 -3
0 -5 8 -12 18 -14 13 -4 18 1 20 20 2 25 2 25 -14 6 -11 -13 -14 -14 -11 -3 3
9 -1 16 -9 16 -8 0 -14 -4 -14 -9z m-7 -109 c4 -16 3 -18 -9 -8 -16 13 -19 29
-5 29 5 0 11 -9 14 -21z"/>
<path d="M1568 843 c6 -2 18 -2 25 0 6 3 1 5 -13 5 -14 0 -19 -2 -12 -5z"/>
<path d="M1435 826 c-22 -7 -47 -11 -55 -9 -10 3 -11 2 -4 -4 6 -4 16 -17 23
-28 11 -19 12 -18 7 5 -5 22 -4 22 10 -5 11 -22 14 -24 10 -8 -5 28 10 39 30
22 12 -9 17 -10 27 0 9 10 8 11 -4 6 -10 -4 -20 -2 -24 4 -4 7 12 11 49 11 44
0 55 -4 59 -17 4 -16 5 -16 6 1 1 18 2 19 21 1 11 -10 23 -15 27 -12 3 4 1 7
-5 7 -7 0 -12 7 -12 15 0 9 -10 15 -22 16 -13 1 -41 2 -63 4 -22 2 -58 -2 -80
-9z"/>
<path d="M2214 831 c3 -5 -1 -11 -9 -15 -8 -3 -17 -1 -20 4 -4 6 -11 10 -16
10 -6 0 -7 -4 -4 -10 6 -9 -32 -13 -130 -12 -23 0 -25 -1 -7 -5 12 -2 22 -9
22 -14 0 -12 -37 -12 -45 1 -8 13 -104 5 -118 -9 -9 -9 -8 -15 6 -22 21 -12
22 -29 2 -29 -8 0 -15 5 -15 11 0 5 -10 9 -22 7 -17 -2 -22 1 -20 15 2 9 -1
17 -5 18 -4 0 -21 2 -37 4 -26 4 -27 3 -10 -9 10 -8 25 -12 34 -9 13 4 13 3 1
-5 -12 -9 -9 -14 17 -29 31 -17 42 -46 23 -58 -6 -3 -8 3 -6 14 2 13 -2 18
-13 16 -9 -1 -26 2 -37 8 -16 8 -18 7 -8 -3 10 -11 7 -18 -13 -37 -18 -17 -30
-21 -38 -14 -8 7 -15 4 -23 -9 -9 -14 -20 -17 -44 -13 -17 2 -29 1 -26 -4 7
-11 -9 -38 -23 -39 -5 -1 -15 -2 -21 -3 -6 0 -9 -8 -5 -16 3 -8 0 -15 -6 -15
-7 0 -7 -4 1 -13 6 -8 8 -16 5 -20 -3 -3 14 -8 38 -12 47 -7 104 11 128 40 26
31 70 45 162 52 83 6 90 5 77 -9 -8 -9 -17 -14 -21 -11 -4 2 -5 -4 -1 -13 4
-11 -1 -22 -12 -30 -10 -8 -14 -14 -8 -14 7 0 15 5 18 10 10 17 35 11 35 -7 0
-15 -2 -16 -10 -3 -6 10 -10 11 -10 3 0 -15 -48 -17 -69 -4 -10 7 -5 11 18 16
17 3 31 11 31 17 0 10 -16 8 -54 -8 -14 -5 -17 -4 -12 4 9 15 -23 16 -44 1
-12 -8 -11 -9 5 -7 12 2 19 -2 18 -9 -2 -7 8 -15 22 -19 14 -3 25 -10 25 -15
0 -5 7 -6 15 -3 8 4 15 2 15 -4 0 -14 -38 -22 -43 -9 -1 5 -10 8 -17 5 -11 -3
-9 -8 7 -17 28 -14 77 4 116 43 30 29 36 51 12 42 -8 -3 -15 -1 -15 4 0 6 6
10 13 10 8 0 7 4 -3 11 -12 9 -12 10 3 5 10 -3 21 -6 23 -6 2 0 4 -8 4 -17 1
-17 1 -17 11 0 6 9 14 15 18 12 5 -2 11 5 14 16 4 15 11 20 21 16 9 -4 16 -2
16 4 0 6 5 7 10 4 6 -3 10 -1 10 5 0 6 8 9 18 6 10 -3 36 7 62 24 39 26 46 28
56 15 8 -11 22 -14 50 -9 55 8 55 14 -1 14 -46 0 -47 1 -31 18 15 18 15 20 -2
35 -16 15 -19 15 -19 2 0 -8 4 -15 8 -15 5 0 6 -7 2 -16 -4 -11 -8 -12 -13 -4
-5 8 -11 7 -22 -4 -10 -9 -19 -11 -27 -5 -6 5 -8 6 -5 2 2 -4 -21 -20 -53 -35
-43 -20 -60 -24 -71 -16 -7 6 -12 7 -10 2 2 -5 -1 -9 -7 -9 -5 0 -8 6 -7 15 6
22 10 24 26 11 11 -9 16 -9 22 0 4 8 3 9 -4 5 -7 -4 -12 -1 -12 8 0 11 -7 15
-22 12 -13 -3 -27 -5 -32 -5 -5 -1 -2 -8 5 -18 11 -13 11 -17 1 -20 -6 -3 -10
-9 -6 -14 5 -9 -19 -14 -41 -9 -15 3 -129 0 -154 -5 -11 -2 -21 0 -21 6 0 5
10 10 23 10 18 1 18 2 4 6 -10 3 -28 -4 -39 -14 -12 -10 -18 -12 -14 -6 10 18
-25 4 -42 -16 -8 -9 -11 -10 -7 -4 4 9 1 11 -9 7 -9 -3 -13 -10 -10 -15 3 -5
0 -9 -6 -9 -7 0 -10 -6 -7 -14 4 -10 0 -12 -15 -8 -13 3 -18 11 -15 23 3 12 0
16 -9 12 -7 -2 -10 -11 -8 -18 4 -10 -1 -12 -18 -9 -13 2 -8 -1 10 -8 l34 -11
-34 -12 c-22 -7 -40 -8 -55 -1 -24 10 -31 26 -12 26 5 0 8 4 4 9 -3 6 3 9 12
9 10 -1 40 14 66 32 41 29 50 32 58 20 9 -12 10 -12 5 3 -4 12 0 17 17 18 12
1 29 3 37 4 8 1 31 3 50 4 32 1 33 3 17 15 -12 9 -14 16 -8 21 6 3 11 0 11 -7
0 -8 5 -6 11 5 11 18 39 24 39 7 0 -5 5 -10 11 -10 5 0 8 4 4 9 -3 6 7 6 26 1
35 -10 80 -3 92 14 5 8 9 8 15 0 4 -7 21 -12 37 -12 53 0 57 -1 51 -18 -3 -8
-2 -12 4 -9 6 3 10 13 10 22 0 9 6 13 15 9 8 -3 15 -1 15 4 0 6 9 10 20 10 11
0 20 7 20 16 0 8 4 12 10 9 6 -3 7 1 4 10 -6 14 -9 14 -23 2 -23 -20 -104 -38
-140 -31 -17 4 -29 10 -26 14 3 4 -4 10 -15 13 -11 3 -23 1 -26 -4 -3 -5 -2
-9 3 -8 20 3 25 -2 13 -16 -9 -11 -16 -12 -25 -5 -9 7 -15 8 -19 1 -4 -6 -16
-7 -29 -2 -12 4 -28 6 -34 4 -7 -3 -13 0 -13 6 0 6 -8 7 -17 4 -16 -6 -16 -5
-4 10 12 15 12 17 -2 12 -19 -8 -29 7 -16 25 8 11 12 12 15 3 4 -9 13 -9 37
-1 23 9 32 8 35 0 5 -17 47 -15 62 3 8 10 29 14 61 13 40 0 47 -3 38 -14 -6
-7 -8 -17 -6 -21 9 -14 62 -14 80 0 18 13 35 73 18 63 -5 -4 -12 -2 -16 4 -3
5 -11 10 -16 10 -6 0 -8 -4 -5 -9z m29 -24 c3 -8 1 -20 -5 -28 -8 -11 -9 -10
-4 4 3 9 1 17 -4 17 -6 0 -10 -5 -10 -11 0 -5 -6 -7 -12 -3 -9 5 -9 2 1 -9 12
-15 11 -17 -5 -17 -11 0 -26 5 -34 10 -13 8 -12 10 4 10 16 0 17 2 5 17 -12
14 -12 16 2 11 9 -3 22 -2 30 3 19 12 26 11 32 -4z m-568 -197 c3 -5 1 -10 -4
-10 -6 0 -11 5 -11 10 0 6 2 10 4 10 3 0 8 -4 11 -10z m425 1 c0 -5 -7 -11
-15 -15 -15 -5 -20 5 -8 17 9 10 23 9 23 -2z m-80 -41 c0 -5 -4 -10 -10 -10
-5 0 -10 5 -10 10 0 6 5 10 10 10 6 0 10 -4 10 -10z"/>
<path d="M2440 826 c0 -8 -6 -17 -12 -19 -10 -4 -10 -6 -1 -6 7 -1 17 8 23 19
7 14 7 20 0 20 -5 0 -10 -6 -10 -14z"/>
<path d="M340 820 c0 -5 5 -10 11 -10 5 0 7 5 4 10 -3 6 -8 10 -11 10 -2 0 -4
-4 -4 -10z"/>
<path d="M1084 795 c-25 -33 -54 -50 -38 -22 5 8 3 8 -9 -2 -9 -7 -14 -18 -10
-25 11 -17 12 -36 3 -36 -19 0 -32 37 -19 55 5 7 -1 11 -14 12 -12 1 -17 -1
-12 -5 14 -10 17 -32 5 -32 -12 0 -31 35 -23 44 3 3 -1 6 -9 6 -17 0 -14 -33
5 -57 5 -7 6 -13 1 -13 -5 0 3 -8 17 -18 15 -9 25 -25 23 -35 -1 -9 2 -15 6
-12 5 3 11 1 15 -4 3 -6 12 -8 20 -4 8 3 15 1 16 -3 0 -5 2 -16 4 -25 2 -12
-3 -15 -16 -12 -10 3 -16 10 -12 16 3 5 1 7 -5 3 -6 -3 -13 -2 -17 4 -3 5 -11
10 -16 10 -6 0 -3 -7 5 -16 20 -19 20 -20 -3 -20 -11 0 -17 4 -14 9 3 5 -5 6
-18 2 -24 -8 -24 -8 -5 14 23 25 18 26 -20 6 -16 -8 -23 -15 -15 -15 8 0 12
-2 10 -5 -3 -2 -15 -2 -28 2 -17 4 -19 8 -9 14 10 7 10 9 -2 9 -16 0 -40 -18
-40 -31 0 -4 10 -5 23 -2 12 3 19 3 16 -1 -6 -6 -33 -12 -71 -15 -5 -1 -8 -6
-8 -12 0 -6 7 -8 16 -5 8 3 12 2 9 -4 -9 -15 7 -12 29 5 14 11 48 15 120 15
89 0 106 3 145 25 33 19 47 23 57 14 8 -6 11 -16 8 -21 -4 -6 3 -5 15 2 25 13
23 32 -3 36 -23 3 -78 54 -73 68 2 6 27 10 55 11 51 0 69 -9 35 -18 -15 -4
-14 -5 3 -6 11 0 25 4 31 10 8 8 13 8 17 0 4 -6 1 -11 -6 -11 -7 -1 2 -7 21
-16 19 -8 37 -12 40 -9 3 3 -5 8 -17 11 -14 4 -21 13 -19 28 1 15 -4 21 -18
22 -44 2 -51 5 -30 13 13 5 1 8 -35 7 -30 -1 -58 -5 -62 -11 -5 -7 -14 -6 -27
2 -17 11 -19 9 -16 -12 1 -14 -1 -23 -5 -20 -4 2 -2 -11 4 -30 7 -22 14 -31
21 -25 6 5 17 5 25 -1 12 -8 11 -9 -5 -7 -11 2 -19 -2 -18 -7 1 -6 -7 -12 -18
-12 -13 -1 -17 2 -12 10 5 9 2 8 -9 0 -8 -7 -18 -10 -21 -6 -4 3 1 12 11 19
15 12 15 12 -5 7 -16 -3 -25 0 -29 11 -5 14 -9 14 -22 4 -11 -9 -13 -9 -9 -1
4 7 -2 18 -15 27 -12 9 -18 16 -12 16 6 0 14 -3 18 -7 4 -5 20 -8 34 -8 16 0
26 -6 25 -13 -2 -7 2 -12 8 -12 6 0 9 6 6 13 -2 6 0 20 5 31 7 12 7 16 0 12
-12 -7 -35 18 -25 27 3 4 13 1 22 -6 14 -11 14 -10 2 6 -12 16 -11 17 10 13
13 -3 28 -5 32 -5 5 -1 5 -5 2 -11 -3 -5 -2 -10 3 -10 17 0 21 13 7 26 -15 15
-10 44 7 44 5 0 6 -5 3 -10 -4 -6 -3 -10 2 -9 21 4 43 -2 43 -12 0 -6 -9 -8
-20 -4 -11 4 -20 2 -20 -4 0 -6 6 -11 14 -11 8 0 23 -3 33 -6 15 -5 15 -4 3 5
-12 9 -12 11 2 16 10 4 23 3 30 -1 7 -5 24 -7 37 -5 13 1 27 -2 30 -8 7 -11
51 -4 51 8 0 4 -41 13 -92 20 -50 7 -100 18 -110 24 -14 9 -21 8 -33 -8 -12
-16 -14 -17 -9 -2 10 27 -3 20 -32 -18z m-25 -59 c21 -22 21 -24 5 -22 -11 2
-19 7 -19 12 0 5 -4 15 -8 22 -13 20 -2 14 22 -12z"/>
<path d="M2478 823 c7 -3 16 -2 19 1 4 3 -2 6 -13 5 -11 0 -14 -3 -6 -6z"/>
<path d="M940 810 c0 -5 5 -10 11 -10 5 0 7 5 4 10 -3 6 -8 10 -11 10 -2 0 -4
-4 -4 -10z"/>
<path d="M2528 813 c7 -3 16 -2 19 1 4 3 -2 6 -13 5 -11 0 -14 -3 -6 -6z"/>
<path d="M1356 796 c10 -8 21 -12 24 -10 5 6 -21 24 -34 24 -6 0 -1 -6 10 -14z"/>
<path d="M2568 803 c-22 -6 -30 -30 -12 -37 9 -3 12 -2 9 5 -4 6 1 17 11 24
20 15 19 15 -8 8z"/>
<path d="M31 784 c0 -11 3 -14 6 -6 3 7 2 16 -1 19 -3 4 -6 -2 -5 -13z"/>
<path d="M2435 790 c-16 -6 -11 -8 20 -12 22 -3 45 -1 50 5 7 6 5 8 -5 5 -8
-3 -22 -2 -30 2 -8 4 -24 4 -35 0z"/>
<path d="M2645 791 c-3 -5 0 -13 6 -17 7 -4 9 -3 5 4 -3 6 2 13 11 15 16 4 16
5 1 6 -9 0 -19 -3 -23 -8z"/>
<path d="M2595 781 c-3 -6 3 -9 14 -8 11 0 17 5 15 9 -7 11 -22 10 -29 -1z"/>
<path d="M1966 772 c-3 -5 1 -9 9 -9 8 0 15 4 15 9 0 4 -4 8 -9 8 -6 0 -12 -4
-15 -8z"/>
<path d="M2108 773 c7 -3 16 -2 19 1 4 3 -2 6 -13 5 -11 0 -14 -3 -6 -6z"/>
<path d="M1318 743 c7 -3 16 -2 19 1 4 3 -2 6 -13 5 -11 0 -14 -3 -6 -6z"/>
<path d="M1775 740 c3 -5 10 -10 16 -10 5 0 9 5 9 10 0 6 -7 10 -16 10 -8 0
-12 -4 -9 -10z"/>
<path d="M1973 743 c9 -2 25 -2 35 0 9 3 1 5 -18 5 -19 0 -27 -2 -17 -5z"/>
<path d="M116 695 c-16 -12 -22 -12 -35 -2 -12 10 -13 9 -6 -3 36 -62 109
-121 148 -120 7 1 -8 12 -33 24 -51 27 -97 72 -86 83 4 4 12 1 16 -7 23 -37
29 -44 36 -37 4 4 1 19 -6 34 -7 16 -13 31 -12 36 3 10 0 9 -22 -8z"/>
<path d="M1479 697 c6 -8 8 -16 5 -20 -3 -3 2 -17 11 -31 10 -14 14 -26 9 -26
-5 0 6 -13 24 -30 33 -30 62 -39 62 -20 0 6 -5 10 -11 10 -16 0 -41 29 -34 40
4 6 -1 7 -12 3 -16 -6 -17 -5 -3 12 8 10 10 16 4 12 -6 -3 -18 9 -27 28 -9 19
-22 35 -28 35 -8 0 -9 -4 0 -13z"/>
<path d="M565 690 c-3 -5 -2 -10 4 -10 5 0 13 5 16 10 3 6 2 10 -4 10 -5 0
-13 -4 -16 -10z"/>
<path d="M926 675 c-28 -24 -28 -25 -7 -25 12 0 20 4 17 9 -3 5 2 12 11 15 9
4 20 1 24 -6 4 -7 11 -9 15 -5 7 7 -13 37 -25 37 -3 0 -19 -11 -35 -25z"/>
<path d="M1432 672 c-13 -13 -20 -28 -15 -32 4 -4 18 5 31 20 28 36 15 45 -16
12z"/>
<path d="M1922 673 c3 -15 16 -19 78 -21 58 -3 72 -1 63 8 -6 7 -30 11 -57 9
-25 -3 -46 0 -46 4 0 5 -7 6 -16 3 -8 -3 -12 -2 -9 4 3 6 1 10 -5 10 -6 0 -10
-8 -8 -17z"/>
<path d="M2438 683 c7 -3 16 -2 19 1 4 3 -2 6 -13 5 -11 0 -14 -3 -6 -6z"/>
<path d="M160 671 c0 -6 5 -13 10 -16 8 -5 8 -11 0 -20 -9 -10 -6 -15 12 -21
13 -4 32 -7 43 -5 17 2 18 0 5 -9 -11 -8 -4 -10 30 -9 73 2 112 10 107 23 -3
7 5 13 16 14 15 1 17 -2 9 -7 -8 -5 -1 -8 19 -8 29 0 30 2 13 14 -10 7 -22 13
-27 13 -5 0 -6 7 -3 16 4 12 2 15 -9 10 -8 -3 -15 -1 -15 4 0 17 -26 11 -44
-9 -17 -19 -17 -19 3 -14 11 3 18 9 15 14 -8 14 12 10 24 -4 9 -10 4 -18 -20
-32 -22 -13 -33 -15 -36 -7 -2 8 -8 7 -19 -3 -14 -14 -17 -13 -38 9 -21 22
-24 23 -30 8 -5 -11 -9 -13 -12 -5 -2 7 -11 9 -20 6 -10 -4 -14 -2 -10 4 8 13
-2 43 -14 43 -5 0 -9 -4 -9 -9z"/>
<path d="M190 670 c0 -5 7 -10 16 -10 8 0 12 5 9 10 -3 6 -10 10 -16 10 -5 0
-9 -4 -9 -10z"/>
<path d="M416 665 c-3 -8 -1 -17 3 -20 5 -3 11 2 15 10 3 8 1 17 -3 20 -5 3
-11 -2 -15 -10z"/>
<path d="M265 640 c-3 -5 -1 -10 4 -10 6 0 11 5 11 10 0 6 -2 10 -4 10 -3 0
-8 -4 -11 -10z"/>
<path d="M1270 640 c0 -6 13 -18 30 -29 16 -10 28 -20 26 -22 -2 -2 8 -5 22
-5 15 -1 37 -5 49 -9 17 -6 22 -3 25 17 2 18 9 22 28 20 17 -1 21 1 12 7 -8 4
-13 11 -13 15 2 15 0 15 -19 -4 -11 -11 -20 -27 -20 -35 0 -8 -2 -15 -5 -15
-9 0 -62 25 -97 47 -21 13 -38 19 -38 13z"/>
<path d="M446 625 c7 -17 48 -21 42 -3 -2 6 -14 13 -26 14 -15 3 -20 0 -16
-11z"/>
<path d="M1361 629 c-13 -5 -21 -12 -18 -15 3 -4 14 -3 24 1 10 5 21 7 26 7 4
-1 7 3 7 8 0 12 -7 12 -39 -1z"/>
<path d="M2470 630 c-19 -5 -55 -13 -80 -18 -58 -13 -181 -66 -130 -56 19 3
49 14 65 22 36 19 27 17 102 27 35 4 68 14 74 21 6 8 10 14 8 13 -2 -1 -20 -5
-39 -9z"/>
<path d="M605 621 c3 -5 -3 -12 -12 -14 -14 -4 -13 -5 4 -6 27 -1 39 15 17 23
-8 3 -12 2 -9 -3z"/>
<path d="M1747 623 c-4 -3 -7 -11 -7 -17 0 -6 5 -5 12 2 6 6 9 14 7 17 -3 3
-9 2 -12 -2z"/>
<path d="M2581 608 c-6 -10 -19 -18 -29 -17 -13 0 -12 2 6 9 12 5 22 12 22 16
0 3 -8 3 -17 -1 -10 -4 -58 -15 -108 -25 -49 -10 -110 -26 -135 -35 -26 -10
-60 -15 -81 -12 -32 4 -43 -1 -93 -44 -32 -27 -64 -49 -73 -49 -8 0 -28 -11
-45 -25 -17 -14 -24 -25 -15 -25 8 0 35 -11 61 -25 55 -29 124 -47 143 -36 8
4 -1 7 -21 8 -19 1 -52 7 -73 14 -36 12 -37 13 -13 19 14 4 28 2 31 -3 4 -5 9
-5 13 2 9 13 85 14 106 2 8 -6 19 -7 24 -3 6 3 0 10 -14 14 -14 4 18 5 71 1
58 -3 99 -1 102 5 4 5 -10 8 -34 7 -28 -2 -37 1 -30 8 6 6 24 10 40 10 17 0
28 4 25 9 -8 12 -52 10 -82 -6 -34 -17 -305 -32 -282 -15 12 8 9 10 -12 6 -15
-2 -25 0 -22 4 3 5 14 9 25 9 10 0 19 5 19 11 0 5 4 8 8 5 5 -3 33 1 63 9 30
8 80 15 112 15 33 0 57 4 57 11 0 5 10 9 22 7 11 -2 23 3 25 10 6 15 -21 16
-50 1 -12 -7 -55 -15 -97 -20 -41 -4 -84 -11 -95 -15 -20 -7 -20 -7 0 9 11 9
28 17 38 17 11 0 15 4 11 12 -5 8 -2 9 10 5 10 -4 15 -3 11 3 -3 5 11 12 32
15 21 3 61 12 88 20 74 21 197 46 203 41 9 -10 -75 -37 -123 -41 -27 -2 -63
-9 -80 -16 -16 -6 -48 -15 -70 -19 -39 -7 -39 -8 -7 -9 18 0 49 6 69 14 19 8
53 15 74 15 52 0 131 21 147 40 8 9 11 9 7 2 -4 -8 9 -3 29 10 38 25 52 45 31
45 -7 0 -17 -9 -24 -19z"/>
<path d="M2630 625 c-2 -12 -6 -26 -24 -90 -12 -40 -15 -44 -15 -21 -1 16 -4
26 -8 23 -3 -4 -12 -2 -20 4 -10 9 -17 8 -28 -1 -8 -7 -15 -9 -15 -5 0 4 -6 2
-14 -4 -8 -6 -37 -14 -65 -18 -28 -3 -51 -9 -51 -13 0 -11 91 -2 106 11 11 9
14 8 14 -5 0 -9 5 -16 10 -16 6 0 10 9 10 20 0 22 16 26 40 10 13 -9 11 -13
-9 -29 -17 -13 -22 -25 -18 -41 5 -21 5 -21 -14 -4 -18 17 -20 17 -35 -2 -8
-10 -13 -13 -9 -6 4 7 -1 12 -11 12 -10 0 -14 -3 -11 -7 4 -3 2 -12 -3 -18
-13 -16 14 -40 31 -29 9 5 7 10 -7 15 -17 7 -17 8 -1 8 9 1 17 6 17 11 0 6 7
10 15 10 8 0 15 -4 15 -9 0 -5 7 -11 16 -13 13 -3 13 -5 -1 -23 -14 -17 -16
-18 -11 -2 3 11 2 16 -4 12 -6 -3 -10 -1 -10 4 0 6 -5 11 -11 11 -5 0 -8 -4
-5 -9 13 -21 -6 -41 -35 -36 -16 3 -29 1 -29 -4 0 -17 22 -24 32 -10 7 10 8 9
3 -6 -6 -18 -4 -18 18 3 32 30 46 28 18 -2 -18 -19 -30 -23 -56 -19 -26 4 -33
2 -37 -15 -4 -15 -2 -19 8 -15 8 3 12 8 10 12 -3 4 4 8 15 8 18 2 18 0 -3 -17
-13 -11 -18 -19 -12 -20 6 0 17 7 24 15 7 8 17 15 22 15 29 0 128 151 128 195
0 8 7 33 16 54 9 22 14 46 11 53 -3 7 -6 9 -7 3z m-54 -176 c-9 -19 -16 -28
-17 -21 -1 6 -2 18 -3 25 -1 11 25 39 32 33 1 -2 -4 -18 -12 -37z"/>
<path d="M1237 614 c-3 -3 -3 -13 0 -22 5 -11 3 -13 -7 -7 -8 5 -11 4 -7 -3 4
-5 16 -8 27 -5 17 5 18 8 8 22 -11 14 -10 13 7 -1 13 -10 26 -14 34 -9 9 6 4
12 -20 20 -38 13 -34 13 -42 5z"/>
<path d="M400 590 c-39 -6 -35 -7 28 -7 40 0 71 1 70 2 -10 8 -60 10 -98 5z"/>
<path d="M1860 580 c0 -5 5 -10 11 -10 5 0 7 5 4 10 -3 6 -8 10 -11 10 -2 0
-4 -4 -4 -10z"/>
<path d="M2587 576 c-21 -16 -22 -23 -2 -23 8 0 17 7 20 15 8 21 3 23 -18 8z"/>
<path d="M268 573 c7 -3 16 -2 19 1 4 3 -2 6 -13 5 -11 0 -14 -3 -6 -6z"/>
<path d="M318 573 c6 -2 18 -2 25 0 6 3 1 5 -13 5 -14 0 -19 -2 -12 -5z"/>
<path d="M1515 560 c3 -5 8 -10 11 -10 2 0 4 5 4 10 0 6 -5 10 -11 10 -5 0 -7
-4 -4 -10z"/>
<path d="M1658 548 c5 -5 16 -8 23 -6 8 3 3 7 -10 11 -17 4 -21 3 -13 -5z"/>
<path d="M1588 503 c7 -3 16 -2 19 1 4 3 -2 6 -13 5 -11 0 -14 -3 -6 -6z"/>
<path d="M2528 489 c-23 -25 -13 -24 19 1 14 11 19 20 12 19 -8 0 -22 -9 -31
-20z"/>
<path d="M1168 483 c7 -3 16 -2 19 1 4 3 -2 6 -13 5 -11 0 -14 -3 -6 -6z"/>
<path d="M1218 483 c7 -3 16 -2 19 1 4 3 -2 6 -13 5 -11 0 -14 -3 -6 -6z"/>
<path d="M1807 468 c-5 -19 1 -23 18 -10 15 11 15 29 0 29 -7 0 -16 -9 -18
-19z"/>
<path d="M2465 480 c-3 -5 -20 -9 -38 -9 -18 1 -52 -4 -77 -10 -25 -6 -67 -11
-95 -12 -27 -1 -63 -5 -80 -9 -38 -10 95 -2 190 11 124 17 136 20 130 30 -8
12 -22 12 -30 -1z"/>
<path d="M909 473 c-1 -5 -1 -12 1 -18 1 -5 -4 -4 -11 3 -7 6 -20 12 -28 11
-14 0 -14 -1 -1 -6 8 -4 21 -13 28 -22 11 -14 13 -14 27 3 14 19 12 36 -6 36
-5 0 -10 -3 -10 -7z"/>
<path d="M840 461 c0 -6 4 -13 10 -16 6 -3 7 1 4 9 -7 18 -14 21 -14 7z"/>
<path d="M1180 446 c0 -2 7 -9 15 -16 9 -7 15 -8 15 -2 0 5 -7 12 -15 16 -8 3
-15 4 -15 2z"/>
<path d="M940 436 c0 -2 8 -10 18 -17 15 -13 16 -12 3 4 -13 16 -21 21 -21 13z"/>
<path d="M1709 413 c-13 -16 -12 -17 3 -4 19 14 53 8 43 -9 -3 -5 -11 -10 -16
-10 -6 0 -7 5 -3 12 4 7 3 8 -5 4 -9 -6 -9 -11 0 -22 15 -18 40 -18 33 0 -3 7
2 16 10 19 12 5 14 0 9 -25 -4 -22 -3 -29 5 -24 7 4 12 19 13 34 l1 27 8 -25
c4 -14 8 -20 9 -13 1 6 4 18 7 27 4 12 -2 14 -30 11 -20 -2 -39 1 -42 6 -9 14
-30 10 -45 -8z"/>
<path d="M1841 396 c-1 -37 33 -116 51 -116 13 0 10 9 -14 40 -12 17 -25 49
-29 72 l-6 43 -2 -39z"/>
<path d="M2108 423 c6 -2 18 -2 25 0 6 3 1 5 -13 5 -14 0 -19 -2 -12 -5z"/>
<path d="M2288 423 c7 -3 16 -2 19 1 4 3 -2 6 -13 5 -11 0 -14 -3 -6 -6z"/>
<path d="M909 410 c-7 -5 -10 -13 -5 -17 5 -4 11 -3 13 4 2 7 11 9 19 6 8 -3
14 -3 14 0 0 10 -27 15 -41 7z"/>
<path d="M1075 390 c3 -5 8 -10 11 -10 2 0 4 5 4 10 0 6 -5 10 -11 10 -5 0 -7
-4 -4 -10z"/>
<path d="M1520 379 c0 -5 11 -9 25 -9 14 0 25 2 25 4 0 2 -11 6 -25 8 -14 3
-25 1 -25 -3z"/>
<path d="M2311 381 c-9 -6 -6 -10 10 -14 28 -8 34 -3 16 11 -7 6 -19 7 -26 3z"/>
<path d="M2180 371 c8 -6 25 -11 38 -11 13 0 33 -5 44 -11 16 -8 19 -8 16 2
-4 13 -19 17 -78 26 -26 3 -31 2 -20 -6z"/>
<path d="M2364 353 c4 -16 3 -23 -1 -18 -13 16 -33 16 -56 0 -18 -12 -19 -15
-4 -15 9 0 22 -8 28 -18 8 -13 20 -17 43 -14 23 2 27 1 16 -7 -8 -5 -18 -7
-22 -5 -5 3 -7 0 -6 -7 3 -11 -10 -19 -75 -51 -10 -5 -26 -4 -38 3 -12 6 -30
9 -40 6 -10 -3 -17 -1 -13 4 3 5 0 9 -5 9 -6 0 -11 -7 -11 -15 0 -11 12 -15
43 -16 31 -1 20 -5 -41 -13 l-83 -11 33 -32 c27 -27 28 -31 10 -26 -12 3 -20
10 -19 15 1 6 -4 13 -11 15 -7 3 -11 -1 -10 -9 2 -7 -3 -12 -10 -10 -8 1 -11
-2 -7 -8 8 -13 -1 -13 -25 0 -12 6 -16 17 -13 30 3 11 0 20 -6 20 -6 0 -8 -7
-4 -17 5 -12 3 -14 -8 -7 -19 12 -60 13 -52 1 3 -5 0 -7 -8 -5 -8 3 -13 10
-12 16 1 6 -8 9 -21 8 -18 -2 -22 1 -19 15 4 15 9 17 25 8 34 -18 60 -20 54
-4 -3 9 1 15 10 15 8 0 12 -4 9 -10 -3 -6 4 -10 17 -10 20 1 21 2 6 11 -10 5
-18 14 -18 19 0 5 8 10 18 12 14 3 13 5 -5 10 -14 4 -23 2 -23 -6 0 -6 -9 -17
-20 -24 -18 -11 -25 -10 -49 7 -16 11 -31 18 -33 15 -3 -3 -8 2 -11 11 -8 20
12 19 36 -3 11 -9 17 -11 13 -4 -5 9 -1 15 13 19 l22 6 -21 19 c-11 10 -20 23
-20 29 0 6 -6 9 -12 6 -7 -2 -12 -11 -10 -20 1 -9 -6 -21 -17 -27 -18 -9 -25
-5 -51 31 -16 23 -30 47 -30 52 0 6 -2 8 -5 5 -9 -9 15 -62 41 -89 17 -18 22
-29 15 -34 -6 -3 -9 -11 -5 -16 3 -5 10 -7 15 -4 5 4 9 1 9 -5 0 -6 4 -9 8 -6
5 3 9 -1 9 -9 0 -20 -12 -19 -33 2 -9 10 -24 18 -33 20 -21 3 24 -33 64 -51
17 -7 41 -25 55 -40 28 -30 78 -61 99 -61 8 0 16 -5 18 -12 8 -23 -58 -4 -93
26 -19 17 -48 38 -64 46 -18 9 -28 20 -24 27 5 7 2 9 -9 5 -9 -3 -23 1 -32 9
-8 8 -20 12 -26 8 -8 -4 -9 -3 -5 5 5 7 -6 17 -29 27 -20 8 -52 29 -72 47 -19
18 -39 32 -45 32 -12 0 -38 35 -38 49 1 6 8 -1 16 -16 17 -33 28 -37 19 -7 -5
15 -4 19 4 15 6 -4 11 -2 11 4 0 21 58 -19 79 -56 12 -20 24 -34 28 -31 3 4
-2 19 -12 34 l-18 27 30 -24 c16 -14 27 -27 24 -30 -3 -3 -7 -10 -8 -16 -2
-11 32 -12 43 -1 8 7 -46 73 -57 70 -4 -1 -5 7 -2 17 3 11 0 20 -6 20 -6 0
-11 -8 -12 -17 0 -13 -3 -11 -10 7 -13 33 -16 35 -33 20 -9 -6 -21 -10 -28 -7
-7 2 -21 0 -30 -4 -12 -7 -20 -4 -27 9 -6 11 -22 18 -43 19 -28 2 -30 1 -11
-7 12 -5 30 -24 39 -42 30 -59 78 -115 120 -142 62 -39 65 -31 4 11 -29 21
-60 49 -69 63 -10 16 4 8 38 -23 35 -31 60 -46 70 -42 8 3 12 3 8 -1 -4 -4 21
-24 56 -43 35 -20 83 -52 108 -73 50 -41 97 -51 123 -25 10 9 22 18 27 18 5 1
14 2 19 3 6 0 9 6 8 11 -4 13 -40 8 -49 -7 -4 -6 -12 -7 -19 -3 -10 6 -9 10 3
17 9 5 14 15 10 24 -4 12 -1 15 13 12 10 -2 18 -10 16 -16 -1 -9 6 -7 22 3 16
11 26 13 31 5 12 -19 -6 -48 -40 -64 -19 -9 -36 -20 -39 -25 -3 -4 -24 -7 -47
-5 -33 2 -51 11 -83 42 -36 34 -124 92 -140 92 -3 0 -6 -4 -6 -10 0 -5 6 -10
13 -10 17 0 91 -49 141 -94 31 -28 46 -35 80 -34 24 0 51 8 65 19 13 11 29 19
36 19 11 0 35 41 35 60 0 5 -11 22 -25 39 l-26 30 38 10 c21 6 55 13 76 16 20
3 37 10 37 15 0 5 6 7 13 4 7 -2 32 9 55 26 23 16 46 30 52 30 16 0 12 17 -6
24 -9 3 -27 6 -40 6 -15 0 -24 6 -24 16 0 8 -4 12 -10 9 -5 -3 -10 -1 -10 4 0
15 6 14 35 -5 29 -19 58 -12 49 11 -4 10 0 15 11 15 9 0 15 5 13 12 -8 22 -28
20 -37 -4 l-10 -23 0 23 c-1 12 -6 22 -12 22 -7 0 -9 -10 -5 -27z m-604 -19
c0 -8 -19 -13 -24 -6 -3 5 1 9 9 9 8 0 15 -2 15 -3z m177 -66 c-3 -8 -6 -5 -6
6 -1 11 2 17 5 13 3 -3 4 -12 1 -19z m117 -143 c35 -29 36 -30 16 -43 -18 -11
-24 -8 -57 21 -34 32 -39 58 -9 53 7 -1 30 -15 50 -31z"/>
<path d="M2021 114 c18 -18 36 -31 41 -28 13 8 -38 61 -58 61 -10 0 -4 -11 17
-33z m19 1 c13 -14 21 -25 18 -25 -2 0 -15 11 -28 25 -13 14 -21 25 -18 25 2
0 15 -11 28 -25z"/>
<path d="M2290 349 c0 -5 5 -7 10 -4 6 3 10 8 10 11 0 2 -4 4 -10 4 -5 0 -10
-5 -10 -11z"/>
<path d="M2235 320 c11 -5 27 -9 35 -9 13 -1 13 0 0 9 -8 5 -24 9 -35 9 -20 0
-20 0 0 -9z"/>
<path d="M2305 290 c3 -5 8 -10 11 -10 2 0 4 5 4 10 0 6 -5 10 -11 10 -5 0 -7
-4 -4 -10z"/>
<path d="M2105 250 c-3 -5 0 -10 7 -10 7 0 23 -3 36 -6 13 -4 22 -2 22 5 0 7
-4 9 -10 6 -5 -3 -18 -1 -29 5 -13 7 -22 7 -26 0z"/>
<path d="M2070 220 c19 -13 30 -13 30 0 0 6 -10 10 -22 10 -19 0 -20 -2 -8
-10z"/>
<path d="M2088 200 c-32 -17 -35 -28 -13 -37 21 -7 33 6 15 17 -14 9 2 15 60
23 23 3 23 3 -5 8 -17 3 -42 -2 -57 -11z"/>
</g>
</svg>
